G04 #@! TF.GenerationSoftware,KiCad,Pcbnew,5.1.12-84ad8e8a86~92~ubuntu20.04.1*
G04 #@! TF.CreationDate,2022-01-09T16:30:32+01:00*
G04 #@! TF.ProjectId,hlk-pm-pcb,686c6b2d-706d-42d7-9063-622e6b696361,1.0*
G04 #@! TF.SameCoordinates,Original*
G04 #@! TF.FileFunction,Copper,L2,Bot*
G04 #@! TF.FilePolarity,Positive*
%FSLAX46Y46*%
G04 Gerber Fmt 4.6, Leading zero omitted, Abs format (unit mm)*
G04 Created by KiCad (PCBNEW 5.1.12-84ad8e8a86~92~ubuntu20.04.1) date 2022-01-09 16:30:32*
%MOMM*%
%LPD*%
G01*
G04 APERTURE LIST*
G04 #@! TA.AperFunction,ComponentPad*
%ADD10O,2.400000X2.400000*%
G04 #@! TD*
G04 #@! TA.AperFunction,ComponentPad*
%ADD11C,2.400000*%
G04 #@! TD*
G04 #@! TA.AperFunction,ComponentPad*
%ADD12C,1.800000*%
G04 #@! TD*
G04 #@! TA.AperFunction,ComponentPad*
%ADD13C,2.300000*%
G04 #@! TD*
G04 #@! TA.AperFunction,ComponentPad*
%ADD14R,2.000000X2.300000*%
G04 #@! TD*
G04 #@! TA.AperFunction,ComponentPad*
%ADD15C,3.000000*%
G04 #@! TD*
G04 #@! TA.AperFunction,ComponentPad*
%ADD16R,3.000000X3.000000*%
G04 #@! TD*
G04 #@! TA.AperFunction,Conductor*
%ADD17C,2.000000*%
G04 #@! TD*
G04 APERTURE END LIST*
D10*
X89408000Y-87630000D03*
D11*
X89408000Y-62230000D03*
D12*
X125651000Y-86748000D03*
X128651000Y-79248000D03*
D13*
X121198000Y-57214000D03*
X115998000Y-86614000D03*
D14*
X110998000Y-86614000D03*
D13*
X105798000Y-57214000D03*
D15*
X132080000Y-59690000D03*
D16*
X127000000Y-59690000D03*
D15*
X100330000Y-58674000D03*
D16*
X95250000Y-58674000D03*
D15*
X97790000Y-64876000D03*
X97790000Y-87376000D03*
D17*
X95250000Y-62336000D02*
X97790000Y-64876000D01*
X95250000Y-58674000D02*
X95250000Y-62336000D01*
X97790000Y-87376000D02*
X89662000Y-87376000D01*
X89662000Y-87376000D02*
X89408000Y-87630000D01*
X110998000Y-86614000D02*
X110998000Y-83820000D01*
X110998000Y-83820000D02*
X106426000Y-79248000D01*
X89408000Y-62230000D02*
X106426000Y-79248000D01*
X106426000Y-79248000D02*
X128651000Y-79248000D01*
X125517000Y-86614000D02*
X125651000Y-86748000D01*
X115998000Y-86614000D02*
X125517000Y-86614000D01*
X107696000Y-68834000D02*
X128778000Y-68834000D01*
X128778000Y-68834000D02*
X133096000Y-73152000D01*
X133096000Y-79303000D02*
X125651000Y-86748000D01*
X133096000Y-73152000D02*
X133096000Y-79303000D01*
X100330000Y-61468000D02*
X107696000Y-68834000D01*
X100330000Y-58674000D02*
X100330000Y-61468000D01*
M02*
