G04 #@! TF.GenerationSoftware,KiCad,Pcbnew,5.1.12-84ad8e8a86~92~ubuntu20.04.1*
G04 #@! TF.CreationDate,2022-01-09T16:30:32+01:00*
G04 #@! TF.ProjectId,hlk-pm-pcb,686c6b2d-706d-42d7-9063-622e6b696361,1.0*
G04 #@! TF.SameCoordinates,Original*
G04 #@! TF.FileFunction,Legend,Top*
G04 #@! TF.FilePolarity,Positive*
%FSLAX46Y46*%
G04 Gerber Fmt 4.6, Leading zero omitted, Abs format (unit mm)*
G04 Created by KiCad (PCBNEW 5.1.12-84ad8e8a86~92~ubuntu20.04.1) date 2022-01-09 16:30:32*
%MOMM*%
%LPD*%
G01*
G04 APERTURE LIST*
%ADD10C,0.120000*%
%ADD11C,0.150000*%
G04 APERTURE END LIST*
D10*
X134604000Y-78774000D02*
X134604000Y-81574000D01*
X134604000Y-81574000D02*
X132604000Y-81574000D01*
X132604000Y-81574000D02*
X132604000Y-78774000D01*
X132604000Y-78774000D02*
X134604000Y-78774000D01*
X126840064Y-74274000D02*
X125635936Y-74274000D01*
X126840064Y-76094000D02*
X125635936Y-76094000D01*
X89408000Y-86190000D02*
X89408000Y-82800000D01*
X89408000Y-63670000D02*
X89408000Y-67060000D01*
X92028000Y-82800000D02*
X92028000Y-67060000D01*
X86788000Y-82800000D02*
X92028000Y-82800000D01*
X86788000Y-67060000D02*
X86788000Y-82800000D01*
X92028000Y-67060000D02*
X86788000Y-67060000D01*
D11*
X124051000Y-76998000D02*
X124051000Y-88998000D01*
X130251000Y-76998000D02*
X130251000Y-88998000D01*
X130251000Y-88998000D02*
X124051000Y-88998000D01*
X130251000Y-76998000D02*
X124051000Y-76998000D01*
D10*
X103398000Y-89014000D02*
X123598000Y-89014000D01*
X123598000Y-89014000D02*
X123598000Y-54814000D01*
X123598000Y-54814000D02*
X103398000Y-54814000D01*
X103398000Y-54814000D02*
X103398000Y-89014000D01*
X109998000Y-89404000D02*
X112008000Y-89404000D01*
X134620000Y-62230000D02*
X124460000Y-62230000D01*
X134620000Y-63500000D02*
X134620000Y-55880000D01*
X134620000Y-55880000D02*
X124460000Y-55880000D01*
X124460000Y-55880000D02*
X124460000Y-63500000D01*
X124460000Y-63500000D02*
X134620000Y-63500000D01*
X102870000Y-61214000D02*
X92710000Y-61214000D01*
X102870000Y-62484000D02*
X102870000Y-54864000D01*
X102870000Y-54864000D02*
X92710000Y-54864000D01*
X92710000Y-54864000D02*
X92710000Y-62484000D01*
X92710000Y-62484000D02*
X102870000Y-62484000D01*
X102700000Y-64766000D02*
X99540000Y-64766000D01*
X96040000Y-64766000D02*
X92880000Y-64766000D01*
X96040000Y-87486000D02*
X92880000Y-87486000D01*
X92880000Y-87486000D02*
X92880000Y-64766000D01*
X102700000Y-87486000D02*
X102700000Y-64766000D01*
X102700000Y-87486000D02*
X99540000Y-87486000D01*
X125815000Y-64728000D02*
X125815000Y-67578000D01*
X125815000Y-73448000D02*
X125815000Y-70598000D01*
X133470563Y-73448000D02*
X125815000Y-73448000D01*
X133470563Y-64728000D02*
X125815000Y-64728000D01*
X134535000Y-65792437D02*
X134535000Y-67578000D01*
X134535000Y-72383563D02*
X134535000Y-70598000D01*
X134535000Y-72383563D02*
X133470563Y-73448000D01*
X134535000Y-65792437D02*
X133470563Y-64728000D01*
X135775000Y-71598000D02*
X134775000Y-71598000D01*
X135275000Y-72098000D02*
X135275000Y-71098000D01*
X133103252Y-75919000D02*
X132580748Y-75919000D01*
X133103252Y-74449000D02*
X132580748Y-74449000D01*
D11*
X134856380Y-81007333D02*
X135570666Y-81007333D01*
X135713523Y-81054952D01*
X135808761Y-81150190D01*
X135856380Y-81293047D01*
X135856380Y-81388285D01*
X135856380Y-80531142D02*
X134856380Y-80531142D01*
X134856380Y-80150190D01*
X134904000Y-80054952D01*
X134951619Y-80007333D01*
X135046857Y-79959714D01*
X135189714Y-79959714D01*
X135284952Y-80007333D01*
X135332571Y-80054952D01*
X135380190Y-80150190D01*
X135380190Y-80531142D01*
X135856380Y-79007333D02*
X135856380Y-79578761D01*
X135856380Y-79293047D02*
X134856380Y-79293047D01*
X134999238Y-79388285D01*
X135094476Y-79483523D01*
X135142095Y-79578761D01*
X129087571Y-75517333D02*
X129087571Y-75850666D01*
X129611380Y-75850666D02*
X128611380Y-75850666D01*
X128611380Y-75374476D01*
X128611380Y-75088761D02*
X128611380Y-74469714D01*
X128992333Y-74803047D01*
X128992333Y-74660190D01*
X129039952Y-74564952D01*
X129087571Y-74517333D01*
X129182809Y-74469714D01*
X129420904Y-74469714D01*
X129516142Y-74517333D01*
X129563761Y-74564952D01*
X129611380Y-74660190D01*
X129611380Y-74945904D01*
X129563761Y-75041142D01*
X129516142Y-75088761D01*
X89336571Y-75263333D02*
X89336571Y-75596666D01*
X89860380Y-75596666D02*
X88860380Y-75596666D01*
X88860380Y-75120476D01*
X88955619Y-74787142D02*
X88908000Y-74739523D01*
X88860380Y-74644285D01*
X88860380Y-74406190D01*
X88908000Y-74310952D01*
X88955619Y-74263333D01*
X89050857Y-74215714D01*
X89146095Y-74215714D01*
X89288952Y-74263333D01*
X89860380Y-74834761D01*
X89860380Y-74215714D01*
X127579380Y-83593238D02*
X127103190Y-83926571D01*
X127579380Y-84164666D02*
X126579380Y-84164666D01*
X126579380Y-83783714D01*
X126627000Y-83688476D01*
X126674619Y-83640857D01*
X126769857Y-83593238D01*
X126912714Y-83593238D01*
X127007952Y-83640857D01*
X127055571Y-83688476D01*
X127103190Y-83783714D01*
X127103190Y-84164666D01*
X126579380Y-83307523D02*
X127579380Y-82974190D01*
X126579380Y-82640857D01*
X127579380Y-81783714D02*
X127579380Y-82355142D01*
X127579380Y-82069428D02*
X126579380Y-82069428D01*
X126722238Y-82164666D01*
X126817476Y-82259904D01*
X126865095Y-82355142D01*
X112593380Y-73223285D02*
X111593380Y-73223285D01*
X111593380Y-72842333D01*
X111641000Y-72747095D01*
X111688619Y-72699476D01*
X111783857Y-72651857D01*
X111926714Y-72651857D01*
X112021952Y-72699476D01*
X112069571Y-72747095D01*
X112117190Y-72842333D01*
X112117190Y-73223285D01*
X112545761Y-72270904D02*
X112593380Y-72128047D01*
X112593380Y-71889952D01*
X112545761Y-71794714D01*
X112498142Y-71747095D01*
X112402904Y-71699476D01*
X112307666Y-71699476D01*
X112212428Y-71747095D01*
X112164809Y-71794714D01*
X112117190Y-71889952D01*
X112069571Y-72080428D01*
X112021952Y-72175666D01*
X111974333Y-72223285D01*
X111879095Y-72270904D01*
X111783857Y-72270904D01*
X111688619Y-72223285D01*
X111641000Y-72175666D01*
X111593380Y-72080428D01*
X111593380Y-71842333D01*
X111641000Y-71699476D01*
X112593380Y-70747095D02*
X112593380Y-71318523D01*
X112593380Y-71032809D02*
X111593380Y-71032809D01*
X111736238Y-71128047D01*
X111831476Y-71223285D01*
X111879095Y-71318523D01*
X124420380Y-65103333D02*
X125134666Y-65103333D01*
X125277523Y-65150952D01*
X125372761Y-65246190D01*
X125420380Y-65389047D01*
X125420380Y-65484285D01*
X124515619Y-64674761D02*
X124468000Y-64627142D01*
X124420380Y-64531904D01*
X124420380Y-64293809D01*
X124468000Y-64198571D01*
X124515619Y-64150952D01*
X124610857Y-64103333D01*
X124706095Y-64103333D01*
X124848952Y-64150952D01*
X125420380Y-64722380D01*
X125420380Y-64103333D01*
X91146380Y-61039333D02*
X91860666Y-61039333D01*
X92003523Y-61086952D01*
X92098761Y-61182190D01*
X92146380Y-61325047D01*
X92146380Y-61420285D01*
X92146380Y-60039333D02*
X92146380Y-60610761D01*
X92146380Y-60325047D02*
X91146380Y-60325047D01*
X91289238Y-60420285D01*
X91384476Y-60515523D01*
X91432095Y-60610761D01*
X97591571Y-82756333D02*
X97591571Y-83089666D01*
X98115380Y-83089666D02*
X97115380Y-83089666D01*
X97115380Y-82613476D01*
X98115380Y-81708714D02*
X98115380Y-82280142D01*
X98115380Y-81994428D02*
X97115380Y-81994428D01*
X97258238Y-82089666D01*
X97353476Y-82184904D01*
X97401095Y-82280142D01*
X130532142Y-69254666D02*
X130579761Y-69302285D01*
X130627380Y-69445142D01*
X130627380Y-69540380D01*
X130579761Y-69683238D01*
X130484523Y-69778476D01*
X130389285Y-69826095D01*
X130198809Y-69873714D01*
X130055952Y-69873714D01*
X129865476Y-69826095D01*
X129770238Y-69778476D01*
X129675000Y-69683238D01*
X129627380Y-69540380D01*
X129627380Y-69445142D01*
X129675000Y-69302285D01*
X129722619Y-69254666D01*
X129722619Y-68873714D02*
X129675000Y-68826095D01*
X129627380Y-68730857D01*
X129627380Y-68492761D01*
X129675000Y-68397523D01*
X129722619Y-68349904D01*
X129817857Y-68302285D01*
X129913095Y-68302285D01*
X130055952Y-68349904D01*
X130627380Y-68921333D01*
X130627380Y-68302285D01*
X135739142Y-75350666D02*
X135786761Y-75398285D01*
X135834380Y-75541142D01*
X135834380Y-75636380D01*
X135786761Y-75779238D01*
X135691523Y-75874476D01*
X135596285Y-75922095D01*
X135405809Y-75969714D01*
X135262952Y-75969714D01*
X135072476Y-75922095D01*
X134977238Y-75874476D01*
X134882000Y-75779238D01*
X134834380Y-75636380D01*
X134834380Y-75541142D01*
X134882000Y-75398285D01*
X134929619Y-75350666D01*
X135834380Y-74398285D02*
X135834380Y-74969714D01*
X135834380Y-74684000D02*
X134834380Y-74684000D01*
X134977238Y-74779238D01*
X135072476Y-74874476D01*
X135120095Y-74969714D01*
M02*
