G04 #@! TF.GenerationSoftware,KiCad,Pcbnew,5.1.12-84ad8e8a86~92~ubuntu20.04.1*
G04 #@! TF.CreationDate,2022-01-09T16:30:32+01:00*
G04 #@! TF.ProjectId,hlk-pm-pcb,686c6b2d-706d-42d7-9063-622e6b696361,1.0*
G04 #@! TF.SameCoordinates,Original*
G04 #@! TF.FileFunction,Paste,Top*
G04 #@! TF.FilePolarity,Positive*
%FSLAX46Y46*%
G04 Gerber Fmt 4.6, Leading zero omitted, Abs format (unit mm)*
G04 Created by KiCad (PCBNEW 5.1.12-84ad8e8a86~92~ubuntu20.04.1) date 2022-01-09 16:30:32*
%MOMM*%
%LPD*%
G01*
G04 APERTURE LIST*
G04 APERTURE END LIST*
G36*
G01*
X125463000Y-74559000D02*
X125463000Y-75809000D01*
G75*
G02*
X125213000Y-76059000I-250000J0D01*
G01*
X124463000Y-76059000D01*
G75*
G02*
X124213000Y-75809000I0J250000D01*
G01*
X124213000Y-74559000D01*
G75*
G02*
X124463000Y-74309000I250000J0D01*
G01*
X125213000Y-74309000D01*
G75*
G02*
X125463000Y-74559000I0J-250000D01*
G01*
G37*
G36*
G01*
X128263000Y-74559000D02*
X128263000Y-75809000D01*
G75*
G02*
X128013000Y-76059000I-250000J0D01*
G01*
X127263000Y-76059000D01*
G75*
G02*
X127013000Y-75809000I0J250000D01*
G01*
X127013000Y-74559000D01*
G75*
G02*
X127263000Y-74309000I250000J0D01*
G01*
X128013000Y-74309000D01*
G75*
G02*
X128263000Y-74559000I0J-250000D01*
G01*
G37*
G36*
G01*
X128675000Y-68088000D02*
X128675000Y-70088000D01*
G75*
G02*
X128425000Y-70338000I-250000J0D01*
G01*
X124525000Y-70338000D01*
G75*
G02*
X124275000Y-70088000I0J250000D01*
G01*
X124275000Y-68088000D01*
G75*
G02*
X124525000Y-67838000I250000J0D01*
G01*
X128425000Y-67838000D01*
G75*
G02*
X128675000Y-68088000I0J-250000D01*
G01*
G37*
G36*
G01*
X136075000Y-68088000D02*
X136075000Y-70088000D01*
G75*
G02*
X135825000Y-70338000I-250000J0D01*
G01*
X131925000Y-70338000D01*
G75*
G02*
X131675000Y-70088000I0J250000D01*
G01*
X131675000Y-68088000D01*
G75*
G02*
X131925000Y-67838000I250000J0D01*
G01*
X135825000Y-67838000D01*
G75*
G02*
X136075000Y-68088000I0J-250000D01*
G01*
G37*
G36*
G01*
X132392000Y-74709000D02*
X132392000Y-75659000D01*
G75*
G02*
X132142000Y-75909000I-250000J0D01*
G01*
X131642000Y-75909000D01*
G75*
G02*
X131392000Y-75659000I0J250000D01*
G01*
X131392000Y-74709000D01*
G75*
G02*
X131642000Y-74459000I250000J0D01*
G01*
X132142000Y-74459000D01*
G75*
G02*
X132392000Y-74709000I0J-250000D01*
G01*
G37*
G36*
G01*
X134292000Y-74709000D02*
X134292000Y-75659000D01*
G75*
G02*
X134042000Y-75909000I-250000J0D01*
G01*
X133542000Y-75909000D01*
G75*
G02*
X133292000Y-75659000I0J250000D01*
G01*
X133292000Y-74709000D01*
G75*
G02*
X133542000Y-74459000I250000J0D01*
G01*
X134042000Y-74459000D01*
G75*
G02*
X134292000Y-74709000I0J-250000D01*
G01*
G37*
M02*
