%FSLAX45Y45*%
G04 Gerber Fmt 4.5, Leading zero omitted, Abs format (unit mm)*
G04 Created by KiCad (PCBNEW 5.1.12-84ad8e8a86~92~ubuntu20.04.1) date 2022-01-09 16:37:45*
%MOMM*%
%LPD*%
G01*
G04 APERTURE LIST*
%TA.AperFunction,Profile*%
%ADD10C,0.050000*%
%TD*%
%ADD11C,0.200000*%
%ADD12C,0.300000*%
G04 APERTURE END LIST*
D10*
X13348700Y-5453500D02*
G75*
G02*
X13648700Y-5753500I0J-300000D01*
G01*
X13648700Y-8653500D02*
G75*
G02*
X13348700Y-8953500I-300000J0D01*
G01*
X8648700Y-5753500D02*
G75*
G02*
X8948700Y-5453500I300000J0D01*
G01*
X8948700Y-8953500D02*
G75*
G02*
X8648700Y-8653500I0J300000D01*
G01*
X8948700Y-5453500D02*
X13348700Y-5453500D01*
X8648700Y-8653500D02*
X8648700Y-5753500D01*
X13648700Y-8653500D02*
X13648700Y-5753500D01*
X8948700Y-8953500D02*
X13348700Y-8953500D01*
D11*
X12525100Y-8634800D02*
X12605100Y-8714800D01*
X12605100Y-8634800D02*
X12525100Y-8714800D01*
X12825100Y-7884800D02*
X12905100Y-7964800D01*
X12905100Y-7884800D02*
X12825100Y-7964800D01*
X10629800Y-5721400D02*
G75*
G03*
X10629800Y-5721400I-50000J0D01*
G01*
X11149800Y-8661400D02*
G75*
G03*
X11149800Y-8661400I-50000J0D01*
G01*
X11649800Y-8661400D02*
G75*
G03*
X11649800Y-8661400I-50000J0D01*
G01*
X12169800Y-5721400D02*
G75*
G03*
X12169800Y-5721400I-50000J0D01*
G01*
X8940800Y-6163000D02*
X8940800Y-6283000D01*
X8880800Y-6223000D02*
X9000800Y-6223000D01*
X8940800Y-8703000D02*
X8940800Y-8823000D01*
X8880800Y-8763000D02*
X9000800Y-8763000D01*
X9824962Y-6533562D02*
X9824962Y-6441638D01*
X9733038Y-6441638D01*
X9733038Y-6533562D01*
X9824962Y-6533562D01*
X9824962Y-8783562D02*
X9824962Y-8691638D01*
X9733038Y-8691638D01*
X9733038Y-8783562D01*
X9824962Y-8783562D01*
X9525000Y-5943400D02*
X9601000Y-5867400D01*
X9525000Y-5791400D01*
X9449000Y-5867400D01*
X9525000Y-5943400D01*
X10033000Y-5943400D02*
X10109000Y-5867400D01*
X10033000Y-5791400D01*
X9957000Y-5867400D01*
X10033000Y-5943400D01*
X12700000Y-6045000D02*
X12776000Y-5969000D01*
X12700000Y-5893000D01*
X12624000Y-5969000D01*
X12700000Y-6045000D01*
X13208000Y-6045000D02*
X13284000Y-5969000D01*
X13208000Y-5893000D01*
X13132000Y-5969000D01*
X13208000Y-6045000D01*
D12*
X8932628Y-9421714D02*
X8932628Y-9121714D01*
X9004057Y-9121714D01*
X9046914Y-9136000D01*
X9075486Y-9164572D01*
X9089771Y-9193143D01*
X9104057Y-9250286D01*
X9104057Y-9293143D01*
X9089771Y-9350286D01*
X9075486Y-9378857D01*
X9046914Y-9407429D01*
X9004057Y-9421714D01*
X8932628Y-9421714D01*
X9232628Y-9421714D02*
X9232628Y-9221714D01*
X9232628Y-9278857D02*
X9246914Y-9250286D01*
X9261200Y-9236000D01*
X9289771Y-9221714D01*
X9318343Y-9221714D01*
X9418343Y-9421714D02*
X9418343Y-9221714D01*
X9418343Y-9121714D02*
X9404057Y-9136000D01*
X9418343Y-9150286D01*
X9432628Y-9136000D01*
X9418343Y-9121714D01*
X9418343Y-9150286D01*
X9604057Y-9421714D02*
X9575486Y-9407429D01*
X9561200Y-9378857D01*
X9561200Y-9121714D01*
X9761200Y-9421714D02*
X9732628Y-9407429D01*
X9718343Y-9378857D01*
X9718343Y-9121714D01*
X10104057Y-9421714D02*
X10104057Y-9121714D01*
X10204057Y-9336000D01*
X10304057Y-9121714D01*
X10304057Y-9421714D01*
X10575486Y-9421714D02*
X10575486Y-9264572D01*
X10561200Y-9236000D01*
X10532628Y-9221714D01*
X10475486Y-9221714D01*
X10446914Y-9236000D01*
X10575486Y-9407429D02*
X10546914Y-9421714D01*
X10475486Y-9421714D01*
X10446914Y-9407429D01*
X10432628Y-9378857D01*
X10432628Y-9350286D01*
X10446914Y-9321714D01*
X10475486Y-9307429D01*
X10546914Y-9307429D01*
X10575486Y-9293143D01*
X10718343Y-9221714D02*
X10718343Y-9521714D01*
X10718343Y-9236000D02*
X10746914Y-9221714D01*
X10804057Y-9221714D01*
X10832628Y-9236000D01*
X10846914Y-9250286D01*
X10861200Y-9278857D01*
X10861200Y-9364572D01*
X10846914Y-9393143D01*
X10832628Y-9407429D01*
X10804057Y-9421714D01*
X10746914Y-9421714D01*
X10718343Y-9407429D01*
X10989771Y-9393143D02*
X11004057Y-9407429D01*
X10989771Y-9421714D01*
X10975486Y-9407429D01*
X10989771Y-9393143D01*
X10989771Y-9421714D01*
X10989771Y-9236000D02*
X11004057Y-9250286D01*
X10989771Y-9264572D01*
X10975486Y-9250286D01*
X10989771Y-9236000D01*
X10989771Y-9264572D01*
X8566200Y-9876000D02*
X8646200Y-9956000D01*
X8646200Y-9876000D02*
X8566200Y-9956000D01*
X8989771Y-9751714D02*
X9018343Y-9751714D01*
X9046914Y-9766000D01*
X9061200Y-9780286D01*
X9075486Y-9808857D01*
X9089771Y-9866000D01*
X9089771Y-9937429D01*
X9075486Y-9994572D01*
X9061200Y-10023143D01*
X9046914Y-10037429D01*
X9018343Y-10051714D01*
X8989771Y-10051714D01*
X8961200Y-10037429D01*
X8946914Y-10023143D01*
X8932628Y-9994572D01*
X8918343Y-9937429D01*
X8918343Y-9866000D01*
X8932628Y-9808857D01*
X8946914Y-9780286D01*
X8961200Y-9766000D01*
X8989771Y-9751714D01*
X9218343Y-10023143D02*
X9232628Y-10037429D01*
X9218343Y-10051714D01*
X9204057Y-10037429D01*
X9218343Y-10023143D01*
X9218343Y-10051714D01*
X9404057Y-9880286D02*
X9375486Y-9866000D01*
X9361200Y-9851714D01*
X9346914Y-9823143D01*
X9346914Y-9808857D01*
X9361200Y-9780286D01*
X9375486Y-9766000D01*
X9404057Y-9751714D01*
X9461200Y-9751714D01*
X9489771Y-9766000D01*
X9504057Y-9780286D01*
X9518343Y-9808857D01*
X9518343Y-9823143D01*
X9504057Y-9851714D01*
X9489771Y-9866000D01*
X9461200Y-9880286D01*
X9404057Y-9880286D01*
X9375486Y-9894572D01*
X9361200Y-9908857D01*
X9346914Y-9937429D01*
X9346914Y-9994572D01*
X9361200Y-10023143D01*
X9375486Y-10037429D01*
X9404057Y-10051714D01*
X9461200Y-10051714D01*
X9489771Y-10037429D01*
X9504057Y-10023143D01*
X9518343Y-9994572D01*
X9518343Y-9937429D01*
X9504057Y-9908857D01*
X9489771Y-9894572D01*
X9461200Y-9880286D01*
X9704057Y-9751714D02*
X9732628Y-9751714D01*
X9761200Y-9766000D01*
X9775486Y-9780286D01*
X9789771Y-9808857D01*
X9804057Y-9866000D01*
X9804057Y-9937429D01*
X9789771Y-9994572D01*
X9775486Y-10023143D01*
X9761200Y-10037429D01*
X9732628Y-10051714D01*
X9704057Y-10051714D01*
X9675486Y-10037429D01*
X9661200Y-10023143D01*
X9646914Y-9994572D01*
X9632628Y-9937429D01*
X9632628Y-9866000D01*
X9646914Y-9808857D01*
X9661200Y-9780286D01*
X9675486Y-9766000D01*
X9704057Y-9751714D01*
X9989771Y-9751714D02*
X10018343Y-9751714D01*
X10046914Y-9766000D01*
X10061200Y-9780286D01*
X10075486Y-9808857D01*
X10089771Y-9866000D01*
X10089771Y-9937429D01*
X10075486Y-9994572D01*
X10061200Y-10023143D01*
X10046914Y-10037429D01*
X10018343Y-10051714D01*
X9989771Y-10051714D01*
X9961200Y-10037429D01*
X9946914Y-10023143D01*
X9932628Y-9994572D01*
X9918343Y-9937429D01*
X9918343Y-9866000D01*
X9932628Y-9808857D01*
X9946914Y-9780286D01*
X9961200Y-9766000D01*
X9989771Y-9751714D01*
X10218343Y-10051714D02*
X10218343Y-9851714D01*
X10218343Y-9880286D02*
X10232628Y-9866000D01*
X10261200Y-9851714D01*
X10304057Y-9851714D01*
X10332628Y-9866000D01*
X10346914Y-9894572D01*
X10346914Y-10051714D01*
X10346914Y-9894572D02*
X10361200Y-9866000D01*
X10389771Y-9851714D01*
X10432628Y-9851714D01*
X10461200Y-9866000D01*
X10475486Y-9894572D01*
X10475486Y-10051714D01*
X10618343Y-10051714D02*
X10618343Y-9851714D01*
X10618343Y-9880286D02*
X10632628Y-9866000D01*
X10661200Y-9851714D01*
X10704057Y-9851714D01*
X10732628Y-9866000D01*
X10746914Y-9894572D01*
X10746914Y-10051714D01*
X10746914Y-9894572D02*
X10761200Y-9866000D01*
X10789771Y-9851714D01*
X10832628Y-9851714D01*
X10861200Y-9866000D01*
X10875486Y-9894572D01*
X10875486Y-10051714D01*
X11461200Y-9737429D02*
X11204057Y-10123143D01*
X11846914Y-9751714D02*
X11875486Y-9751714D01*
X11904057Y-9766000D01*
X11918343Y-9780286D01*
X11932628Y-9808857D01*
X11946914Y-9866000D01*
X11946914Y-9937429D01*
X11932628Y-9994572D01*
X11918343Y-10023143D01*
X11904057Y-10037429D01*
X11875486Y-10051714D01*
X11846914Y-10051714D01*
X11818343Y-10037429D01*
X11804057Y-10023143D01*
X11789771Y-9994572D01*
X11775486Y-9937429D01*
X11775486Y-9866000D01*
X11789771Y-9808857D01*
X11804057Y-9780286D01*
X11818343Y-9766000D01*
X11846914Y-9751714D01*
X12075486Y-10023143D02*
X12089771Y-10037429D01*
X12075486Y-10051714D01*
X12061200Y-10037429D01*
X12075486Y-10023143D01*
X12075486Y-10051714D01*
X12275486Y-9751714D02*
X12304057Y-9751714D01*
X12332628Y-9766000D01*
X12346914Y-9780286D01*
X12361200Y-9808857D01*
X12375486Y-9866000D01*
X12375486Y-9937429D01*
X12361200Y-9994572D01*
X12346914Y-10023143D01*
X12332628Y-10037429D01*
X12304057Y-10051714D01*
X12275486Y-10051714D01*
X12246914Y-10037429D01*
X12232628Y-10023143D01*
X12218343Y-9994572D01*
X12204057Y-9937429D01*
X12204057Y-9866000D01*
X12218343Y-9808857D01*
X12232628Y-9780286D01*
X12246914Y-9766000D01*
X12275486Y-9751714D01*
X12475486Y-9751714D02*
X12661200Y-9751714D01*
X12561200Y-9866000D01*
X12604057Y-9866000D01*
X12632628Y-9880286D01*
X12646914Y-9894572D01*
X12661200Y-9923143D01*
X12661200Y-9994572D01*
X12646914Y-10023143D01*
X12632628Y-10037429D01*
X12604057Y-10051714D01*
X12518343Y-10051714D01*
X12489771Y-10037429D01*
X12475486Y-10023143D01*
X12946914Y-10051714D02*
X12775486Y-10051714D01*
X12861200Y-10051714D02*
X12861200Y-9751714D01*
X12832628Y-9794572D01*
X12804057Y-9823143D01*
X12775486Y-9837429D01*
X13218343Y-9751714D02*
X13075486Y-9751714D01*
X13061200Y-9894572D01*
X13075486Y-9880286D01*
X13104057Y-9866000D01*
X13175486Y-9866000D01*
X13204057Y-9880286D01*
X13218343Y-9894572D01*
X13232628Y-9923143D01*
X13232628Y-9994572D01*
X13218343Y-10023143D01*
X13204057Y-10037429D01*
X13175486Y-10051714D01*
X13104057Y-10051714D01*
X13075486Y-10037429D01*
X13061200Y-10023143D01*
X13346914Y-9751714D02*
X13346914Y-9808857D01*
X13461200Y-9751714D02*
X13461200Y-9808857D01*
X13904057Y-10166000D02*
X13889771Y-10151714D01*
X13861200Y-10108857D01*
X13846914Y-10080286D01*
X13832628Y-10037429D01*
X13818343Y-9966000D01*
X13818343Y-9908857D01*
X13832628Y-9837429D01*
X13846914Y-9794572D01*
X13861200Y-9766000D01*
X13889771Y-9723143D01*
X13904057Y-9708857D01*
X14004057Y-9780286D02*
X14018343Y-9766000D01*
X14046914Y-9751714D01*
X14118343Y-9751714D01*
X14146914Y-9766000D01*
X14161200Y-9780286D01*
X14175486Y-9808857D01*
X14175486Y-9837429D01*
X14161200Y-9880286D01*
X13989771Y-10051714D01*
X14175486Y-10051714D01*
X14532628Y-10051714D02*
X14532628Y-9751714D01*
X14661200Y-10051714D02*
X14661200Y-9894572D01*
X14646914Y-9866000D01*
X14618343Y-9851714D01*
X14575486Y-9851714D01*
X14546914Y-9866000D01*
X14532628Y-9880286D01*
X14846914Y-10051714D02*
X14818343Y-10037429D01*
X14804057Y-10023143D01*
X14789771Y-9994572D01*
X14789771Y-9908857D01*
X14804057Y-9880286D01*
X14818343Y-9866000D01*
X14846914Y-9851714D01*
X14889771Y-9851714D01*
X14918343Y-9866000D01*
X14932628Y-9880286D01*
X14946914Y-9908857D01*
X14946914Y-9994572D01*
X14932628Y-10023143D01*
X14918343Y-10037429D01*
X14889771Y-10051714D01*
X14846914Y-10051714D01*
X15118343Y-10051714D02*
X15089771Y-10037429D01*
X15075486Y-10008857D01*
X15075486Y-9751714D01*
X15346914Y-10037429D02*
X15318343Y-10051714D01*
X15261200Y-10051714D01*
X15232628Y-10037429D01*
X15218343Y-10008857D01*
X15218343Y-9894572D01*
X15232628Y-9866000D01*
X15261200Y-9851714D01*
X15318343Y-9851714D01*
X15346914Y-9866000D01*
X15361200Y-9894572D01*
X15361200Y-9923143D01*
X15218343Y-9951714D01*
X15475486Y-10037429D02*
X15504057Y-10051714D01*
X15561200Y-10051714D01*
X15589771Y-10037429D01*
X15604057Y-10008857D01*
X15604057Y-9994572D01*
X15589771Y-9966000D01*
X15561200Y-9951714D01*
X15518343Y-9951714D01*
X15489771Y-9937429D01*
X15475486Y-9908857D01*
X15475486Y-9894572D01*
X15489771Y-9866000D01*
X15518343Y-9851714D01*
X15561200Y-9851714D01*
X15589771Y-9866000D01*
X15704057Y-10166000D02*
X15718343Y-10151714D01*
X15746914Y-10108857D01*
X15761200Y-10080286D01*
X15775486Y-10037429D01*
X15789771Y-9966000D01*
X15789771Y-9908857D01*
X15775486Y-9837429D01*
X15761200Y-9794572D01*
X15746914Y-9766000D01*
X15718343Y-9723143D01*
X15704057Y-9708857D01*
X8646200Y-10312000D02*
G75*
G03*
X8646200Y-10312000I-50000J0D01*
G01*
X9089771Y-10447714D02*
X8918343Y-10447714D01*
X9004057Y-10447714D02*
X9004057Y-10147714D01*
X8975486Y-10190572D01*
X8946914Y-10219143D01*
X8918343Y-10233429D01*
X9218343Y-10419143D02*
X9232628Y-10433429D01*
X9218343Y-10447714D01*
X9204057Y-10433429D01*
X9218343Y-10419143D01*
X9218343Y-10447714D01*
X9418343Y-10147714D02*
X9446914Y-10147714D01*
X9475486Y-10162000D01*
X9489771Y-10176286D01*
X9504057Y-10204857D01*
X9518343Y-10262000D01*
X9518343Y-10333429D01*
X9504057Y-10390572D01*
X9489771Y-10419143D01*
X9475486Y-10433429D01*
X9446914Y-10447714D01*
X9418343Y-10447714D01*
X9389771Y-10433429D01*
X9375486Y-10419143D01*
X9361200Y-10390572D01*
X9346914Y-10333429D01*
X9346914Y-10262000D01*
X9361200Y-10204857D01*
X9375486Y-10176286D01*
X9389771Y-10162000D01*
X9418343Y-10147714D01*
X9704057Y-10147714D02*
X9732628Y-10147714D01*
X9761200Y-10162000D01*
X9775486Y-10176286D01*
X9789771Y-10204857D01*
X9804057Y-10262000D01*
X9804057Y-10333429D01*
X9789771Y-10390572D01*
X9775486Y-10419143D01*
X9761200Y-10433429D01*
X9732628Y-10447714D01*
X9704057Y-10447714D01*
X9675486Y-10433429D01*
X9661200Y-10419143D01*
X9646914Y-10390572D01*
X9632628Y-10333429D01*
X9632628Y-10262000D01*
X9646914Y-10204857D01*
X9661200Y-10176286D01*
X9675486Y-10162000D01*
X9704057Y-10147714D01*
X9989771Y-10147714D02*
X10018343Y-10147714D01*
X10046914Y-10162000D01*
X10061200Y-10176286D01*
X10075486Y-10204857D01*
X10089771Y-10262000D01*
X10089771Y-10333429D01*
X10075486Y-10390572D01*
X10061200Y-10419143D01*
X10046914Y-10433429D01*
X10018343Y-10447714D01*
X9989771Y-10447714D01*
X9961200Y-10433429D01*
X9946914Y-10419143D01*
X9932628Y-10390572D01*
X9918343Y-10333429D01*
X9918343Y-10262000D01*
X9932628Y-10204857D01*
X9946914Y-10176286D01*
X9961200Y-10162000D01*
X9989771Y-10147714D01*
X10218343Y-10447714D02*
X10218343Y-10247714D01*
X10218343Y-10276286D02*
X10232628Y-10262000D01*
X10261200Y-10247714D01*
X10304057Y-10247714D01*
X10332628Y-10262000D01*
X10346914Y-10290572D01*
X10346914Y-10447714D01*
X10346914Y-10290572D02*
X10361200Y-10262000D01*
X10389771Y-10247714D01*
X10432628Y-10247714D01*
X10461200Y-10262000D01*
X10475486Y-10290572D01*
X10475486Y-10447714D01*
X10618343Y-10447714D02*
X10618343Y-10247714D01*
X10618343Y-10276286D02*
X10632628Y-10262000D01*
X10661200Y-10247714D01*
X10704057Y-10247714D01*
X10732628Y-10262000D01*
X10746914Y-10290572D01*
X10746914Y-10447714D01*
X10746914Y-10290572D02*
X10761200Y-10262000D01*
X10789771Y-10247714D01*
X10832628Y-10247714D01*
X10861200Y-10262000D01*
X10875486Y-10290572D01*
X10875486Y-10447714D01*
X11461200Y-10133429D02*
X11204057Y-10519143D01*
X11846914Y-10147714D02*
X11875486Y-10147714D01*
X11904057Y-10162000D01*
X11918343Y-10176286D01*
X11932628Y-10204857D01*
X11946914Y-10262000D01*
X11946914Y-10333429D01*
X11932628Y-10390572D01*
X11918343Y-10419143D01*
X11904057Y-10433429D01*
X11875486Y-10447714D01*
X11846914Y-10447714D01*
X11818343Y-10433429D01*
X11804057Y-10419143D01*
X11789771Y-10390572D01*
X11775486Y-10333429D01*
X11775486Y-10262000D01*
X11789771Y-10204857D01*
X11804057Y-10176286D01*
X11818343Y-10162000D01*
X11846914Y-10147714D01*
X12075486Y-10419143D02*
X12089771Y-10433429D01*
X12075486Y-10447714D01*
X12061200Y-10433429D01*
X12075486Y-10419143D01*
X12075486Y-10447714D01*
X12275486Y-10147714D02*
X12304057Y-10147714D01*
X12332628Y-10162000D01*
X12346914Y-10176286D01*
X12361200Y-10204857D01*
X12375486Y-10262000D01*
X12375486Y-10333429D01*
X12361200Y-10390572D01*
X12346914Y-10419143D01*
X12332628Y-10433429D01*
X12304057Y-10447714D01*
X12275486Y-10447714D01*
X12246914Y-10433429D01*
X12232628Y-10419143D01*
X12218343Y-10390572D01*
X12204057Y-10333429D01*
X12204057Y-10262000D01*
X12218343Y-10204857D01*
X12232628Y-10176286D01*
X12246914Y-10162000D01*
X12275486Y-10147714D01*
X12475486Y-10147714D02*
X12661200Y-10147714D01*
X12561200Y-10262000D01*
X12604057Y-10262000D01*
X12632628Y-10276286D01*
X12646914Y-10290572D01*
X12661200Y-10319143D01*
X12661200Y-10390572D01*
X12646914Y-10419143D01*
X12632628Y-10433429D01*
X12604057Y-10447714D01*
X12518343Y-10447714D01*
X12489771Y-10433429D01*
X12475486Y-10419143D01*
X12804057Y-10447714D02*
X12861200Y-10447714D01*
X12889771Y-10433429D01*
X12904057Y-10419143D01*
X12932628Y-10376286D01*
X12946914Y-10319143D01*
X12946914Y-10204857D01*
X12932628Y-10176286D01*
X12918343Y-10162000D01*
X12889771Y-10147714D01*
X12832628Y-10147714D01*
X12804057Y-10162000D01*
X12789771Y-10176286D01*
X12775486Y-10204857D01*
X12775486Y-10276286D01*
X12789771Y-10304857D01*
X12804057Y-10319143D01*
X12832628Y-10333429D01*
X12889771Y-10333429D01*
X12918343Y-10319143D01*
X12932628Y-10304857D01*
X12946914Y-10276286D01*
X13204057Y-10247714D02*
X13204057Y-10447714D01*
X13132628Y-10133429D02*
X13061200Y-10347714D01*
X13246914Y-10347714D01*
X13346914Y-10147714D02*
X13346914Y-10204857D01*
X13461200Y-10147714D02*
X13461200Y-10204857D01*
X13904057Y-10562000D02*
X13889771Y-10547714D01*
X13861200Y-10504857D01*
X13846914Y-10476286D01*
X13832628Y-10433429D01*
X13818343Y-10362000D01*
X13818343Y-10304857D01*
X13832628Y-10233429D01*
X13846914Y-10190572D01*
X13861200Y-10162000D01*
X13889771Y-10119143D01*
X13904057Y-10104857D01*
X14146914Y-10247714D02*
X14146914Y-10447714D01*
X14075486Y-10133429D02*
X14004057Y-10347714D01*
X14189771Y-10347714D01*
X14532628Y-10447714D02*
X14532628Y-10147714D01*
X14661200Y-10447714D02*
X14661200Y-10290572D01*
X14646914Y-10262000D01*
X14618343Y-10247714D01*
X14575486Y-10247714D01*
X14546914Y-10262000D01*
X14532628Y-10276286D01*
X14846914Y-10447714D02*
X14818343Y-10433429D01*
X14804057Y-10419143D01*
X14789771Y-10390572D01*
X14789771Y-10304857D01*
X14804057Y-10276286D01*
X14818343Y-10262000D01*
X14846914Y-10247714D01*
X14889771Y-10247714D01*
X14918343Y-10262000D01*
X14932628Y-10276286D01*
X14946914Y-10304857D01*
X14946914Y-10390572D01*
X14932628Y-10419143D01*
X14918343Y-10433429D01*
X14889771Y-10447714D01*
X14846914Y-10447714D01*
X15118343Y-10447714D02*
X15089771Y-10433429D01*
X15075486Y-10404857D01*
X15075486Y-10147714D01*
X15346914Y-10433429D02*
X15318343Y-10447714D01*
X15261200Y-10447714D01*
X15232628Y-10433429D01*
X15218343Y-10404857D01*
X15218343Y-10290572D01*
X15232628Y-10262000D01*
X15261200Y-10247714D01*
X15318343Y-10247714D01*
X15346914Y-10262000D01*
X15361200Y-10290572D01*
X15361200Y-10319143D01*
X15218343Y-10347714D01*
X15475486Y-10433429D02*
X15504057Y-10447714D01*
X15561200Y-10447714D01*
X15589771Y-10433429D01*
X15604057Y-10404857D01*
X15604057Y-10390572D01*
X15589771Y-10362000D01*
X15561200Y-10347714D01*
X15518343Y-10347714D01*
X15489771Y-10333429D01*
X15475486Y-10304857D01*
X15475486Y-10290572D01*
X15489771Y-10262000D01*
X15518343Y-10247714D01*
X15561200Y-10247714D01*
X15589771Y-10262000D01*
X15704057Y-10562000D02*
X15718343Y-10547714D01*
X15746914Y-10504857D01*
X15761200Y-10476286D01*
X15775486Y-10433429D01*
X15789771Y-10362000D01*
X15789771Y-10304857D01*
X15775486Y-10233429D01*
X15761200Y-10190572D01*
X15746914Y-10162000D01*
X15718343Y-10119143D01*
X15704057Y-10104857D01*
X8586200Y-10648000D02*
X8586200Y-10768000D01*
X8526200Y-10708000D02*
X8646200Y-10708000D01*
X9089771Y-10843714D02*
X8918343Y-10843714D01*
X9004057Y-10843714D02*
X9004057Y-10543714D01*
X8975486Y-10586572D01*
X8946914Y-10615143D01*
X8918343Y-10629429D01*
X9218343Y-10815143D02*
X9232628Y-10829429D01*
X9218343Y-10843714D01*
X9204057Y-10829429D01*
X9218343Y-10815143D01*
X9218343Y-10843714D01*
X9346914Y-10572286D02*
X9361200Y-10558000D01*
X9389771Y-10543714D01*
X9461200Y-10543714D01*
X9489771Y-10558000D01*
X9504057Y-10572286D01*
X9518343Y-10600857D01*
X9518343Y-10629429D01*
X9504057Y-10672286D01*
X9332628Y-10843714D01*
X9518343Y-10843714D01*
X9704057Y-10543714D02*
X9732628Y-10543714D01*
X9761200Y-10558000D01*
X9775486Y-10572286D01*
X9789771Y-10600857D01*
X9804057Y-10658000D01*
X9804057Y-10729429D01*
X9789771Y-10786572D01*
X9775486Y-10815143D01*
X9761200Y-10829429D01*
X9732628Y-10843714D01*
X9704057Y-10843714D01*
X9675486Y-10829429D01*
X9661200Y-10815143D01*
X9646914Y-10786572D01*
X9632628Y-10729429D01*
X9632628Y-10658000D01*
X9646914Y-10600857D01*
X9661200Y-10572286D01*
X9675486Y-10558000D01*
X9704057Y-10543714D01*
X9989771Y-10543714D02*
X10018343Y-10543714D01*
X10046914Y-10558000D01*
X10061200Y-10572286D01*
X10075486Y-10600857D01*
X10089771Y-10658000D01*
X10089771Y-10729429D01*
X10075486Y-10786572D01*
X10061200Y-10815143D01*
X10046914Y-10829429D01*
X10018343Y-10843714D01*
X9989771Y-10843714D01*
X9961200Y-10829429D01*
X9946914Y-10815143D01*
X9932628Y-10786572D01*
X9918343Y-10729429D01*
X9918343Y-10658000D01*
X9932628Y-10600857D01*
X9946914Y-10572286D01*
X9961200Y-10558000D01*
X9989771Y-10543714D01*
X10218343Y-10843714D02*
X10218343Y-10643714D01*
X10218343Y-10672286D02*
X10232628Y-10658000D01*
X10261200Y-10643714D01*
X10304057Y-10643714D01*
X10332628Y-10658000D01*
X10346914Y-10686572D01*
X10346914Y-10843714D01*
X10346914Y-10686572D02*
X10361200Y-10658000D01*
X10389771Y-10643714D01*
X10432628Y-10643714D01*
X10461200Y-10658000D01*
X10475486Y-10686572D01*
X10475486Y-10843714D01*
X10618343Y-10843714D02*
X10618343Y-10643714D01*
X10618343Y-10672286D02*
X10632628Y-10658000D01*
X10661200Y-10643714D01*
X10704057Y-10643714D01*
X10732628Y-10658000D01*
X10746914Y-10686572D01*
X10746914Y-10843714D01*
X10746914Y-10686572D02*
X10761200Y-10658000D01*
X10789771Y-10643714D01*
X10832628Y-10643714D01*
X10861200Y-10658000D01*
X10875486Y-10686572D01*
X10875486Y-10843714D01*
X11461200Y-10529429D02*
X11204057Y-10915143D01*
X11846914Y-10543714D02*
X11875486Y-10543714D01*
X11904057Y-10558000D01*
X11918343Y-10572286D01*
X11932628Y-10600857D01*
X11946914Y-10658000D01*
X11946914Y-10729429D01*
X11932628Y-10786572D01*
X11918343Y-10815143D01*
X11904057Y-10829429D01*
X11875486Y-10843714D01*
X11846914Y-10843714D01*
X11818343Y-10829429D01*
X11804057Y-10815143D01*
X11789771Y-10786572D01*
X11775486Y-10729429D01*
X11775486Y-10658000D01*
X11789771Y-10600857D01*
X11804057Y-10572286D01*
X11818343Y-10558000D01*
X11846914Y-10543714D01*
X12075486Y-10815143D02*
X12089771Y-10829429D01*
X12075486Y-10843714D01*
X12061200Y-10829429D01*
X12075486Y-10815143D01*
X12075486Y-10843714D01*
X12275486Y-10543714D02*
X12304057Y-10543714D01*
X12332628Y-10558000D01*
X12346914Y-10572286D01*
X12361200Y-10600857D01*
X12375486Y-10658000D01*
X12375486Y-10729429D01*
X12361200Y-10786572D01*
X12346914Y-10815143D01*
X12332628Y-10829429D01*
X12304057Y-10843714D01*
X12275486Y-10843714D01*
X12246914Y-10829429D01*
X12232628Y-10815143D01*
X12218343Y-10786572D01*
X12204057Y-10729429D01*
X12204057Y-10658000D01*
X12218343Y-10600857D01*
X12232628Y-10572286D01*
X12246914Y-10558000D01*
X12275486Y-10543714D01*
X12632628Y-10643714D02*
X12632628Y-10843714D01*
X12561200Y-10529429D02*
X12489771Y-10743714D01*
X12675486Y-10743714D01*
X12761200Y-10543714D02*
X12961200Y-10543714D01*
X12832628Y-10843714D01*
X13061200Y-10572286D02*
X13075486Y-10558000D01*
X13104057Y-10543714D01*
X13175486Y-10543714D01*
X13204057Y-10558000D01*
X13218343Y-10572286D01*
X13232628Y-10600857D01*
X13232628Y-10629429D01*
X13218343Y-10672286D01*
X13046914Y-10843714D01*
X13232628Y-10843714D01*
X13346914Y-10543714D02*
X13346914Y-10600857D01*
X13461200Y-10543714D02*
X13461200Y-10600857D01*
X13904057Y-10958000D02*
X13889771Y-10943714D01*
X13861200Y-10900857D01*
X13846914Y-10872286D01*
X13832628Y-10829429D01*
X13818343Y-10758000D01*
X13818343Y-10700857D01*
X13832628Y-10629429D01*
X13846914Y-10586572D01*
X13861200Y-10558000D01*
X13889771Y-10515143D01*
X13904057Y-10500857D01*
X14004057Y-10572286D02*
X14018343Y-10558000D01*
X14046914Y-10543714D01*
X14118343Y-10543714D01*
X14146914Y-10558000D01*
X14161200Y-10572286D01*
X14175486Y-10600857D01*
X14175486Y-10629429D01*
X14161200Y-10672286D01*
X13989771Y-10843714D01*
X14175486Y-10843714D01*
X14532628Y-10843714D02*
X14532628Y-10543714D01*
X14661200Y-10843714D02*
X14661200Y-10686572D01*
X14646914Y-10658000D01*
X14618343Y-10643714D01*
X14575486Y-10643714D01*
X14546914Y-10658000D01*
X14532628Y-10672286D01*
X14846914Y-10843714D02*
X14818343Y-10829429D01*
X14804057Y-10815143D01*
X14789771Y-10786572D01*
X14789771Y-10700857D01*
X14804057Y-10672286D01*
X14818343Y-10658000D01*
X14846914Y-10643714D01*
X14889771Y-10643714D01*
X14918343Y-10658000D01*
X14932628Y-10672286D01*
X14946914Y-10700857D01*
X14946914Y-10786572D01*
X14932628Y-10815143D01*
X14918343Y-10829429D01*
X14889771Y-10843714D01*
X14846914Y-10843714D01*
X15118343Y-10843714D02*
X15089771Y-10829429D01*
X15075486Y-10800857D01*
X15075486Y-10543714D01*
X15346914Y-10829429D02*
X15318343Y-10843714D01*
X15261200Y-10843714D01*
X15232628Y-10829429D01*
X15218343Y-10800857D01*
X15218343Y-10686572D01*
X15232628Y-10658000D01*
X15261200Y-10643714D01*
X15318343Y-10643714D01*
X15346914Y-10658000D01*
X15361200Y-10686572D01*
X15361200Y-10715143D01*
X15218343Y-10743714D01*
X15475486Y-10829429D02*
X15504057Y-10843714D01*
X15561200Y-10843714D01*
X15589771Y-10829429D01*
X15604057Y-10800857D01*
X15604057Y-10786572D01*
X15589771Y-10758000D01*
X15561200Y-10743714D01*
X15518343Y-10743714D01*
X15489771Y-10729429D01*
X15475486Y-10700857D01*
X15475486Y-10686572D01*
X15489771Y-10658000D01*
X15518343Y-10643714D01*
X15561200Y-10643714D01*
X15589771Y-10658000D01*
X15704057Y-10958000D02*
X15718343Y-10943714D01*
X15746914Y-10900857D01*
X15761200Y-10872286D01*
X15775486Y-10829429D01*
X15789771Y-10758000D01*
X15789771Y-10700857D01*
X15775486Y-10629429D01*
X15761200Y-10586572D01*
X15746914Y-10558000D01*
X15718343Y-10515143D01*
X15704057Y-10500857D01*
X8627162Y-11149963D02*
X8627162Y-11058038D01*
X8535238Y-11058038D01*
X8535238Y-11149963D01*
X8627162Y-11149963D01*
X9089771Y-11239714D02*
X8918343Y-11239714D01*
X9004057Y-11239714D02*
X9004057Y-10939714D01*
X8975486Y-10982572D01*
X8946914Y-11011143D01*
X8918343Y-11025429D01*
X9218343Y-11211143D02*
X9232628Y-11225429D01*
X9218343Y-11239714D01*
X9204057Y-11225429D01*
X9218343Y-11211143D01*
X9218343Y-11239714D01*
X9332628Y-10939714D02*
X9518343Y-10939714D01*
X9418343Y-11054000D01*
X9461200Y-11054000D01*
X9489771Y-11068286D01*
X9504057Y-11082572D01*
X9518343Y-11111143D01*
X9518343Y-11182572D01*
X9504057Y-11211143D01*
X9489771Y-11225429D01*
X9461200Y-11239714D01*
X9375486Y-11239714D01*
X9346914Y-11225429D01*
X9332628Y-11211143D01*
X9704057Y-10939714D02*
X9732628Y-10939714D01*
X9761200Y-10954000D01*
X9775486Y-10968286D01*
X9789771Y-10996857D01*
X9804057Y-11054000D01*
X9804057Y-11125429D01*
X9789771Y-11182572D01*
X9775486Y-11211143D01*
X9761200Y-11225429D01*
X9732628Y-11239714D01*
X9704057Y-11239714D01*
X9675486Y-11225429D01*
X9661200Y-11211143D01*
X9646914Y-11182572D01*
X9632628Y-11125429D01*
X9632628Y-11054000D01*
X9646914Y-10996857D01*
X9661200Y-10968286D01*
X9675486Y-10954000D01*
X9704057Y-10939714D01*
X9989771Y-10939714D02*
X10018343Y-10939714D01*
X10046914Y-10954000D01*
X10061200Y-10968286D01*
X10075486Y-10996857D01*
X10089771Y-11054000D01*
X10089771Y-11125429D01*
X10075486Y-11182572D01*
X10061200Y-11211143D01*
X10046914Y-11225429D01*
X10018343Y-11239714D01*
X9989771Y-11239714D01*
X9961200Y-11225429D01*
X9946914Y-11211143D01*
X9932628Y-11182572D01*
X9918343Y-11125429D01*
X9918343Y-11054000D01*
X9932628Y-10996857D01*
X9946914Y-10968286D01*
X9961200Y-10954000D01*
X9989771Y-10939714D01*
X10218343Y-11239714D02*
X10218343Y-11039714D01*
X10218343Y-11068286D02*
X10232628Y-11054000D01*
X10261200Y-11039714D01*
X10304057Y-11039714D01*
X10332628Y-11054000D01*
X10346914Y-11082572D01*
X10346914Y-11239714D01*
X10346914Y-11082572D02*
X10361200Y-11054000D01*
X10389771Y-11039714D01*
X10432628Y-11039714D01*
X10461200Y-11054000D01*
X10475486Y-11082572D01*
X10475486Y-11239714D01*
X10618343Y-11239714D02*
X10618343Y-11039714D01*
X10618343Y-11068286D02*
X10632628Y-11054000D01*
X10661200Y-11039714D01*
X10704057Y-11039714D01*
X10732628Y-11054000D01*
X10746914Y-11082572D01*
X10746914Y-11239714D01*
X10746914Y-11082572D02*
X10761200Y-11054000D01*
X10789771Y-11039714D01*
X10832628Y-11039714D01*
X10861200Y-11054000D01*
X10875486Y-11082572D01*
X10875486Y-11239714D01*
X11461200Y-10925429D02*
X11204057Y-11311143D01*
X11846914Y-10939714D02*
X11875486Y-10939714D01*
X11904057Y-10954000D01*
X11918343Y-10968286D01*
X11932628Y-10996857D01*
X11946914Y-11054000D01*
X11946914Y-11125429D01*
X11932628Y-11182572D01*
X11918343Y-11211143D01*
X11904057Y-11225429D01*
X11875486Y-11239714D01*
X11846914Y-11239714D01*
X11818343Y-11225429D01*
X11804057Y-11211143D01*
X11789771Y-11182572D01*
X11775486Y-11125429D01*
X11775486Y-11054000D01*
X11789771Y-10996857D01*
X11804057Y-10968286D01*
X11818343Y-10954000D01*
X11846914Y-10939714D01*
X12075486Y-11211143D02*
X12089771Y-11225429D01*
X12075486Y-11239714D01*
X12061200Y-11225429D01*
X12075486Y-11211143D01*
X12075486Y-11239714D01*
X12275486Y-10939714D02*
X12304057Y-10939714D01*
X12332628Y-10954000D01*
X12346914Y-10968286D01*
X12361200Y-10996857D01*
X12375486Y-11054000D01*
X12375486Y-11125429D01*
X12361200Y-11182572D01*
X12346914Y-11211143D01*
X12332628Y-11225429D01*
X12304057Y-11239714D01*
X12275486Y-11239714D01*
X12246914Y-11225429D01*
X12232628Y-11211143D01*
X12218343Y-11182572D01*
X12204057Y-11125429D01*
X12204057Y-11054000D01*
X12218343Y-10996857D01*
X12232628Y-10968286D01*
X12246914Y-10954000D01*
X12275486Y-10939714D01*
X12646914Y-10939714D02*
X12504057Y-10939714D01*
X12489771Y-11082572D01*
X12504057Y-11068286D01*
X12532628Y-11054000D01*
X12604057Y-11054000D01*
X12632628Y-11068286D01*
X12646914Y-11082572D01*
X12661200Y-11111143D01*
X12661200Y-11182572D01*
X12646914Y-11211143D01*
X12632628Y-11225429D01*
X12604057Y-11239714D01*
X12532628Y-11239714D01*
X12504057Y-11225429D01*
X12489771Y-11211143D01*
X12946914Y-11239714D02*
X12775486Y-11239714D01*
X12861200Y-11239714D02*
X12861200Y-10939714D01*
X12832628Y-10982572D01*
X12804057Y-11011143D01*
X12775486Y-11025429D01*
X13061200Y-10968286D02*
X13075486Y-10954000D01*
X13104057Y-10939714D01*
X13175486Y-10939714D01*
X13204057Y-10954000D01*
X13218343Y-10968286D01*
X13232628Y-10996857D01*
X13232628Y-11025429D01*
X13218343Y-11068286D01*
X13046914Y-11239714D01*
X13232628Y-11239714D01*
X13346914Y-10939714D02*
X13346914Y-10996857D01*
X13461200Y-10939714D02*
X13461200Y-10996857D01*
X13904057Y-11354000D02*
X13889771Y-11339714D01*
X13861200Y-11296857D01*
X13846914Y-11268286D01*
X13832628Y-11225429D01*
X13818343Y-11154000D01*
X13818343Y-11096857D01*
X13832628Y-11025429D01*
X13846914Y-10982572D01*
X13861200Y-10954000D01*
X13889771Y-10911143D01*
X13904057Y-10896857D01*
X14004057Y-10968286D02*
X14018343Y-10954000D01*
X14046914Y-10939714D01*
X14118343Y-10939714D01*
X14146914Y-10954000D01*
X14161200Y-10968286D01*
X14175486Y-10996857D01*
X14175486Y-11025429D01*
X14161200Y-11068286D01*
X13989771Y-11239714D01*
X14175486Y-11239714D01*
X14532628Y-11239714D02*
X14532628Y-10939714D01*
X14661200Y-11239714D02*
X14661200Y-11082572D01*
X14646914Y-11054000D01*
X14618343Y-11039714D01*
X14575486Y-11039714D01*
X14546914Y-11054000D01*
X14532628Y-11068286D01*
X14846914Y-11239714D02*
X14818343Y-11225429D01*
X14804057Y-11211143D01*
X14789771Y-11182572D01*
X14789771Y-11096857D01*
X14804057Y-11068286D01*
X14818343Y-11054000D01*
X14846914Y-11039714D01*
X14889771Y-11039714D01*
X14918343Y-11054000D01*
X14932628Y-11068286D01*
X14946914Y-11096857D01*
X14946914Y-11182572D01*
X14932628Y-11211143D01*
X14918343Y-11225429D01*
X14889771Y-11239714D01*
X14846914Y-11239714D01*
X15118343Y-11239714D02*
X15089771Y-11225429D01*
X15075486Y-11196857D01*
X15075486Y-10939714D01*
X15346914Y-11225429D02*
X15318343Y-11239714D01*
X15261200Y-11239714D01*
X15232628Y-11225429D01*
X15218343Y-11196857D01*
X15218343Y-11082572D01*
X15232628Y-11054000D01*
X15261200Y-11039714D01*
X15318343Y-11039714D01*
X15346914Y-11054000D01*
X15361200Y-11082572D01*
X15361200Y-11111143D01*
X15218343Y-11139714D01*
X15475486Y-11225429D02*
X15504057Y-11239714D01*
X15561200Y-11239714D01*
X15589771Y-11225429D01*
X15604057Y-11196857D01*
X15604057Y-11182572D01*
X15589771Y-11154000D01*
X15561200Y-11139714D01*
X15518343Y-11139714D01*
X15489771Y-11125429D01*
X15475486Y-11096857D01*
X15475486Y-11082572D01*
X15489771Y-11054000D01*
X15518343Y-11039714D01*
X15561200Y-11039714D01*
X15589771Y-11054000D01*
X15704057Y-11354000D02*
X15718343Y-11339714D01*
X15746914Y-11296857D01*
X15761200Y-11268286D01*
X15775486Y-11225429D01*
X15789771Y-11154000D01*
X15789771Y-11096857D01*
X15775486Y-11025429D01*
X15761200Y-10982572D01*
X15746914Y-10954000D01*
X15718343Y-10911143D01*
X15704057Y-10896857D01*
X8570200Y-11576000D02*
X8646200Y-11500000D01*
X8570200Y-11424000D01*
X8494200Y-11500000D01*
X8570200Y-11576000D01*
X9089771Y-11635714D02*
X8918343Y-11635714D01*
X9004057Y-11635714D02*
X9004057Y-11335714D01*
X8975486Y-11378571D01*
X8946914Y-11407143D01*
X8918343Y-11421429D01*
X9218343Y-11607143D02*
X9232628Y-11621429D01*
X9218343Y-11635714D01*
X9204057Y-11621429D01*
X9218343Y-11607143D01*
X9218343Y-11635714D01*
X9504057Y-11335714D02*
X9361200Y-11335714D01*
X9346914Y-11478571D01*
X9361200Y-11464286D01*
X9389771Y-11450000D01*
X9461200Y-11450000D01*
X9489771Y-11464286D01*
X9504057Y-11478571D01*
X9518343Y-11507143D01*
X9518343Y-11578571D01*
X9504057Y-11607143D01*
X9489771Y-11621429D01*
X9461200Y-11635714D01*
X9389771Y-11635714D01*
X9361200Y-11621429D01*
X9346914Y-11607143D01*
X9632628Y-11364286D02*
X9646914Y-11350000D01*
X9675486Y-11335714D01*
X9746914Y-11335714D01*
X9775486Y-11350000D01*
X9789771Y-11364286D01*
X9804057Y-11392857D01*
X9804057Y-11421429D01*
X9789771Y-11464286D01*
X9618343Y-11635714D01*
X9804057Y-11635714D01*
X9989771Y-11335714D02*
X10018343Y-11335714D01*
X10046914Y-11350000D01*
X10061200Y-11364286D01*
X10075486Y-11392857D01*
X10089771Y-11450000D01*
X10089771Y-11521429D01*
X10075486Y-11578571D01*
X10061200Y-11607143D01*
X10046914Y-11621429D01*
X10018343Y-11635714D01*
X9989771Y-11635714D01*
X9961200Y-11621429D01*
X9946914Y-11607143D01*
X9932628Y-11578571D01*
X9918343Y-11521429D01*
X9918343Y-11450000D01*
X9932628Y-11392857D01*
X9946914Y-11364286D01*
X9961200Y-11350000D01*
X9989771Y-11335714D01*
X10218343Y-11635714D02*
X10218343Y-11435714D01*
X10218343Y-11464286D02*
X10232628Y-11450000D01*
X10261200Y-11435714D01*
X10304057Y-11435714D01*
X10332628Y-11450000D01*
X10346914Y-11478571D01*
X10346914Y-11635714D01*
X10346914Y-11478571D02*
X10361200Y-11450000D01*
X10389771Y-11435714D01*
X10432628Y-11435714D01*
X10461200Y-11450000D01*
X10475486Y-11478571D01*
X10475486Y-11635714D01*
X10618343Y-11635714D02*
X10618343Y-11435714D01*
X10618343Y-11464286D02*
X10632628Y-11450000D01*
X10661200Y-11435714D01*
X10704057Y-11435714D01*
X10732628Y-11450000D01*
X10746914Y-11478571D01*
X10746914Y-11635714D01*
X10746914Y-11478571D02*
X10761200Y-11450000D01*
X10789771Y-11435714D01*
X10832628Y-11435714D01*
X10861200Y-11450000D01*
X10875486Y-11478571D01*
X10875486Y-11635714D01*
X11461200Y-11321429D02*
X11204057Y-11707143D01*
X11846914Y-11335714D02*
X11875486Y-11335714D01*
X11904057Y-11350000D01*
X11918343Y-11364286D01*
X11932628Y-11392857D01*
X11946914Y-11450000D01*
X11946914Y-11521429D01*
X11932628Y-11578571D01*
X11918343Y-11607143D01*
X11904057Y-11621429D01*
X11875486Y-11635714D01*
X11846914Y-11635714D01*
X11818343Y-11621429D01*
X11804057Y-11607143D01*
X11789771Y-11578571D01*
X11775486Y-11521429D01*
X11775486Y-11450000D01*
X11789771Y-11392857D01*
X11804057Y-11364286D01*
X11818343Y-11350000D01*
X11846914Y-11335714D01*
X12075486Y-11607143D02*
X12089771Y-11621429D01*
X12075486Y-11635714D01*
X12061200Y-11621429D01*
X12075486Y-11607143D01*
X12075486Y-11635714D01*
X12275486Y-11335714D02*
X12304057Y-11335714D01*
X12332628Y-11350000D01*
X12346914Y-11364286D01*
X12361200Y-11392857D01*
X12375486Y-11450000D01*
X12375486Y-11521429D01*
X12361200Y-11578571D01*
X12346914Y-11607143D01*
X12332628Y-11621429D01*
X12304057Y-11635714D01*
X12275486Y-11635714D01*
X12246914Y-11621429D01*
X12232628Y-11607143D01*
X12218343Y-11578571D01*
X12204057Y-11521429D01*
X12204057Y-11450000D01*
X12218343Y-11392857D01*
X12232628Y-11364286D01*
X12246914Y-11350000D01*
X12275486Y-11335714D01*
X12646914Y-11335714D02*
X12504057Y-11335714D01*
X12489771Y-11478571D01*
X12504057Y-11464286D01*
X12532628Y-11450000D01*
X12604057Y-11450000D01*
X12632628Y-11464286D01*
X12646914Y-11478571D01*
X12661200Y-11507143D01*
X12661200Y-11578571D01*
X12646914Y-11607143D01*
X12632628Y-11621429D01*
X12604057Y-11635714D01*
X12532628Y-11635714D01*
X12504057Y-11621429D01*
X12489771Y-11607143D01*
X12804057Y-11635714D02*
X12861200Y-11635714D01*
X12889771Y-11621429D01*
X12904057Y-11607143D01*
X12932628Y-11564286D01*
X12946914Y-11507143D01*
X12946914Y-11392857D01*
X12932628Y-11364286D01*
X12918343Y-11350000D01*
X12889771Y-11335714D01*
X12832628Y-11335714D01*
X12804057Y-11350000D01*
X12789771Y-11364286D01*
X12775486Y-11392857D01*
X12775486Y-11464286D01*
X12789771Y-11492857D01*
X12804057Y-11507143D01*
X12832628Y-11521429D01*
X12889771Y-11521429D01*
X12918343Y-11507143D01*
X12932628Y-11492857D01*
X12946914Y-11464286D01*
X13118343Y-11464286D02*
X13089771Y-11450000D01*
X13075486Y-11435714D01*
X13061200Y-11407143D01*
X13061200Y-11392857D01*
X13075486Y-11364286D01*
X13089771Y-11350000D01*
X13118343Y-11335714D01*
X13175486Y-11335714D01*
X13204057Y-11350000D01*
X13218343Y-11364286D01*
X13232628Y-11392857D01*
X13232628Y-11407143D01*
X13218343Y-11435714D01*
X13204057Y-11450000D01*
X13175486Y-11464286D01*
X13118343Y-11464286D01*
X13089771Y-11478571D01*
X13075486Y-11492857D01*
X13061200Y-11521429D01*
X13061200Y-11578571D01*
X13075486Y-11607143D01*
X13089771Y-11621429D01*
X13118343Y-11635714D01*
X13175486Y-11635714D01*
X13204057Y-11621429D01*
X13218343Y-11607143D01*
X13232628Y-11578571D01*
X13232628Y-11521429D01*
X13218343Y-11492857D01*
X13204057Y-11478571D01*
X13175486Y-11464286D01*
X13346914Y-11335714D02*
X13346914Y-11392857D01*
X13461200Y-11335714D02*
X13461200Y-11392857D01*
X13904057Y-11750000D02*
X13889771Y-11735714D01*
X13861200Y-11692857D01*
X13846914Y-11664286D01*
X13832628Y-11621429D01*
X13818343Y-11550000D01*
X13818343Y-11492857D01*
X13832628Y-11421429D01*
X13846914Y-11378571D01*
X13861200Y-11350000D01*
X13889771Y-11307143D01*
X13904057Y-11292857D01*
X14146914Y-11435714D02*
X14146914Y-11635714D01*
X14075486Y-11321429D02*
X14004057Y-11535714D01*
X14189771Y-11535714D01*
X14532628Y-11635714D02*
X14532628Y-11335714D01*
X14661200Y-11635714D02*
X14661200Y-11478571D01*
X14646914Y-11450000D01*
X14618343Y-11435714D01*
X14575486Y-11435714D01*
X14546914Y-11450000D01*
X14532628Y-11464286D01*
X14846914Y-11635714D02*
X14818343Y-11621429D01*
X14804057Y-11607143D01*
X14789771Y-11578571D01*
X14789771Y-11492857D01*
X14804057Y-11464286D01*
X14818343Y-11450000D01*
X14846914Y-11435714D01*
X14889771Y-11435714D01*
X14918343Y-11450000D01*
X14932628Y-11464286D01*
X14946914Y-11492857D01*
X14946914Y-11578571D01*
X14932628Y-11607143D01*
X14918343Y-11621429D01*
X14889771Y-11635714D01*
X14846914Y-11635714D01*
X15118343Y-11635714D02*
X15089771Y-11621429D01*
X15075486Y-11592857D01*
X15075486Y-11335714D01*
X15346914Y-11621429D02*
X15318343Y-11635714D01*
X15261200Y-11635714D01*
X15232628Y-11621429D01*
X15218343Y-11592857D01*
X15218343Y-11478571D01*
X15232628Y-11450000D01*
X15261200Y-11435714D01*
X15318343Y-11435714D01*
X15346914Y-11450000D01*
X15361200Y-11478571D01*
X15361200Y-11507143D01*
X15218343Y-11535714D01*
X15475486Y-11621429D02*
X15504057Y-11635714D01*
X15561200Y-11635714D01*
X15589771Y-11621429D01*
X15604057Y-11592857D01*
X15604057Y-11578571D01*
X15589771Y-11550000D01*
X15561200Y-11535714D01*
X15518343Y-11535714D01*
X15489771Y-11521429D01*
X15475486Y-11492857D01*
X15475486Y-11478571D01*
X15489771Y-11450000D01*
X15518343Y-11435714D01*
X15561200Y-11435714D01*
X15589771Y-11450000D01*
X15704057Y-11750000D02*
X15718343Y-11735714D01*
X15746914Y-11692857D01*
X15761200Y-11664286D01*
X15775486Y-11621429D01*
X15789771Y-11550000D01*
X15789771Y-11492857D01*
X15775486Y-11421429D01*
X15761200Y-11378571D01*
X15746914Y-11350000D01*
X15718343Y-11307143D01*
X15704057Y-11292857D01*
M02*
