%FSLAX45Y45*%
G04 Gerber Fmt 4.5, Leading zero omitted, Abs format (unit mm)*
G04 Created by KiCad (PCBNEW 5.1.12-84ad8e8a86~92~ubuntu20.04.1) date 2022-01-09 16:37:45*
%MOMM*%
%LPD*%
G01*
G04 APERTURE LIST*
%TA.AperFunction,Profile*%
%ADD10C,0.050000*%
%TD*%
%ADD11C,0.200000*%
%ADD12C,0.300000*%
G04 APERTURE END LIST*
D10*
X13348700Y-5453500D02*
G75*
G02*
X13648700Y-5753500I0J-300000D01*
G01*
X13648700Y-8653500D02*
G75*
G02*
X13348700Y-8953500I-300000J0D01*
G01*
X8648700Y-5753500D02*
G75*
G02*
X8948700Y-5453500I300000J0D01*
G01*
X8948700Y-8953500D02*
G75*
G02*
X8648700Y-8653500I0J300000D01*
G01*
X8948700Y-5453500D02*
X13348700Y-5453500D01*
X8648700Y-8653500D02*
X8648700Y-5753500D01*
X13648700Y-8653500D02*
X13648700Y-5753500D01*
X8948700Y-8953500D02*
X13348700Y-8953500D01*
D11*
X8818500Y-5618100D02*
X9088500Y-5888100D01*
X9088500Y-5618100D02*
X8818500Y-5888100D01*
X9644000Y-7477600D02*
X9914000Y-7747600D01*
X9914000Y-7477600D02*
X9644000Y-7747600D01*
X13212700Y-8513700D02*
X13482700Y-8783700D01*
X13482700Y-8513700D02*
X13212700Y-8783700D01*
D12*
X8932628Y-9421714D02*
X8932628Y-9121714D01*
X9004057Y-9121714D01*
X9046914Y-9136000D01*
X9075486Y-9164572D01*
X9089771Y-9193143D01*
X9104057Y-9250286D01*
X9104057Y-9293143D01*
X9089771Y-9350286D01*
X9075486Y-9378857D01*
X9046914Y-9407429D01*
X9004057Y-9421714D01*
X8932628Y-9421714D01*
X9232628Y-9421714D02*
X9232628Y-9221714D01*
X9232628Y-9278857D02*
X9246914Y-9250286D01*
X9261200Y-9236000D01*
X9289771Y-9221714D01*
X9318343Y-9221714D01*
X9418343Y-9421714D02*
X9418343Y-9221714D01*
X9418343Y-9121714D02*
X9404057Y-9136000D01*
X9418343Y-9150286D01*
X9432628Y-9136000D01*
X9418343Y-9121714D01*
X9418343Y-9150286D01*
X9604057Y-9421714D02*
X9575486Y-9407429D01*
X9561200Y-9378857D01*
X9561200Y-9121714D01*
X9761200Y-9421714D02*
X9732628Y-9407429D01*
X9718343Y-9378857D01*
X9718343Y-9121714D01*
X10104057Y-9421714D02*
X10104057Y-9121714D01*
X10204057Y-9336000D01*
X10304057Y-9121714D01*
X10304057Y-9421714D01*
X10575486Y-9421714D02*
X10575486Y-9264572D01*
X10561200Y-9236000D01*
X10532628Y-9221714D01*
X10475486Y-9221714D01*
X10446914Y-9236000D01*
X10575486Y-9407429D02*
X10546914Y-9421714D01*
X10475486Y-9421714D01*
X10446914Y-9407429D01*
X10432628Y-9378857D01*
X10432628Y-9350286D01*
X10446914Y-9321714D01*
X10475486Y-9307429D01*
X10546914Y-9307429D01*
X10575486Y-9293143D01*
X10718343Y-9221714D02*
X10718343Y-9521714D01*
X10718343Y-9236000D02*
X10746914Y-9221714D01*
X10804057Y-9221714D01*
X10832628Y-9236000D01*
X10846914Y-9250286D01*
X10861200Y-9278857D01*
X10861200Y-9364572D01*
X10846914Y-9393143D01*
X10832628Y-9407429D01*
X10804057Y-9421714D01*
X10746914Y-9421714D01*
X10718343Y-9407429D01*
X10989771Y-9393143D02*
X11004057Y-9407429D01*
X10989771Y-9421714D01*
X10975486Y-9407429D01*
X10989771Y-9393143D01*
X10989771Y-9421714D01*
X10989771Y-9236000D02*
X11004057Y-9250286D01*
X10989771Y-9264572D01*
X10975486Y-9250286D01*
X10989771Y-9236000D01*
X10989771Y-9264572D01*
X8376200Y-9781000D02*
X8646200Y-10051000D01*
X8646200Y-9781000D02*
X8376200Y-10051000D01*
X8918343Y-9780286D02*
X8932628Y-9766000D01*
X8961200Y-9751714D01*
X9032628Y-9751714D01*
X9061200Y-9766000D01*
X9075486Y-9780286D01*
X9089771Y-9808857D01*
X9089771Y-9837429D01*
X9075486Y-9880286D01*
X8904057Y-10051714D01*
X9089771Y-10051714D01*
X9218343Y-10023143D02*
X9232628Y-10037429D01*
X9218343Y-10051714D01*
X9204057Y-10037429D01*
X9218343Y-10023143D01*
X9218343Y-10051714D01*
X9332628Y-9751714D02*
X9532628Y-9751714D01*
X9404057Y-10051714D01*
X9704057Y-9751714D02*
X9732628Y-9751714D01*
X9761200Y-9766000D01*
X9775486Y-9780286D01*
X9789771Y-9808857D01*
X9804057Y-9866000D01*
X9804057Y-9937429D01*
X9789771Y-9994572D01*
X9775486Y-10023143D01*
X9761200Y-10037429D01*
X9732628Y-10051714D01*
X9704057Y-10051714D01*
X9675486Y-10037429D01*
X9661200Y-10023143D01*
X9646914Y-9994572D01*
X9632628Y-9937429D01*
X9632628Y-9866000D01*
X9646914Y-9808857D01*
X9661200Y-9780286D01*
X9675486Y-9766000D01*
X9704057Y-9751714D01*
X9989771Y-9751714D02*
X10018343Y-9751714D01*
X10046914Y-9766000D01*
X10061200Y-9780286D01*
X10075486Y-9808857D01*
X10089771Y-9866000D01*
X10089771Y-9937429D01*
X10075486Y-9994572D01*
X10061200Y-10023143D01*
X10046914Y-10037429D01*
X10018343Y-10051714D01*
X9989771Y-10051714D01*
X9961200Y-10037429D01*
X9946914Y-10023143D01*
X9932628Y-9994572D01*
X9918343Y-9937429D01*
X9918343Y-9866000D01*
X9932628Y-9808857D01*
X9946914Y-9780286D01*
X9961200Y-9766000D01*
X9989771Y-9751714D01*
X10218343Y-10051714D02*
X10218343Y-9851714D01*
X10218343Y-9880286D02*
X10232628Y-9866000D01*
X10261200Y-9851714D01*
X10304057Y-9851714D01*
X10332628Y-9866000D01*
X10346914Y-9894572D01*
X10346914Y-10051714D01*
X10346914Y-9894572D02*
X10361200Y-9866000D01*
X10389771Y-9851714D01*
X10432628Y-9851714D01*
X10461200Y-9866000D01*
X10475486Y-9894572D01*
X10475486Y-10051714D01*
X10618343Y-10051714D02*
X10618343Y-9851714D01*
X10618343Y-9880286D02*
X10632628Y-9866000D01*
X10661200Y-9851714D01*
X10704057Y-9851714D01*
X10732628Y-9866000D01*
X10746914Y-9894572D01*
X10746914Y-10051714D01*
X10746914Y-9894572D02*
X10761200Y-9866000D01*
X10789771Y-9851714D01*
X10832628Y-9851714D01*
X10861200Y-9866000D01*
X10875486Y-9894572D01*
X10875486Y-10051714D01*
X11461200Y-9737429D02*
X11204057Y-10123143D01*
X11846914Y-9751714D02*
X11875486Y-9751714D01*
X11904057Y-9766000D01*
X11918343Y-9780286D01*
X11932628Y-9808857D01*
X11946914Y-9866000D01*
X11946914Y-9937429D01*
X11932628Y-9994572D01*
X11918343Y-10023143D01*
X11904057Y-10037429D01*
X11875486Y-10051714D01*
X11846914Y-10051714D01*
X11818343Y-10037429D01*
X11804057Y-10023143D01*
X11789771Y-9994572D01*
X11775486Y-9937429D01*
X11775486Y-9866000D01*
X11789771Y-9808857D01*
X11804057Y-9780286D01*
X11818343Y-9766000D01*
X11846914Y-9751714D01*
X12075486Y-10023143D02*
X12089771Y-10037429D01*
X12075486Y-10051714D01*
X12061200Y-10037429D01*
X12075486Y-10023143D01*
X12075486Y-10051714D01*
X12375486Y-10051714D02*
X12204057Y-10051714D01*
X12289771Y-10051714D02*
X12289771Y-9751714D01*
X12261200Y-9794572D01*
X12232628Y-9823143D01*
X12204057Y-9837429D01*
X12561200Y-9751714D02*
X12589771Y-9751714D01*
X12618343Y-9766000D01*
X12632628Y-9780286D01*
X12646914Y-9808857D01*
X12661200Y-9866000D01*
X12661200Y-9937429D01*
X12646914Y-9994572D01*
X12632628Y-10023143D01*
X12618343Y-10037429D01*
X12589771Y-10051714D01*
X12561200Y-10051714D01*
X12532628Y-10037429D01*
X12518343Y-10023143D01*
X12504057Y-9994572D01*
X12489771Y-9937429D01*
X12489771Y-9866000D01*
X12504057Y-9808857D01*
X12518343Y-9780286D01*
X12532628Y-9766000D01*
X12561200Y-9751714D01*
X12918343Y-9751714D02*
X12861200Y-9751714D01*
X12832628Y-9766000D01*
X12818343Y-9780286D01*
X12789771Y-9823143D01*
X12775486Y-9880286D01*
X12775486Y-9994572D01*
X12789771Y-10023143D01*
X12804057Y-10037429D01*
X12832628Y-10051714D01*
X12889771Y-10051714D01*
X12918343Y-10037429D01*
X12932628Y-10023143D01*
X12946914Y-9994572D01*
X12946914Y-9923143D01*
X12932628Y-9894572D01*
X12918343Y-9880286D01*
X12889771Y-9866000D01*
X12832628Y-9866000D01*
X12804057Y-9880286D01*
X12789771Y-9894572D01*
X12775486Y-9923143D01*
X13046914Y-9751714D02*
X13232628Y-9751714D01*
X13132628Y-9866000D01*
X13175486Y-9866000D01*
X13204057Y-9880286D01*
X13218343Y-9894572D01*
X13232628Y-9923143D01*
X13232628Y-9994572D01*
X13218343Y-10023143D01*
X13204057Y-10037429D01*
X13175486Y-10051714D01*
X13089771Y-10051714D01*
X13061200Y-10037429D01*
X13046914Y-10023143D01*
X13346914Y-9751714D02*
X13346914Y-9808857D01*
X13461200Y-9751714D02*
X13461200Y-9808857D01*
X13904057Y-10166000D02*
X13889771Y-10151714D01*
X13861200Y-10108857D01*
X13846914Y-10080286D01*
X13832628Y-10037429D01*
X13818343Y-9966000D01*
X13818343Y-9908857D01*
X13832628Y-9837429D01*
X13846914Y-9794572D01*
X13861200Y-9766000D01*
X13889771Y-9723143D01*
X13904057Y-9708857D01*
X13989771Y-9751714D02*
X14175486Y-9751714D01*
X14075486Y-9866000D01*
X14118343Y-9866000D01*
X14146914Y-9880286D01*
X14161200Y-9894572D01*
X14175486Y-9923143D01*
X14175486Y-9994572D01*
X14161200Y-10023143D01*
X14146914Y-10037429D01*
X14118343Y-10051714D01*
X14032628Y-10051714D01*
X14004057Y-10037429D01*
X13989771Y-10023143D01*
X14532628Y-10051714D02*
X14532628Y-9751714D01*
X14661200Y-10051714D02*
X14661200Y-9894572D01*
X14646914Y-9866000D01*
X14618343Y-9851714D01*
X14575486Y-9851714D01*
X14546914Y-9866000D01*
X14532628Y-9880286D01*
X14846914Y-10051714D02*
X14818343Y-10037429D01*
X14804057Y-10023143D01*
X14789771Y-9994572D01*
X14789771Y-9908857D01*
X14804057Y-9880286D01*
X14818343Y-9866000D01*
X14846914Y-9851714D01*
X14889771Y-9851714D01*
X14918343Y-9866000D01*
X14932628Y-9880286D01*
X14946914Y-9908857D01*
X14946914Y-9994572D01*
X14932628Y-10023143D01*
X14918343Y-10037429D01*
X14889771Y-10051714D01*
X14846914Y-10051714D01*
X15118343Y-10051714D02*
X15089771Y-10037429D01*
X15075486Y-10008857D01*
X15075486Y-9751714D01*
X15346914Y-10037429D02*
X15318343Y-10051714D01*
X15261200Y-10051714D01*
X15232628Y-10037429D01*
X15218343Y-10008857D01*
X15218343Y-9894572D01*
X15232628Y-9866000D01*
X15261200Y-9851714D01*
X15318343Y-9851714D01*
X15346914Y-9866000D01*
X15361200Y-9894572D01*
X15361200Y-9923143D01*
X15218343Y-9951714D01*
X15475486Y-10037429D02*
X15504057Y-10051714D01*
X15561200Y-10051714D01*
X15589771Y-10037429D01*
X15604057Y-10008857D01*
X15604057Y-9994572D01*
X15589771Y-9966000D01*
X15561200Y-9951714D01*
X15518343Y-9951714D01*
X15489771Y-9937429D01*
X15475486Y-9908857D01*
X15475486Y-9894572D01*
X15489771Y-9866000D01*
X15518343Y-9851714D01*
X15561200Y-9851714D01*
X15589771Y-9866000D01*
X15704057Y-10166000D02*
X15718343Y-10151714D01*
X15746914Y-10108857D01*
X15761200Y-10080286D01*
X15775486Y-10037429D01*
X15789771Y-9966000D01*
X15789771Y-9908857D01*
X15775486Y-9837429D01*
X15761200Y-9794572D01*
X15746914Y-9766000D01*
X15718343Y-9723143D01*
X15704057Y-9708857D01*
X16246914Y-10166000D02*
X16232628Y-10151714D01*
X16204057Y-10108857D01*
X16189771Y-10080286D01*
X16175486Y-10037429D01*
X16161200Y-9966000D01*
X16161200Y-9908857D01*
X16175486Y-9837429D01*
X16189771Y-9794572D01*
X16204057Y-9766000D01*
X16232628Y-9723143D01*
X16246914Y-9708857D01*
X16361200Y-9851714D02*
X16361200Y-10051714D01*
X16361200Y-9880286D02*
X16375486Y-9866000D01*
X16404057Y-9851714D01*
X16446914Y-9851714D01*
X16475486Y-9866000D01*
X16489771Y-9894572D01*
X16489771Y-10051714D01*
X16675486Y-10051714D02*
X16646914Y-10037429D01*
X16632628Y-10023143D01*
X16618343Y-9994572D01*
X16618343Y-9908857D01*
X16632628Y-9880286D01*
X16646914Y-9866000D01*
X16675486Y-9851714D01*
X16718343Y-9851714D01*
X16746914Y-9866000D01*
X16761200Y-9880286D01*
X16775486Y-9908857D01*
X16775486Y-9994572D01*
X16761200Y-10023143D01*
X16746914Y-10037429D01*
X16718343Y-10051714D01*
X16675486Y-10051714D01*
X16861200Y-9851714D02*
X16975486Y-9851714D01*
X16904057Y-9751714D02*
X16904057Y-10008857D01*
X16918343Y-10037429D01*
X16946914Y-10051714D01*
X16975486Y-10051714D01*
X17304057Y-9851714D02*
X17304057Y-10151714D01*
X17304057Y-9866000D02*
X17332628Y-9851714D01*
X17389771Y-9851714D01*
X17418343Y-9866000D01*
X17432628Y-9880286D01*
X17446914Y-9908857D01*
X17446914Y-9994572D01*
X17432628Y-10023143D01*
X17418343Y-10037429D01*
X17389771Y-10051714D01*
X17332628Y-10051714D01*
X17304057Y-10037429D01*
X17618343Y-10051714D02*
X17589771Y-10037429D01*
X17575486Y-10008857D01*
X17575486Y-9751714D01*
X17861200Y-10051714D02*
X17861200Y-9894572D01*
X17846914Y-9866000D01*
X17818343Y-9851714D01*
X17761200Y-9851714D01*
X17732628Y-9866000D01*
X17861200Y-10037429D02*
X17832628Y-10051714D01*
X17761200Y-10051714D01*
X17732628Y-10037429D01*
X17718343Y-10008857D01*
X17718343Y-9980286D01*
X17732628Y-9951714D01*
X17761200Y-9937429D01*
X17832628Y-9937429D01*
X17861200Y-9923143D01*
X17961200Y-9851714D02*
X18075486Y-9851714D01*
X18004057Y-9751714D02*
X18004057Y-10008857D01*
X18018343Y-10037429D01*
X18046914Y-10051714D01*
X18075486Y-10051714D01*
X18289771Y-10037429D02*
X18261200Y-10051714D01*
X18204057Y-10051714D01*
X18175486Y-10037429D01*
X18161200Y-10008857D01*
X18161200Y-9894572D01*
X18175486Y-9866000D01*
X18204057Y-9851714D01*
X18261200Y-9851714D01*
X18289771Y-9866000D01*
X18304057Y-9894572D01*
X18304057Y-9923143D01*
X18161200Y-9951714D01*
X18561200Y-10051714D02*
X18561200Y-9751714D01*
X18561200Y-10037429D02*
X18532628Y-10051714D01*
X18475486Y-10051714D01*
X18446914Y-10037429D01*
X18432628Y-10023143D01*
X18418343Y-9994572D01*
X18418343Y-9908857D01*
X18432628Y-9880286D01*
X18446914Y-9866000D01*
X18475486Y-9851714D01*
X18532628Y-9851714D01*
X18561200Y-9866000D01*
X18675486Y-10166000D02*
X18689771Y-10151714D01*
X18718343Y-10108857D01*
X18732628Y-10080286D01*
X18746914Y-10037429D01*
X18761200Y-9966000D01*
X18761200Y-9908857D01*
X18746914Y-9837429D01*
X18732628Y-9794572D01*
X18718343Y-9766000D01*
X18689771Y-9723143D01*
X18675486Y-9708857D01*
M02*
