G04 #@! TF.GenerationSoftware,KiCad,Pcbnew,5.1.12-84ad8e8a86~92~ubuntu20.04.1*
G04 #@! TF.CreationDate,2022-01-09T16:37:58+01:00*
G04 #@! TF.ProjectId,hlk-pm-pcb,686c6b2d-706d-42d7-9063-622e6b696361,1.0*
G04 #@! TF.SameCoordinates,Original*
G04 #@! TF.FileFunction,Legend,Bot*
G04 #@! TF.FilePolarity,Positive*
%FSLAX46Y46*%
G04 Gerber Fmt 4.6, Leading zero omitted, Abs format (unit mm)*
G04 Created by KiCad (PCBNEW 5.1.12-84ad8e8a86~92~ubuntu20.04.1) date 2022-01-09 16:37:58*
%MOMM*%
%LPD*%
G01*
G04 APERTURE LIST*
%ADD10C,0.300000*%
%ADD11C,0.010000*%
%ADD12C,2.700000*%
%ADD13O,2.400000X2.400000*%
%ADD14C,2.400000*%
%ADD15C,1.800000*%
%ADD16C,2.300000*%
%ADD17R,2.000000X2.300000*%
%ADD18C,3.000000*%
%ADD19R,3.000000X3.000000*%
G04 APERTURE END LIST*
D10*
X126410666Y-82184761D02*
X126410666Y-80184761D01*
X126410666Y-81137142D02*
X125267809Y-81137142D01*
X125267809Y-82184761D02*
X125267809Y-80184761D01*
X123363047Y-82184761D02*
X124315428Y-82184761D01*
X124315428Y-80184761D01*
X122696380Y-82184761D02*
X122696380Y-80184761D01*
X121553523Y-82184761D02*
X122410666Y-81041904D01*
X121553523Y-80184761D02*
X122696380Y-81327619D01*
X120696380Y-81422857D02*
X119172571Y-81422857D01*
X118220190Y-82184761D02*
X118220190Y-80184761D01*
X117458285Y-80184761D01*
X117267809Y-80280000D01*
X117172571Y-80375238D01*
X117077333Y-80565714D01*
X117077333Y-80851428D01*
X117172571Y-81041904D01*
X117267809Y-81137142D01*
X117458285Y-81232380D01*
X118220190Y-81232380D01*
X116220190Y-82184761D02*
X116220190Y-80184761D01*
X115553523Y-81613333D01*
X114886857Y-80184761D01*
X114886857Y-82184761D01*
X112410666Y-82184761D02*
X112410666Y-80184761D01*
X111648761Y-80184761D01*
X111458285Y-80280000D01*
X111363047Y-80375238D01*
X111267809Y-80565714D01*
X111267809Y-80851428D01*
X111363047Y-81041904D01*
X111458285Y-81137142D01*
X111648761Y-81232380D01*
X112410666Y-81232380D01*
X109553523Y-82089523D02*
X109744000Y-82184761D01*
X110124952Y-82184761D01*
X110315428Y-82089523D01*
X110410666Y-81994285D01*
X110505904Y-81803809D01*
X110505904Y-81232380D01*
X110410666Y-81041904D01*
X110315428Y-80946666D01*
X110124952Y-80851428D01*
X109744000Y-80851428D01*
X109553523Y-80946666D01*
X108696380Y-82184761D02*
X108696380Y-80184761D01*
X108696380Y-80946666D02*
X108505904Y-80851428D01*
X108124952Y-80851428D01*
X107934476Y-80946666D01*
X107839238Y-81041904D01*
X107744000Y-81232380D01*
X107744000Y-81803809D01*
X107839238Y-81994285D01*
X107934476Y-82089523D01*
X108124952Y-82184761D01*
X108505904Y-82184761D01*
X108696380Y-82089523D01*
X105363047Y-81422857D02*
X103839238Y-81422857D01*
X101553523Y-80851428D02*
X101077333Y-82184761D01*
X100601142Y-80851428D01*
X99839238Y-81994285D02*
X99744000Y-82089523D01*
X99839238Y-82184761D01*
X99934476Y-82089523D01*
X99839238Y-81994285D01*
X99839238Y-82184761D01*
X97839238Y-82184761D02*
X98982095Y-82184761D01*
X98410666Y-82184761D02*
X98410666Y-80184761D01*
X98601142Y-80470476D01*
X98791619Y-80660952D01*
X98982095Y-80756190D01*
X96982095Y-81994285D02*
X96886857Y-82089523D01*
X96982095Y-82184761D01*
X97077333Y-82089523D01*
X96982095Y-81994285D01*
X96982095Y-82184761D01*
X95648761Y-80184761D02*
X95458285Y-80184761D01*
X95267809Y-80280000D01*
X95172571Y-80375238D01*
X95077333Y-80565714D01*
X94982095Y-80946666D01*
X94982095Y-81422857D01*
X95077333Y-81803809D01*
X95172571Y-81994285D01*
X95267809Y-82089523D01*
X95458285Y-82184761D01*
X95648761Y-82184761D01*
X95839238Y-82089523D01*
X95934476Y-81994285D01*
X96029714Y-81803809D01*
X96124952Y-81422857D01*
X96124952Y-80946666D01*
X96029714Y-80565714D01*
X95934476Y-80375238D01*
X95839238Y-80280000D01*
X95648761Y-80184761D01*
D11*
G36*
X112467599Y-62513434D02*
G01*
X112440116Y-62515468D01*
X112417297Y-62518693D01*
X112416099Y-62518929D01*
X112359928Y-62533521D01*
X112306782Y-62553985D01*
X112257002Y-62579974D01*
X112210929Y-62611143D01*
X112168905Y-62647146D01*
X112131270Y-62687639D01*
X112098366Y-62732277D01*
X112070534Y-62780713D01*
X112048114Y-62832602D01*
X112031448Y-62887599D01*
X112025759Y-62914107D01*
X112022258Y-62939570D01*
X112020195Y-62969445D01*
X112019572Y-63001525D01*
X112020390Y-63033604D01*
X112022650Y-63063473D01*
X112025645Y-63085133D01*
X112038960Y-63141425D01*
X112058222Y-63194733D01*
X112083153Y-63244753D01*
X112113478Y-63291177D01*
X112148920Y-63333701D01*
X112189204Y-63372019D01*
X112234053Y-63405824D01*
X112283192Y-63434811D01*
X112336344Y-63458675D01*
X112374680Y-63471831D01*
X112395000Y-63477987D01*
X112395849Y-65953076D01*
X112395901Y-66118925D01*
X112395943Y-66279518D01*
X112395974Y-66434798D01*
X112395995Y-66584711D01*
X112396005Y-66729200D01*
X112396005Y-66868210D01*
X112395995Y-67001683D01*
X112395974Y-67129566D01*
X112395943Y-67251801D01*
X112395902Y-67368333D01*
X112395850Y-67479107D01*
X112395789Y-67584065D01*
X112395717Y-67683152D01*
X112395636Y-67776313D01*
X112395545Y-67863491D01*
X112395443Y-67944631D01*
X112395332Y-68019676D01*
X112395212Y-68088572D01*
X112395081Y-68151261D01*
X112394941Y-68207688D01*
X112394791Y-68257798D01*
X112394632Y-68301533D01*
X112394463Y-68338839D01*
X112394285Y-68369660D01*
X112394097Y-68393939D01*
X112393900Y-68411621D01*
X112393694Y-68422650D01*
X112393479Y-68426970D01*
X112393446Y-68427036D01*
X112390633Y-68424822D01*
X112382777Y-68418437D01*
X112370052Y-68408025D01*
X112352635Y-68393733D01*
X112330701Y-68375706D01*
X112304427Y-68354087D01*
X112273988Y-68329024D01*
X112239560Y-68300660D01*
X112201319Y-68269141D01*
X112159441Y-68234611D01*
X112114102Y-68197217D01*
X112065478Y-68157103D01*
X112013744Y-68114414D01*
X111959077Y-68069295D01*
X111901652Y-68021892D01*
X111841645Y-67972349D01*
X111779233Y-67920812D01*
X111714591Y-67867425D01*
X111647895Y-67812335D01*
X111579320Y-67755686D01*
X111509044Y-67697622D01*
X111437241Y-67638290D01*
X111364087Y-67577834D01*
X111351446Y-67567387D01*
X111278063Y-67506736D01*
X111205995Y-67447174D01*
X111135418Y-67388845D01*
X111066510Y-67331896D01*
X110999445Y-67276473D01*
X110934401Y-67222719D01*
X110871553Y-67170782D01*
X110811078Y-67120807D01*
X110753151Y-67072939D01*
X110697949Y-67027324D01*
X110645649Y-66984108D01*
X110596425Y-66943435D01*
X110550456Y-66905452D01*
X110507915Y-66870305D01*
X110468981Y-66838138D01*
X110433829Y-66809097D01*
X110402634Y-66783329D01*
X110375575Y-66760978D01*
X110352825Y-66742190D01*
X110334563Y-66727110D01*
X110320963Y-66715885D01*
X110312202Y-66708660D01*
X110308457Y-66705580D01*
X110308333Y-66705480D01*
X110307260Y-66701655D01*
X110305309Y-66691161D01*
X110302480Y-66673993D01*
X110298771Y-66650149D01*
X110294183Y-66619625D01*
X110288714Y-66582417D01*
X110282364Y-66538521D01*
X110275133Y-66487935D01*
X110267020Y-66430654D01*
X110258025Y-66366675D01*
X110248147Y-66295994D01*
X110237385Y-66218608D01*
X110225740Y-66134513D01*
X110215775Y-66062317D01*
X110206820Y-65997321D01*
X110198124Y-65934139D01*
X110189732Y-65873095D01*
X110181687Y-65814516D01*
X110174035Y-65758726D01*
X110166820Y-65706052D01*
X110160085Y-65656819D01*
X110153876Y-65611351D01*
X110148237Y-65569975D01*
X110143212Y-65533016D01*
X110138846Y-65500800D01*
X110135183Y-65473651D01*
X110132267Y-65451896D01*
X110130143Y-65435860D01*
X110128855Y-65425868D01*
X110128448Y-65422245D01*
X110128452Y-65422237D01*
X110131648Y-65420705D01*
X110139634Y-65416789D01*
X110151131Y-65411120D01*
X110162178Y-65405653D01*
X110209547Y-65378530D01*
X110252692Y-65346457D01*
X110291409Y-65309941D01*
X110325490Y-65269487D01*
X110354729Y-65225601D01*
X110378920Y-65178788D01*
X110397856Y-65129553D01*
X110411331Y-65078403D01*
X110419137Y-65025842D01*
X110421070Y-64972375D01*
X110420909Y-64970281D01*
X110153237Y-64970281D01*
X110153187Y-64998108D01*
X110150297Y-65024349D01*
X110145223Y-65044744D01*
X110130175Y-65078659D01*
X110109706Y-65109532D01*
X110084587Y-65136559D01*
X110055586Y-65158936D01*
X110023476Y-65175861D01*
X110017134Y-65178376D01*
X109981031Y-65188515D01*
X109944653Y-65191901D01*
X109908188Y-65188527D01*
X109884770Y-65182781D01*
X109850242Y-65168845D01*
X109819305Y-65149579D01*
X109792441Y-65125628D01*
X109770131Y-65097639D01*
X109752856Y-65066257D01*
X109741098Y-65032129D01*
X109735339Y-64995901D01*
X109734823Y-64981531D01*
X109737833Y-64945060D01*
X109747068Y-64911028D01*
X109762631Y-64879198D01*
X109784622Y-64849334D01*
X109797182Y-64835934D01*
X109826189Y-64811031D01*
X109856800Y-64792628D01*
X109889450Y-64780557D01*
X109924574Y-64774648D01*
X109954906Y-64774249D01*
X109991465Y-64779280D01*
X110026008Y-64790439D01*
X110057868Y-64807214D01*
X110086377Y-64829095D01*
X110110867Y-64855572D01*
X110130669Y-64886132D01*
X110144845Y-64919434D01*
X110150454Y-64943259D01*
X110153237Y-64970281D01*
X110420909Y-64970281D01*
X110416921Y-64918510D01*
X110406486Y-64864750D01*
X110396704Y-64831501D01*
X110375657Y-64778901D01*
X110349067Y-64729957D01*
X110317277Y-64684971D01*
X110280630Y-64644244D01*
X110239466Y-64608079D01*
X110194129Y-64576777D01*
X110144960Y-64550640D01*
X110092302Y-64529971D01*
X110038518Y-64515495D01*
X110011023Y-64511132D01*
X109979227Y-64508493D01*
X109945283Y-64507580D01*
X109911340Y-64508393D01*
X109879549Y-64510933D01*
X109852062Y-64515200D01*
X109850975Y-64515430D01*
X109794417Y-64530819D01*
X109741382Y-64551876D01*
X109692140Y-64578330D01*
X109646962Y-64609910D01*
X109606118Y-64646346D01*
X109569879Y-64687367D01*
X109538515Y-64732702D01*
X109512297Y-64782082D01*
X109491494Y-64835234D01*
X109476803Y-64889874D01*
X109472851Y-64914649D01*
X109470295Y-64943941D01*
X109469157Y-64975637D01*
X109469459Y-65007619D01*
X109471223Y-65037775D01*
X109474470Y-65063989D01*
X109474965Y-65066793D01*
X109488369Y-65121681D01*
X109507742Y-65173791D01*
X109532721Y-65222745D01*
X109562943Y-65268168D01*
X109598045Y-65309684D01*
X109637665Y-65346917D01*
X109681437Y-65379491D01*
X109729000Y-65407030D01*
X109779991Y-65429158D01*
X109834045Y-65445499D01*
X109842708Y-65447497D01*
X109857094Y-65450464D01*
X109869934Y-65452732D01*
X109879071Y-65453933D01*
X109880949Y-65454033D01*
X109887099Y-65455047D01*
X109890326Y-65459243D01*
X109892031Y-65466807D01*
X109892693Y-65471381D01*
X109894234Y-65482341D01*
X109896609Y-65499362D01*
X109899774Y-65522120D01*
X109903684Y-65550289D01*
X109908293Y-65583545D01*
X109913557Y-65621564D01*
X109919431Y-65664022D01*
X109925870Y-65710593D01*
X109932829Y-65760953D01*
X109940263Y-65814778D01*
X109948128Y-65871742D01*
X109956379Y-65931523D01*
X109964970Y-65993794D01*
X109973857Y-66058231D01*
X109982995Y-66124510D01*
X109987193Y-66154970D01*
X109996418Y-66221807D01*
X110005422Y-66286853D01*
X110014158Y-66349790D01*
X110022583Y-66410300D01*
X110030651Y-66468065D01*
X110038317Y-66522768D01*
X110045536Y-66574090D01*
X110052263Y-66621714D01*
X110058453Y-66665323D01*
X110064061Y-66704598D01*
X110069042Y-66739221D01*
X110073351Y-66768875D01*
X110076942Y-66793243D01*
X110079772Y-66812005D01*
X110081794Y-66824846D01*
X110082964Y-66831445D01*
X110083209Y-66832304D01*
X110085989Y-66834564D01*
X110093823Y-66841003D01*
X110106544Y-66851481D01*
X110123986Y-66865862D01*
X110145982Y-66884007D01*
X110172365Y-66905779D01*
X110202969Y-66931041D01*
X110237627Y-66959653D01*
X110276173Y-66991480D01*
X110318439Y-67026383D01*
X110364259Y-67064224D01*
X110413466Y-67104866D01*
X110465893Y-67148172D01*
X110521375Y-67194002D01*
X110579744Y-67242221D01*
X110640833Y-67292689D01*
X110704476Y-67345270D01*
X110770507Y-67399826D01*
X110838757Y-67456219D01*
X110909062Y-67514311D01*
X110981253Y-67573965D01*
X111055165Y-67635042D01*
X111130631Y-67697407D01*
X111207484Y-67760919D01*
X111241411Y-67788958D01*
X112396693Y-68743743D01*
X112396693Y-70372421D01*
X112396687Y-70485166D01*
X112396669Y-70595278D01*
X112396639Y-70702583D01*
X112396597Y-70806906D01*
X112396545Y-70908073D01*
X112396481Y-71005909D01*
X112396407Y-71100239D01*
X112396323Y-71190889D01*
X112396229Y-71277683D01*
X112396126Y-71360449D01*
X112396013Y-71439010D01*
X112395891Y-71513193D01*
X112395761Y-71582822D01*
X112395623Y-71647724D01*
X112395476Y-71707723D01*
X112395322Y-71762645D01*
X112395161Y-71812316D01*
X112394993Y-71856560D01*
X112394818Y-71895204D01*
X112394636Y-71928072D01*
X112394449Y-71954991D01*
X112394256Y-71975784D01*
X112394058Y-71990279D01*
X112393854Y-71998300D01*
X112393706Y-71999969D01*
X112390508Y-71997154D01*
X112383723Y-71990170D01*
X112374222Y-71979946D01*
X112362877Y-71967411D01*
X112357688Y-71961587D01*
X112339663Y-71941432D01*
X112320667Y-71920555D01*
X112300394Y-71898641D01*
X112278532Y-71875373D01*
X112254775Y-71850435D01*
X112228813Y-71823513D01*
X112200338Y-71794288D01*
X112169040Y-71762447D01*
X112134612Y-71727672D01*
X112096743Y-71689648D01*
X112055127Y-71648059D01*
X112009453Y-71602589D01*
X111959413Y-71552922D01*
X111925803Y-71519627D01*
X111657258Y-71253773D01*
X109692742Y-69189600D01*
X109588827Y-69080413D01*
X109483222Y-68969452D01*
X109376135Y-68856936D01*
X109267777Y-68743084D01*
X109158355Y-68628115D01*
X109048079Y-68512249D01*
X108937156Y-68395705D01*
X108825796Y-68278702D01*
X108714207Y-68161459D01*
X108602598Y-68044196D01*
X108491178Y-67927132D01*
X108380155Y-67810486D01*
X108269738Y-67694477D01*
X108160136Y-67579326D01*
X108051558Y-67465250D01*
X107944211Y-67352469D01*
X107838306Y-67241203D01*
X107734050Y-67131671D01*
X107631652Y-67024092D01*
X107531322Y-66918685D01*
X107433267Y-66815669D01*
X107337696Y-66715265D01*
X107244818Y-66617690D01*
X107154843Y-66523165D01*
X107067977Y-66431909D01*
X106984431Y-66344140D01*
X106904413Y-66260079D01*
X106828131Y-66179944D01*
X106755795Y-66103955D01*
X106687612Y-66032330D01*
X106623792Y-65965290D01*
X106595360Y-65935423D01*
X106522644Y-65859038D01*
X106451018Y-65783796D01*
X106380630Y-65709851D01*
X106311624Y-65637355D01*
X106244146Y-65566462D01*
X106178343Y-65497326D01*
X106114360Y-65430099D01*
X106052344Y-65364936D01*
X105992439Y-65301989D01*
X105934793Y-65241413D01*
X105879551Y-65183359D01*
X105826858Y-65127982D01*
X105776862Y-65075436D01*
X105729708Y-65025873D01*
X105685541Y-64979446D01*
X105644508Y-64936310D01*
X105606755Y-64896617D01*
X105572427Y-64860522D01*
X105541671Y-64828177D01*
X105514632Y-64799735D01*
X105491456Y-64775351D01*
X105472290Y-64755177D01*
X105457279Y-64739366D01*
X105446569Y-64728074D01*
X105440306Y-64721451D01*
X105438838Y-64719885D01*
X105420796Y-64701158D01*
X105402807Y-64683849D01*
X105385716Y-64668668D01*
X105370373Y-64656330D01*
X105357624Y-64647546D01*
X105348317Y-64643030D01*
X105347050Y-64642721D01*
X105329614Y-64641857D01*
X105313781Y-64646390D01*
X105299091Y-64656651D01*
X105285086Y-64672975D01*
X105271305Y-64695693D01*
X105269677Y-64698802D01*
X105257118Y-64725060D01*
X105243283Y-64757609D01*
X105228290Y-64796111D01*
X105212260Y-64840229D01*
X105195313Y-64889627D01*
X105177569Y-64943966D01*
X105159149Y-65002911D01*
X105147647Y-65040933D01*
X105137873Y-65073862D01*
X105129654Y-65102245D01*
X105122678Y-65127420D01*
X105116632Y-65150725D01*
X105111202Y-65173496D01*
X105106076Y-65197070D01*
X105100941Y-65222784D01*
X105095483Y-65251975D01*
X105089390Y-65285980D01*
X105086696Y-65301279D01*
X105049762Y-65525062D01*
X105018222Y-65744848D01*
X104992070Y-65960729D01*
X104971301Y-66172797D01*
X104955908Y-66381146D01*
X104945885Y-66585867D01*
X104941227Y-66787052D01*
X104941929Y-66984794D01*
X104947983Y-67179185D01*
X104958075Y-67352333D01*
X104975887Y-67554587D01*
X105000304Y-67755743D01*
X105031269Y-67955634D01*
X105068723Y-68154092D01*
X105112609Y-68350952D01*
X105162870Y-68546045D01*
X105219446Y-68739205D01*
X105282281Y-68930265D01*
X105351318Y-69119058D01*
X105426497Y-69305417D01*
X105507761Y-69489174D01*
X105595053Y-69670164D01*
X105688315Y-69848218D01*
X105787489Y-70023170D01*
X105892517Y-70194852D01*
X105995253Y-70351227D01*
X106109560Y-70513764D01*
X106228058Y-70671125D01*
X106350698Y-70823264D01*
X106477430Y-70970131D01*
X106608202Y-71111681D01*
X106742966Y-71247866D01*
X106881670Y-71378637D01*
X107024264Y-71503949D01*
X107170698Y-71623753D01*
X107320922Y-71738002D01*
X107474885Y-71846649D01*
X107632538Y-71949646D01*
X107793829Y-72046946D01*
X107794213Y-72047169D01*
X107940967Y-72128870D01*
X108091357Y-72206244D01*
X108244559Y-72278938D01*
X108399752Y-72346601D01*
X108556113Y-72408879D01*
X108712819Y-72465419D01*
X108869048Y-72515870D01*
X108928746Y-72533552D01*
X109057646Y-72569224D01*
X109184236Y-72601072D01*
X109309593Y-72629277D01*
X109434790Y-72654022D01*
X109560904Y-72675489D01*
X109689009Y-72693861D01*
X109820180Y-72709319D01*
X109955492Y-72722046D01*
X110096020Y-72732223D01*
X110103920Y-72732712D01*
X110124991Y-72733737D01*
X110151955Y-72734620D01*
X110183933Y-72735361D01*
X110220045Y-72735960D01*
X110259414Y-72736418D01*
X110301159Y-72736733D01*
X110344402Y-72736906D01*
X110388265Y-72736938D01*
X110431867Y-72736826D01*
X110474330Y-72736573D01*
X110514774Y-72736177D01*
X110552322Y-72735638D01*
X110586094Y-72734957D01*
X110615210Y-72734132D01*
X110638793Y-72733165D01*
X110645786Y-72732780D01*
X110777032Y-72723924D01*
X110904511Y-72713295D01*
X111029694Y-72700710D01*
X111154047Y-72685985D01*
X111279040Y-72668937D01*
X111406139Y-72649384D01*
X111536815Y-72627142D01*
X111631306Y-72609855D01*
X111676282Y-72601041D01*
X111719612Y-72591744D01*
X111761844Y-72581762D01*
X111803530Y-72570899D01*
X111845219Y-72558953D01*
X111887461Y-72545727D01*
X111930806Y-72531021D01*
X111975804Y-72514637D01*
X112023004Y-72496375D01*
X112072957Y-72476037D01*
X112126212Y-72453422D01*
X112183320Y-72428334D01*
X112244829Y-72400571D01*
X112311291Y-72369936D01*
X112369665Y-72342628D01*
X112397269Y-72329659D01*
X112423517Y-72317355D01*
X112447650Y-72306072D01*
X112468907Y-72296162D01*
X112486526Y-72287981D01*
X112499749Y-72281883D01*
X112507813Y-72278223D01*
X112509019Y-72277694D01*
X112524825Y-72270874D01*
X112580139Y-72296978D01*
X112738177Y-72367836D01*
X112899345Y-72432762D01*
X113063417Y-72491707D01*
X113230163Y-72544622D01*
X113399358Y-72591458D01*
X113570773Y-72632166D01*
X113744182Y-72666695D01*
X113919356Y-72694998D01*
X114096068Y-72717025D01*
X114274090Y-72732727D01*
X114453196Y-72742054D01*
X114633158Y-72744957D01*
X114650520Y-72744896D01*
X114680319Y-72744718D01*
X114709100Y-72744507D01*
X114735886Y-72744273D01*
X114759700Y-72744025D01*
X114779568Y-72743774D01*
X114794513Y-72743530D01*
X114802920Y-72743326D01*
X114990118Y-72733679D01*
X115176509Y-72717371D01*
X115361903Y-72694438D01*
X115546112Y-72664919D01*
X115728946Y-72628850D01*
X115910215Y-72586268D01*
X116089731Y-72537212D01*
X116267303Y-72481719D01*
X116442742Y-72419825D01*
X116443763Y-72419444D01*
X116613575Y-72352403D01*
X116781367Y-72278946D01*
X116946987Y-72199167D01*
X117110285Y-72113162D01*
X117271111Y-72021023D01*
X117429314Y-71922847D01*
X117584742Y-71818725D01*
X117737247Y-71708754D01*
X117886676Y-71593028D01*
X118032880Y-71471639D01*
X118175708Y-71344684D01*
X118208213Y-71314568D01*
X118229346Y-71294570D01*
X118254103Y-71270693D01*
X118281662Y-71243764D01*
X118311197Y-71214610D01*
X118341888Y-71184058D01*
X118372910Y-71152936D01*
X118403439Y-71122071D01*
X118432653Y-71092288D01*
X118459729Y-71064416D01*
X118483843Y-71039282D01*
X118504171Y-71017712D01*
X118510230Y-71011169D01*
X118642881Y-70862074D01*
X118770397Y-70708633D01*
X118892662Y-70551031D01*
X119009558Y-70389455D01*
X119120967Y-70224092D01*
X119226771Y-70055128D01*
X119326852Y-69882749D01*
X119421094Y-69707143D01*
X119509378Y-69528496D01*
X119591588Y-69346995D01*
X119654300Y-69196373D01*
X119725560Y-69009211D01*
X119790678Y-68819344D01*
X119849644Y-68626949D01*
X119902444Y-68432204D01*
X119949068Y-68235285D01*
X119989502Y-68036370D01*
X120023736Y-67835635D01*
X120051758Y-67633259D01*
X120073555Y-67429418D01*
X120089116Y-67224290D01*
X120098428Y-67018051D01*
X120101481Y-66810879D01*
X120098262Y-66602951D01*
X120088759Y-66394445D01*
X120072961Y-66185537D01*
X120050855Y-65976405D01*
X120022431Y-65767226D01*
X119987674Y-65558176D01*
X119946575Y-65349435D01*
X119919900Y-65228893D01*
X119910717Y-65189743D01*
X119900783Y-65148699D01*
X119890264Y-65106368D01*
X119879329Y-65063355D01*
X119868142Y-65020266D01*
X119856873Y-64977706D01*
X119845686Y-64936282D01*
X119834750Y-64896598D01*
X119824231Y-64859261D01*
X119814296Y-64824876D01*
X119805113Y-64794049D01*
X119796847Y-64767386D01*
X119789666Y-64745492D01*
X119783737Y-64728972D01*
X119779233Y-64718447D01*
X119764714Y-64696574D01*
X119746595Y-64680267D01*
X119725481Y-64669786D01*
X119701980Y-64665390D01*
X119676697Y-64667338D01*
X119665941Y-64670036D01*
X119646558Y-64678095D01*
X119625468Y-64691217D01*
X119602434Y-64709613D01*
X119577217Y-64733490D01*
X119549581Y-64763057D01*
X119519289Y-64798524D01*
X119517680Y-64800480D01*
X119511468Y-64807652D01*
X119500830Y-64819449D01*
X119486020Y-64835602D01*
X119467294Y-64855840D01*
X119444904Y-64879893D01*
X119419107Y-64907490D01*
X119390156Y-64938361D01*
X119358306Y-64972235D01*
X119323810Y-65008843D01*
X119286925Y-65047914D01*
X119247904Y-65089177D01*
X119207001Y-65132362D01*
X119164471Y-65177200D01*
X119120569Y-65223418D01*
X119075548Y-65270748D01*
X119037999Y-65310173D01*
X119011022Y-65338481D01*
X118979540Y-65371518D01*
X118943719Y-65409108D01*
X118903726Y-65451077D01*
X118859727Y-65497250D01*
X118811889Y-65547451D01*
X118760379Y-65601506D01*
X118705364Y-65659240D01*
X118647011Y-65720477D01*
X118585485Y-65785043D01*
X118520955Y-65852763D01*
X118453587Y-65923461D01*
X118383546Y-65996963D01*
X118311002Y-66073094D01*
X118236119Y-66151678D01*
X118159065Y-66232541D01*
X118080006Y-66315508D01*
X117999110Y-66400403D01*
X117916543Y-66487053D01*
X117832471Y-66575281D01*
X117747062Y-66664912D01*
X117660483Y-66755773D01*
X117572899Y-66847687D01*
X117484478Y-66940480D01*
X117395387Y-67033976D01*
X117305792Y-67128002D01*
X117215859Y-67222381D01*
X117125757Y-67316939D01*
X117035651Y-67411500D01*
X116983923Y-67465787D01*
X116824583Y-67633007D01*
X116669842Y-67795400D01*
X116519625Y-67953046D01*
X116373860Y-68106020D01*
X116232471Y-68254400D01*
X116095386Y-68398263D01*
X115962531Y-68537688D01*
X115833832Y-68672752D01*
X115709214Y-68803532D01*
X115588605Y-68930105D01*
X115471930Y-69052549D01*
X115359116Y-69170941D01*
X115250089Y-69285360D01*
X115144774Y-69395882D01*
X115043098Y-69502584D01*
X114944988Y-69605545D01*
X114850369Y-69704842D01*
X114759168Y-69800552D01*
X114671311Y-69892753D01*
X114586723Y-69981522D01*
X114505332Y-70066936D01*
X114427064Y-70149073D01*
X114351843Y-70228011D01*
X114279598Y-70303827D01*
X114210254Y-70376599D01*
X114143736Y-70446403D01*
X114079972Y-70513318D01*
X114018888Y-70577420D01*
X113960409Y-70638788D01*
X113904462Y-70697499D01*
X113850973Y-70753630D01*
X113799868Y-70807258D01*
X113751074Y-70858462D01*
X113704516Y-70907318D01*
X113660121Y-70953904D01*
X113617815Y-70998298D01*
X113577524Y-71040577D01*
X113539175Y-71080819D01*
X113502693Y-71119100D01*
X113468005Y-71155498D01*
X113435036Y-71190092D01*
X113403714Y-71222958D01*
X113373964Y-71254173D01*
X113345712Y-71283816D01*
X113318885Y-71311963D01*
X113293409Y-71338693D01*
X113269210Y-71364082D01*
X113246214Y-71388208D01*
X113224347Y-71411149D01*
X113203536Y-71432982D01*
X113183707Y-71453784D01*
X113164785Y-71473633D01*
X113146698Y-71492607D01*
X113129371Y-71510782D01*
X113112730Y-71528237D01*
X113096702Y-71545049D01*
X113081213Y-71561294D01*
X113066189Y-71577052D01*
X113051556Y-71592398D01*
X113037241Y-71607411D01*
X113033837Y-71610981D01*
X112985851Y-71661348D01*
X112942344Y-71707109D01*
X112903078Y-71748522D01*
X112867813Y-71785843D01*
X112836312Y-71819329D01*
X112808337Y-71849235D01*
X112783650Y-71875818D01*
X112762012Y-71899335D01*
X112743185Y-71920041D01*
X112726932Y-71938194D01*
X112713013Y-71954050D01*
X112701191Y-71967865D01*
X112691783Y-71979212D01*
X112677115Y-71997116D01*
X112663803Y-72013147D01*
X112652453Y-72026591D01*
X112643672Y-72036736D01*
X112638068Y-72042867D01*
X112636300Y-72044405D01*
X112636110Y-72041072D01*
X112635929Y-72031212D01*
X112635756Y-72015075D01*
X112635592Y-71992907D01*
X112635435Y-71964956D01*
X112635287Y-71931470D01*
X112635147Y-71892696D01*
X112635015Y-71848882D01*
X112634890Y-71800275D01*
X112634774Y-71747124D01*
X112634666Y-71689675D01*
X112634566Y-71628177D01*
X112634473Y-71562877D01*
X112634388Y-71494022D01*
X112634311Y-71421860D01*
X112634242Y-71346639D01*
X112634180Y-71268606D01*
X112634126Y-71188009D01*
X112634080Y-71105096D01*
X112634041Y-71020114D01*
X112634009Y-70933311D01*
X112633985Y-70844934D01*
X112633968Y-70755231D01*
X112633959Y-70664449D01*
X112633957Y-70572837D01*
X112633962Y-70480641D01*
X112633974Y-70388110D01*
X112633993Y-70295491D01*
X112634020Y-70203031D01*
X112634053Y-70110979D01*
X112634094Y-70019581D01*
X112634141Y-69929086D01*
X112634196Y-69839741D01*
X112634257Y-69751793D01*
X112634325Y-69665491D01*
X112634400Y-69581081D01*
X112634482Y-69498812D01*
X112634570Y-69418931D01*
X112634665Y-69341686D01*
X112634766Y-69267323D01*
X112634875Y-69196092D01*
X112634989Y-69128239D01*
X112635110Y-69064012D01*
X112635238Y-69003659D01*
X112635371Y-68947426D01*
X112635511Y-68895563D01*
X112635658Y-68848316D01*
X112635810Y-68805934D01*
X112635969Y-68768663D01*
X112636134Y-68736751D01*
X112636305Y-68710446D01*
X112636482Y-68689996D01*
X112636665Y-68675647D01*
X112636854Y-68667649D01*
X112636925Y-68666360D01*
X112637900Y-68650945D01*
X112638064Y-68638691D01*
X112637422Y-68631009D01*
X112636760Y-68629276D01*
X112636436Y-68625583D01*
X112636124Y-68615402D01*
X112635825Y-68599018D01*
X112635541Y-68576717D01*
X112635273Y-68548783D01*
X112635022Y-68515503D01*
X112634791Y-68477161D01*
X112634579Y-68434043D01*
X112634388Y-68386434D01*
X112634220Y-68334619D01*
X112634076Y-68278883D01*
X112633958Y-68219513D01*
X112633866Y-68156792D01*
X112633801Y-68091007D01*
X112633766Y-68022443D01*
X112633760Y-67976779D01*
X112633760Y-67327499D01*
X114437160Y-66091099D01*
X114560612Y-65462747D01*
X114684065Y-64834396D01*
X114694386Y-64832952D01*
X114740822Y-64825359D01*
X114781931Y-64816141D01*
X114819058Y-64804836D01*
X114853549Y-64790981D01*
X114886750Y-64774114D01*
X114914680Y-64757244D01*
X114959501Y-64724375D01*
X114999866Y-64686607D01*
X115035462Y-64644396D01*
X115065980Y-64598200D01*
X115091109Y-64548476D01*
X115110537Y-64495680D01*
X115121391Y-64453347D01*
X115124750Y-64432327D01*
X115127218Y-64406683D01*
X115128727Y-64378512D01*
X115129061Y-64358520D01*
X114863583Y-64358520D01*
X114860329Y-64395002D01*
X114850880Y-64429658D01*
X114835703Y-64461880D01*
X114815266Y-64491057D01*
X114790038Y-64516578D01*
X114760486Y-64537835D01*
X114727078Y-64554217D01*
X114708617Y-64560524D01*
X114688948Y-64564383D01*
X114665266Y-64566075D01*
X114639951Y-64565671D01*
X114615382Y-64563239D01*
X114593941Y-64558852D01*
X114587866Y-64556955D01*
X114554402Y-64541857D01*
X114523960Y-64521322D01*
X114497347Y-64496148D01*
X114475369Y-64467129D01*
X114458833Y-64435061D01*
X114455551Y-64426396D01*
X114446349Y-64392200D01*
X114443372Y-64358984D01*
X114446497Y-64325362D01*
X114446640Y-64324574D01*
X114456324Y-64288727D01*
X114471250Y-64256340D01*
X114490777Y-64227691D01*
X114514266Y-64203057D01*
X114541077Y-64182716D01*
X114570570Y-64166946D01*
X114602105Y-64156024D01*
X114635043Y-64150228D01*
X114668744Y-64149836D01*
X114702568Y-64155125D01*
X114735875Y-64166373D01*
X114768025Y-64183858D01*
X114769151Y-64184607D01*
X114798735Y-64208129D01*
X114822814Y-64235511D01*
X114841623Y-64267024D01*
X114841650Y-64267080D01*
X114852665Y-64292663D01*
X114859553Y-64316075D01*
X114862946Y-64339961D01*
X114863583Y-64358520D01*
X115129061Y-64358520D01*
X115129206Y-64349913D01*
X115128585Y-64322983D01*
X115126795Y-64299821D01*
X115126558Y-64297861D01*
X115116283Y-64242551D01*
X115099841Y-64189526D01*
X115077544Y-64139231D01*
X115049703Y-64092114D01*
X115016631Y-64048620D01*
X114978640Y-64009194D01*
X114936041Y-63974284D01*
X114889146Y-63944336D01*
X114873507Y-63935987D01*
X114830397Y-63916118D01*
X114788456Y-63901406D01*
X114745723Y-63891347D01*
X114700233Y-63885431D01*
X114670840Y-63883662D01*
X114618323Y-63884106D01*
X114568930Y-63889788D01*
X114521167Y-63901023D01*
X114473536Y-63918129D01*
X114443827Y-63931621D01*
X114393764Y-63959650D01*
X114348363Y-63992534D01*
X114307786Y-64030065D01*
X114272194Y-64072035D01*
X114241748Y-64118239D01*
X114216609Y-64168468D01*
X114196939Y-64222515D01*
X114186609Y-64262065D01*
X114183671Y-64279655D01*
X114181348Y-64302114D01*
X114179704Y-64327557D01*
X114178801Y-64354100D01*
X114178705Y-64379862D01*
X114179478Y-64402959D01*
X114181185Y-64421507D01*
X114181211Y-64421694D01*
X114192264Y-64476876D01*
X114209296Y-64529837D01*
X114231982Y-64580061D01*
X114259994Y-64627031D01*
X114293004Y-64670231D01*
X114330686Y-64709143D01*
X114372711Y-64743252D01*
X114393913Y-64757503D01*
X114408457Y-64767207D01*
X114417434Y-64774561D01*
X114421420Y-64780067D01*
X114421745Y-64781853D01*
X114421096Y-64785853D01*
X114419202Y-64796153D01*
X114416131Y-64812409D01*
X114411949Y-64834276D01*
X114406723Y-64861410D01*
X114400521Y-64893466D01*
X114393410Y-64930100D01*
X114385457Y-64970966D01*
X114376728Y-65015721D01*
X114367292Y-65064020D01*
X114357214Y-65115518D01*
X114346563Y-65169870D01*
X114335405Y-65226732D01*
X114323807Y-65285759D01*
X114311837Y-65346608D01*
X114309205Y-65359974D01*
X114196706Y-65931321D01*
X113418480Y-66464874D01*
X113352896Y-66509830D01*
X113288756Y-66553782D01*
X113226286Y-66596573D01*
X113165710Y-66638052D01*
X113107253Y-66678065D01*
X113051141Y-66716457D01*
X112997600Y-66753074D01*
X112946853Y-66787764D01*
X112899127Y-66820373D01*
X112854647Y-66850745D01*
X112813637Y-66878729D01*
X112776323Y-66904170D01*
X112742930Y-66926914D01*
X112713684Y-66946808D01*
X112688809Y-66963697D01*
X112668531Y-66977429D01*
X112653075Y-66987849D01*
X112642666Y-66994804D01*
X112637529Y-66998140D01*
X112637004Y-66998427D01*
X112636748Y-66995051D01*
X112636506Y-66984971D01*
X112636277Y-66968254D01*
X112636061Y-66944968D01*
X112635858Y-66915182D01*
X112635668Y-66878964D01*
X112635491Y-66836382D01*
X112635328Y-66787505D01*
X112635178Y-66732400D01*
X112635042Y-66671136D01*
X112634920Y-66603782D01*
X112634811Y-66530405D01*
X112634717Y-66451074D01*
X112634636Y-66365856D01*
X112634570Y-66274821D01*
X112634517Y-66178037D01*
X112634479Y-66075571D01*
X112634455Y-65967492D01*
X112634446Y-65853869D01*
X112634451Y-65734769D01*
X112634471Y-65610261D01*
X112634505Y-65480413D01*
X112634555Y-65345293D01*
X112634603Y-65236739D01*
X112635453Y-63475051D01*
X112666684Y-63464240D01*
X112721078Y-63442009D01*
X112771404Y-63414371D01*
X112817721Y-63381291D01*
X112847401Y-63355248D01*
X112886077Y-63313980D01*
X112919078Y-63269523D01*
X112946403Y-63222383D01*
X112968053Y-63173064D01*
X112984028Y-63122073D01*
X112994327Y-63069913D01*
X112998950Y-63017092D01*
X112998620Y-63000467D01*
X112731973Y-63000467D01*
X112730711Y-63027103D01*
X112726518Y-63051217D01*
X112718785Y-63075311D01*
X112707670Y-63100331D01*
X112699049Y-63116462D01*
X112689717Y-63130310D01*
X112677977Y-63144166D01*
X112666217Y-63156295D01*
X112635705Y-63182238D01*
X112602785Y-63201964D01*
X112567830Y-63215366D01*
X112531215Y-63222337D01*
X112493312Y-63222768D01*
X112455960Y-63216905D01*
X112425187Y-63206578D01*
X112394679Y-63190809D01*
X112366234Y-63170751D01*
X112341649Y-63147562D01*
X112333911Y-63138445D01*
X112312665Y-63106443D01*
X112297452Y-63072074D01*
X112288326Y-63036105D01*
X112285342Y-62999299D01*
X112288554Y-62962422D01*
X112298017Y-62926240D01*
X112313785Y-62891516D01*
X112316020Y-62887626D01*
X112323411Y-62876841D01*
X112334060Y-62863531D01*
X112346254Y-62849772D01*
X112353304Y-62842460D01*
X112383057Y-62817274D01*
X112415743Y-62798152D01*
X112451048Y-62785226D01*
X112488660Y-62778623D01*
X112510146Y-62777733D01*
X112548263Y-62780953D01*
X112583838Y-62790363D01*
X112617113Y-62806068D01*
X112648329Y-62828170D01*
X112666306Y-62844681D01*
X112692023Y-62874697D01*
X112711320Y-62906814D01*
X112724271Y-62941204D01*
X112730947Y-62978042D01*
X112731973Y-63000467D01*
X112998620Y-63000467D01*
X112997898Y-62964113D01*
X112991170Y-62911481D01*
X112978766Y-62859703D01*
X112960686Y-62809284D01*
X112936930Y-62760728D01*
X112907498Y-62714540D01*
X112872389Y-62671227D01*
X112847518Y-62645796D01*
X112803546Y-62608549D01*
X112755947Y-62577003D01*
X112704861Y-62551234D01*
X112650430Y-62531315D01*
X112608998Y-62520583D01*
X112586471Y-62516898D01*
X112559183Y-62514325D01*
X112529018Y-62512879D01*
X112497862Y-62512577D01*
X112467599Y-62513434D01*
G37*
X112467599Y-62513434D02*
X112440116Y-62515468D01*
X112417297Y-62518693D01*
X112416099Y-62518929D01*
X112359928Y-62533521D01*
X112306782Y-62553985D01*
X112257002Y-62579974D01*
X112210929Y-62611143D01*
X112168905Y-62647146D01*
X112131270Y-62687639D01*
X112098366Y-62732277D01*
X112070534Y-62780713D01*
X112048114Y-62832602D01*
X112031448Y-62887599D01*
X112025759Y-62914107D01*
X112022258Y-62939570D01*
X112020195Y-62969445D01*
X112019572Y-63001525D01*
X112020390Y-63033604D01*
X112022650Y-63063473D01*
X112025645Y-63085133D01*
X112038960Y-63141425D01*
X112058222Y-63194733D01*
X112083153Y-63244753D01*
X112113478Y-63291177D01*
X112148920Y-63333701D01*
X112189204Y-63372019D01*
X112234053Y-63405824D01*
X112283192Y-63434811D01*
X112336344Y-63458675D01*
X112374680Y-63471831D01*
X112395000Y-63477987D01*
X112395849Y-65953076D01*
X112395901Y-66118925D01*
X112395943Y-66279518D01*
X112395974Y-66434798D01*
X112395995Y-66584711D01*
X112396005Y-66729200D01*
X112396005Y-66868210D01*
X112395995Y-67001683D01*
X112395974Y-67129566D01*
X112395943Y-67251801D01*
X112395902Y-67368333D01*
X112395850Y-67479107D01*
X112395789Y-67584065D01*
X112395717Y-67683152D01*
X112395636Y-67776313D01*
X112395545Y-67863491D01*
X112395443Y-67944631D01*
X112395332Y-68019676D01*
X112395212Y-68088572D01*
X112395081Y-68151261D01*
X112394941Y-68207688D01*
X112394791Y-68257798D01*
X112394632Y-68301533D01*
X112394463Y-68338839D01*
X112394285Y-68369660D01*
X112394097Y-68393939D01*
X112393900Y-68411621D01*
X112393694Y-68422650D01*
X112393479Y-68426970D01*
X112393446Y-68427036D01*
X112390633Y-68424822D01*
X112382777Y-68418437D01*
X112370052Y-68408025D01*
X112352635Y-68393733D01*
X112330701Y-68375706D01*
X112304427Y-68354087D01*
X112273988Y-68329024D01*
X112239560Y-68300660D01*
X112201319Y-68269141D01*
X112159441Y-68234611D01*
X112114102Y-68197217D01*
X112065478Y-68157103D01*
X112013744Y-68114414D01*
X111959077Y-68069295D01*
X111901652Y-68021892D01*
X111841645Y-67972349D01*
X111779233Y-67920812D01*
X111714591Y-67867425D01*
X111647895Y-67812335D01*
X111579320Y-67755686D01*
X111509044Y-67697622D01*
X111437241Y-67638290D01*
X111364087Y-67577834D01*
X111351446Y-67567387D01*
X111278063Y-67506736D01*
X111205995Y-67447174D01*
X111135418Y-67388845D01*
X111066510Y-67331896D01*
X110999445Y-67276473D01*
X110934401Y-67222719D01*
X110871553Y-67170782D01*
X110811078Y-67120807D01*
X110753151Y-67072939D01*
X110697949Y-67027324D01*
X110645649Y-66984108D01*
X110596425Y-66943435D01*
X110550456Y-66905452D01*
X110507915Y-66870305D01*
X110468981Y-66838138D01*
X110433829Y-66809097D01*
X110402634Y-66783329D01*
X110375575Y-66760978D01*
X110352825Y-66742190D01*
X110334563Y-66727110D01*
X110320963Y-66715885D01*
X110312202Y-66708660D01*
X110308457Y-66705580D01*
X110308333Y-66705480D01*
X110307260Y-66701655D01*
X110305309Y-66691161D01*
X110302480Y-66673993D01*
X110298771Y-66650149D01*
X110294183Y-66619625D01*
X110288714Y-66582417D01*
X110282364Y-66538521D01*
X110275133Y-66487935D01*
X110267020Y-66430654D01*
X110258025Y-66366675D01*
X110248147Y-66295994D01*
X110237385Y-66218608D01*
X110225740Y-66134513D01*
X110215775Y-66062317D01*
X110206820Y-65997321D01*
X110198124Y-65934139D01*
X110189732Y-65873095D01*
X110181687Y-65814516D01*
X110174035Y-65758726D01*
X110166820Y-65706052D01*
X110160085Y-65656819D01*
X110153876Y-65611351D01*
X110148237Y-65569975D01*
X110143212Y-65533016D01*
X110138846Y-65500800D01*
X110135183Y-65473651D01*
X110132267Y-65451896D01*
X110130143Y-65435860D01*
X110128855Y-65425868D01*
X110128448Y-65422245D01*
X110128452Y-65422237D01*
X110131648Y-65420705D01*
X110139634Y-65416789D01*
X110151131Y-65411120D01*
X110162178Y-65405653D01*
X110209547Y-65378530D01*
X110252692Y-65346457D01*
X110291409Y-65309941D01*
X110325490Y-65269487D01*
X110354729Y-65225601D01*
X110378920Y-65178788D01*
X110397856Y-65129553D01*
X110411331Y-65078403D01*
X110419137Y-65025842D01*
X110421070Y-64972375D01*
X110420909Y-64970281D01*
X110153237Y-64970281D01*
X110153187Y-64998108D01*
X110150297Y-65024349D01*
X110145223Y-65044744D01*
X110130175Y-65078659D01*
X110109706Y-65109532D01*
X110084587Y-65136559D01*
X110055586Y-65158936D01*
X110023476Y-65175861D01*
X110017134Y-65178376D01*
X109981031Y-65188515D01*
X109944653Y-65191901D01*
X109908188Y-65188527D01*
X109884770Y-65182781D01*
X109850242Y-65168845D01*
X109819305Y-65149579D01*
X109792441Y-65125628D01*
X109770131Y-65097639D01*
X109752856Y-65066257D01*
X109741098Y-65032129D01*
X109735339Y-64995901D01*
X109734823Y-64981531D01*
X109737833Y-64945060D01*
X109747068Y-64911028D01*
X109762631Y-64879198D01*
X109784622Y-64849334D01*
X109797182Y-64835934D01*
X109826189Y-64811031D01*
X109856800Y-64792628D01*
X109889450Y-64780557D01*
X109924574Y-64774648D01*
X109954906Y-64774249D01*
X109991465Y-64779280D01*
X110026008Y-64790439D01*
X110057868Y-64807214D01*
X110086377Y-64829095D01*
X110110867Y-64855572D01*
X110130669Y-64886132D01*
X110144845Y-64919434D01*
X110150454Y-64943259D01*
X110153237Y-64970281D01*
X110420909Y-64970281D01*
X110416921Y-64918510D01*
X110406486Y-64864750D01*
X110396704Y-64831501D01*
X110375657Y-64778901D01*
X110349067Y-64729957D01*
X110317277Y-64684971D01*
X110280630Y-64644244D01*
X110239466Y-64608079D01*
X110194129Y-64576777D01*
X110144960Y-64550640D01*
X110092302Y-64529971D01*
X110038518Y-64515495D01*
X110011023Y-64511132D01*
X109979227Y-64508493D01*
X109945283Y-64507580D01*
X109911340Y-64508393D01*
X109879549Y-64510933D01*
X109852062Y-64515200D01*
X109850975Y-64515430D01*
X109794417Y-64530819D01*
X109741382Y-64551876D01*
X109692140Y-64578330D01*
X109646962Y-64609910D01*
X109606118Y-64646346D01*
X109569879Y-64687367D01*
X109538515Y-64732702D01*
X109512297Y-64782082D01*
X109491494Y-64835234D01*
X109476803Y-64889874D01*
X109472851Y-64914649D01*
X109470295Y-64943941D01*
X109469157Y-64975637D01*
X109469459Y-65007619D01*
X109471223Y-65037775D01*
X109474470Y-65063989D01*
X109474965Y-65066793D01*
X109488369Y-65121681D01*
X109507742Y-65173791D01*
X109532721Y-65222745D01*
X109562943Y-65268168D01*
X109598045Y-65309684D01*
X109637665Y-65346917D01*
X109681437Y-65379491D01*
X109729000Y-65407030D01*
X109779991Y-65429158D01*
X109834045Y-65445499D01*
X109842708Y-65447497D01*
X109857094Y-65450464D01*
X109869934Y-65452732D01*
X109879071Y-65453933D01*
X109880949Y-65454033D01*
X109887099Y-65455047D01*
X109890326Y-65459243D01*
X109892031Y-65466807D01*
X109892693Y-65471381D01*
X109894234Y-65482341D01*
X109896609Y-65499362D01*
X109899774Y-65522120D01*
X109903684Y-65550289D01*
X109908293Y-65583545D01*
X109913557Y-65621564D01*
X109919431Y-65664022D01*
X109925870Y-65710593D01*
X109932829Y-65760953D01*
X109940263Y-65814778D01*
X109948128Y-65871742D01*
X109956379Y-65931523D01*
X109964970Y-65993794D01*
X109973857Y-66058231D01*
X109982995Y-66124510D01*
X109987193Y-66154970D01*
X109996418Y-66221807D01*
X110005422Y-66286853D01*
X110014158Y-66349790D01*
X110022583Y-66410300D01*
X110030651Y-66468065D01*
X110038317Y-66522768D01*
X110045536Y-66574090D01*
X110052263Y-66621714D01*
X110058453Y-66665323D01*
X110064061Y-66704598D01*
X110069042Y-66739221D01*
X110073351Y-66768875D01*
X110076942Y-66793243D01*
X110079772Y-66812005D01*
X110081794Y-66824846D01*
X110082964Y-66831445D01*
X110083209Y-66832304D01*
X110085989Y-66834564D01*
X110093823Y-66841003D01*
X110106544Y-66851481D01*
X110123986Y-66865862D01*
X110145982Y-66884007D01*
X110172365Y-66905779D01*
X110202969Y-66931041D01*
X110237627Y-66959653D01*
X110276173Y-66991480D01*
X110318439Y-67026383D01*
X110364259Y-67064224D01*
X110413466Y-67104866D01*
X110465893Y-67148172D01*
X110521375Y-67194002D01*
X110579744Y-67242221D01*
X110640833Y-67292689D01*
X110704476Y-67345270D01*
X110770507Y-67399826D01*
X110838757Y-67456219D01*
X110909062Y-67514311D01*
X110981253Y-67573965D01*
X111055165Y-67635042D01*
X111130631Y-67697407D01*
X111207484Y-67760919D01*
X111241411Y-67788958D01*
X112396693Y-68743743D01*
X112396693Y-70372421D01*
X112396687Y-70485166D01*
X112396669Y-70595278D01*
X112396639Y-70702583D01*
X112396597Y-70806906D01*
X112396545Y-70908073D01*
X112396481Y-71005909D01*
X112396407Y-71100239D01*
X112396323Y-71190889D01*
X112396229Y-71277683D01*
X112396126Y-71360449D01*
X112396013Y-71439010D01*
X112395891Y-71513193D01*
X112395761Y-71582822D01*
X112395623Y-71647724D01*
X112395476Y-71707723D01*
X112395322Y-71762645D01*
X112395161Y-71812316D01*
X112394993Y-71856560D01*
X112394818Y-71895204D01*
X112394636Y-71928072D01*
X112394449Y-71954991D01*
X112394256Y-71975784D01*
X112394058Y-71990279D01*
X112393854Y-71998300D01*
X112393706Y-71999969D01*
X112390508Y-71997154D01*
X112383723Y-71990170D01*
X112374222Y-71979946D01*
X112362877Y-71967411D01*
X112357688Y-71961587D01*
X112339663Y-71941432D01*
X112320667Y-71920555D01*
X112300394Y-71898641D01*
X112278532Y-71875373D01*
X112254775Y-71850435D01*
X112228813Y-71823513D01*
X112200338Y-71794288D01*
X112169040Y-71762447D01*
X112134612Y-71727672D01*
X112096743Y-71689648D01*
X112055127Y-71648059D01*
X112009453Y-71602589D01*
X111959413Y-71552922D01*
X111925803Y-71519627D01*
X111657258Y-71253773D01*
X109692742Y-69189600D01*
X109588827Y-69080413D01*
X109483222Y-68969452D01*
X109376135Y-68856936D01*
X109267777Y-68743084D01*
X109158355Y-68628115D01*
X109048079Y-68512249D01*
X108937156Y-68395705D01*
X108825796Y-68278702D01*
X108714207Y-68161459D01*
X108602598Y-68044196D01*
X108491178Y-67927132D01*
X108380155Y-67810486D01*
X108269738Y-67694477D01*
X108160136Y-67579326D01*
X108051558Y-67465250D01*
X107944211Y-67352469D01*
X107838306Y-67241203D01*
X107734050Y-67131671D01*
X107631652Y-67024092D01*
X107531322Y-66918685D01*
X107433267Y-66815669D01*
X107337696Y-66715265D01*
X107244818Y-66617690D01*
X107154843Y-66523165D01*
X107067977Y-66431909D01*
X106984431Y-66344140D01*
X106904413Y-66260079D01*
X106828131Y-66179944D01*
X106755795Y-66103955D01*
X106687612Y-66032330D01*
X106623792Y-65965290D01*
X106595360Y-65935423D01*
X106522644Y-65859038D01*
X106451018Y-65783796D01*
X106380630Y-65709851D01*
X106311624Y-65637355D01*
X106244146Y-65566462D01*
X106178343Y-65497326D01*
X106114360Y-65430099D01*
X106052344Y-65364936D01*
X105992439Y-65301989D01*
X105934793Y-65241413D01*
X105879551Y-65183359D01*
X105826858Y-65127982D01*
X105776862Y-65075436D01*
X105729708Y-65025873D01*
X105685541Y-64979446D01*
X105644508Y-64936310D01*
X105606755Y-64896617D01*
X105572427Y-64860522D01*
X105541671Y-64828177D01*
X105514632Y-64799735D01*
X105491456Y-64775351D01*
X105472290Y-64755177D01*
X105457279Y-64739366D01*
X105446569Y-64728074D01*
X105440306Y-64721451D01*
X105438838Y-64719885D01*
X105420796Y-64701158D01*
X105402807Y-64683849D01*
X105385716Y-64668668D01*
X105370373Y-64656330D01*
X105357624Y-64647546D01*
X105348317Y-64643030D01*
X105347050Y-64642721D01*
X105329614Y-64641857D01*
X105313781Y-64646390D01*
X105299091Y-64656651D01*
X105285086Y-64672975D01*
X105271305Y-64695693D01*
X105269677Y-64698802D01*
X105257118Y-64725060D01*
X105243283Y-64757609D01*
X105228290Y-64796111D01*
X105212260Y-64840229D01*
X105195313Y-64889627D01*
X105177569Y-64943966D01*
X105159149Y-65002911D01*
X105147647Y-65040933D01*
X105137873Y-65073862D01*
X105129654Y-65102245D01*
X105122678Y-65127420D01*
X105116632Y-65150725D01*
X105111202Y-65173496D01*
X105106076Y-65197070D01*
X105100941Y-65222784D01*
X105095483Y-65251975D01*
X105089390Y-65285980D01*
X105086696Y-65301279D01*
X105049762Y-65525062D01*
X105018222Y-65744848D01*
X104992070Y-65960729D01*
X104971301Y-66172797D01*
X104955908Y-66381146D01*
X104945885Y-66585867D01*
X104941227Y-66787052D01*
X104941929Y-66984794D01*
X104947983Y-67179185D01*
X104958075Y-67352333D01*
X104975887Y-67554587D01*
X105000304Y-67755743D01*
X105031269Y-67955634D01*
X105068723Y-68154092D01*
X105112609Y-68350952D01*
X105162870Y-68546045D01*
X105219446Y-68739205D01*
X105282281Y-68930265D01*
X105351318Y-69119058D01*
X105426497Y-69305417D01*
X105507761Y-69489174D01*
X105595053Y-69670164D01*
X105688315Y-69848218D01*
X105787489Y-70023170D01*
X105892517Y-70194852D01*
X105995253Y-70351227D01*
X106109560Y-70513764D01*
X106228058Y-70671125D01*
X106350698Y-70823264D01*
X106477430Y-70970131D01*
X106608202Y-71111681D01*
X106742966Y-71247866D01*
X106881670Y-71378637D01*
X107024264Y-71503949D01*
X107170698Y-71623753D01*
X107320922Y-71738002D01*
X107474885Y-71846649D01*
X107632538Y-71949646D01*
X107793829Y-72046946D01*
X107794213Y-72047169D01*
X107940967Y-72128870D01*
X108091357Y-72206244D01*
X108244559Y-72278938D01*
X108399752Y-72346601D01*
X108556113Y-72408879D01*
X108712819Y-72465419D01*
X108869048Y-72515870D01*
X108928746Y-72533552D01*
X109057646Y-72569224D01*
X109184236Y-72601072D01*
X109309593Y-72629277D01*
X109434790Y-72654022D01*
X109560904Y-72675489D01*
X109689009Y-72693861D01*
X109820180Y-72709319D01*
X109955492Y-72722046D01*
X110096020Y-72732223D01*
X110103920Y-72732712D01*
X110124991Y-72733737D01*
X110151955Y-72734620D01*
X110183933Y-72735361D01*
X110220045Y-72735960D01*
X110259414Y-72736418D01*
X110301159Y-72736733D01*
X110344402Y-72736906D01*
X110388265Y-72736938D01*
X110431867Y-72736826D01*
X110474330Y-72736573D01*
X110514774Y-72736177D01*
X110552322Y-72735638D01*
X110586094Y-72734957D01*
X110615210Y-72734132D01*
X110638793Y-72733165D01*
X110645786Y-72732780D01*
X110777032Y-72723924D01*
X110904511Y-72713295D01*
X111029694Y-72700710D01*
X111154047Y-72685985D01*
X111279040Y-72668937D01*
X111406139Y-72649384D01*
X111536815Y-72627142D01*
X111631306Y-72609855D01*
X111676282Y-72601041D01*
X111719612Y-72591744D01*
X111761844Y-72581762D01*
X111803530Y-72570899D01*
X111845219Y-72558953D01*
X111887461Y-72545727D01*
X111930806Y-72531021D01*
X111975804Y-72514637D01*
X112023004Y-72496375D01*
X112072957Y-72476037D01*
X112126212Y-72453422D01*
X112183320Y-72428334D01*
X112244829Y-72400571D01*
X112311291Y-72369936D01*
X112369665Y-72342628D01*
X112397269Y-72329659D01*
X112423517Y-72317355D01*
X112447650Y-72306072D01*
X112468907Y-72296162D01*
X112486526Y-72287981D01*
X112499749Y-72281883D01*
X112507813Y-72278223D01*
X112509019Y-72277694D01*
X112524825Y-72270874D01*
X112580139Y-72296978D01*
X112738177Y-72367836D01*
X112899345Y-72432762D01*
X113063417Y-72491707D01*
X113230163Y-72544622D01*
X113399358Y-72591458D01*
X113570773Y-72632166D01*
X113744182Y-72666695D01*
X113919356Y-72694998D01*
X114096068Y-72717025D01*
X114274090Y-72732727D01*
X114453196Y-72742054D01*
X114633158Y-72744957D01*
X114650520Y-72744896D01*
X114680319Y-72744718D01*
X114709100Y-72744507D01*
X114735886Y-72744273D01*
X114759700Y-72744025D01*
X114779568Y-72743774D01*
X114794513Y-72743530D01*
X114802920Y-72743326D01*
X114990118Y-72733679D01*
X115176509Y-72717371D01*
X115361903Y-72694438D01*
X115546112Y-72664919D01*
X115728946Y-72628850D01*
X115910215Y-72586268D01*
X116089731Y-72537212D01*
X116267303Y-72481719D01*
X116442742Y-72419825D01*
X116443763Y-72419444D01*
X116613575Y-72352403D01*
X116781367Y-72278946D01*
X116946987Y-72199167D01*
X117110285Y-72113162D01*
X117271111Y-72021023D01*
X117429314Y-71922847D01*
X117584742Y-71818725D01*
X117737247Y-71708754D01*
X117886676Y-71593028D01*
X118032880Y-71471639D01*
X118175708Y-71344684D01*
X118208213Y-71314568D01*
X118229346Y-71294570D01*
X118254103Y-71270693D01*
X118281662Y-71243764D01*
X118311197Y-71214610D01*
X118341888Y-71184058D01*
X118372910Y-71152936D01*
X118403439Y-71122071D01*
X118432653Y-71092288D01*
X118459729Y-71064416D01*
X118483843Y-71039282D01*
X118504171Y-71017712D01*
X118510230Y-71011169D01*
X118642881Y-70862074D01*
X118770397Y-70708633D01*
X118892662Y-70551031D01*
X119009558Y-70389455D01*
X119120967Y-70224092D01*
X119226771Y-70055128D01*
X119326852Y-69882749D01*
X119421094Y-69707143D01*
X119509378Y-69528496D01*
X119591588Y-69346995D01*
X119654300Y-69196373D01*
X119725560Y-69009211D01*
X119790678Y-68819344D01*
X119849644Y-68626949D01*
X119902444Y-68432204D01*
X119949068Y-68235285D01*
X119989502Y-68036370D01*
X120023736Y-67835635D01*
X120051758Y-67633259D01*
X120073555Y-67429418D01*
X120089116Y-67224290D01*
X120098428Y-67018051D01*
X120101481Y-66810879D01*
X120098262Y-66602951D01*
X120088759Y-66394445D01*
X120072961Y-66185537D01*
X120050855Y-65976405D01*
X120022431Y-65767226D01*
X119987674Y-65558176D01*
X119946575Y-65349435D01*
X119919900Y-65228893D01*
X119910717Y-65189743D01*
X119900783Y-65148699D01*
X119890264Y-65106368D01*
X119879329Y-65063355D01*
X119868142Y-65020266D01*
X119856873Y-64977706D01*
X119845686Y-64936282D01*
X119834750Y-64896598D01*
X119824231Y-64859261D01*
X119814296Y-64824876D01*
X119805113Y-64794049D01*
X119796847Y-64767386D01*
X119789666Y-64745492D01*
X119783737Y-64728972D01*
X119779233Y-64718447D01*
X119764714Y-64696574D01*
X119746595Y-64680267D01*
X119725481Y-64669786D01*
X119701980Y-64665390D01*
X119676697Y-64667338D01*
X119665941Y-64670036D01*
X119646558Y-64678095D01*
X119625468Y-64691217D01*
X119602434Y-64709613D01*
X119577217Y-64733490D01*
X119549581Y-64763057D01*
X119519289Y-64798524D01*
X119517680Y-64800480D01*
X119511468Y-64807652D01*
X119500830Y-64819449D01*
X119486020Y-64835602D01*
X119467294Y-64855840D01*
X119444904Y-64879893D01*
X119419107Y-64907490D01*
X119390156Y-64938361D01*
X119358306Y-64972235D01*
X119323810Y-65008843D01*
X119286925Y-65047914D01*
X119247904Y-65089177D01*
X119207001Y-65132362D01*
X119164471Y-65177200D01*
X119120569Y-65223418D01*
X119075548Y-65270748D01*
X119037999Y-65310173D01*
X119011022Y-65338481D01*
X118979540Y-65371518D01*
X118943719Y-65409108D01*
X118903726Y-65451077D01*
X118859727Y-65497250D01*
X118811889Y-65547451D01*
X118760379Y-65601506D01*
X118705364Y-65659240D01*
X118647011Y-65720477D01*
X118585485Y-65785043D01*
X118520955Y-65852763D01*
X118453587Y-65923461D01*
X118383546Y-65996963D01*
X118311002Y-66073094D01*
X118236119Y-66151678D01*
X118159065Y-66232541D01*
X118080006Y-66315508D01*
X117999110Y-66400403D01*
X117916543Y-66487053D01*
X117832471Y-66575281D01*
X117747062Y-66664912D01*
X117660483Y-66755773D01*
X117572899Y-66847687D01*
X117484478Y-66940480D01*
X117395387Y-67033976D01*
X117305792Y-67128002D01*
X117215859Y-67222381D01*
X117125757Y-67316939D01*
X117035651Y-67411500D01*
X116983923Y-67465787D01*
X116824583Y-67633007D01*
X116669842Y-67795400D01*
X116519625Y-67953046D01*
X116373860Y-68106020D01*
X116232471Y-68254400D01*
X116095386Y-68398263D01*
X115962531Y-68537688D01*
X115833832Y-68672752D01*
X115709214Y-68803532D01*
X115588605Y-68930105D01*
X115471930Y-69052549D01*
X115359116Y-69170941D01*
X115250089Y-69285360D01*
X115144774Y-69395882D01*
X115043098Y-69502584D01*
X114944988Y-69605545D01*
X114850369Y-69704842D01*
X114759168Y-69800552D01*
X114671311Y-69892753D01*
X114586723Y-69981522D01*
X114505332Y-70066936D01*
X114427064Y-70149073D01*
X114351843Y-70228011D01*
X114279598Y-70303827D01*
X114210254Y-70376599D01*
X114143736Y-70446403D01*
X114079972Y-70513318D01*
X114018888Y-70577420D01*
X113960409Y-70638788D01*
X113904462Y-70697499D01*
X113850973Y-70753630D01*
X113799868Y-70807258D01*
X113751074Y-70858462D01*
X113704516Y-70907318D01*
X113660121Y-70953904D01*
X113617815Y-70998298D01*
X113577524Y-71040577D01*
X113539175Y-71080819D01*
X113502693Y-71119100D01*
X113468005Y-71155498D01*
X113435036Y-71190092D01*
X113403714Y-71222958D01*
X113373964Y-71254173D01*
X113345712Y-71283816D01*
X113318885Y-71311963D01*
X113293409Y-71338693D01*
X113269210Y-71364082D01*
X113246214Y-71388208D01*
X113224347Y-71411149D01*
X113203536Y-71432982D01*
X113183707Y-71453784D01*
X113164785Y-71473633D01*
X113146698Y-71492607D01*
X113129371Y-71510782D01*
X113112730Y-71528237D01*
X113096702Y-71545049D01*
X113081213Y-71561294D01*
X113066189Y-71577052D01*
X113051556Y-71592398D01*
X113037241Y-71607411D01*
X113033837Y-71610981D01*
X112985851Y-71661348D01*
X112942344Y-71707109D01*
X112903078Y-71748522D01*
X112867813Y-71785843D01*
X112836312Y-71819329D01*
X112808337Y-71849235D01*
X112783650Y-71875818D01*
X112762012Y-71899335D01*
X112743185Y-71920041D01*
X112726932Y-71938194D01*
X112713013Y-71954050D01*
X112701191Y-71967865D01*
X112691783Y-71979212D01*
X112677115Y-71997116D01*
X112663803Y-72013147D01*
X112652453Y-72026591D01*
X112643672Y-72036736D01*
X112638068Y-72042867D01*
X112636300Y-72044405D01*
X112636110Y-72041072D01*
X112635929Y-72031212D01*
X112635756Y-72015075D01*
X112635592Y-71992907D01*
X112635435Y-71964956D01*
X112635287Y-71931470D01*
X112635147Y-71892696D01*
X112635015Y-71848882D01*
X112634890Y-71800275D01*
X112634774Y-71747124D01*
X112634666Y-71689675D01*
X112634566Y-71628177D01*
X112634473Y-71562877D01*
X112634388Y-71494022D01*
X112634311Y-71421860D01*
X112634242Y-71346639D01*
X112634180Y-71268606D01*
X112634126Y-71188009D01*
X112634080Y-71105096D01*
X112634041Y-71020114D01*
X112634009Y-70933311D01*
X112633985Y-70844934D01*
X112633968Y-70755231D01*
X112633959Y-70664449D01*
X112633957Y-70572837D01*
X112633962Y-70480641D01*
X112633974Y-70388110D01*
X112633993Y-70295491D01*
X112634020Y-70203031D01*
X112634053Y-70110979D01*
X112634094Y-70019581D01*
X112634141Y-69929086D01*
X112634196Y-69839741D01*
X112634257Y-69751793D01*
X112634325Y-69665491D01*
X112634400Y-69581081D01*
X112634482Y-69498812D01*
X112634570Y-69418931D01*
X112634665Y-69341686D01*
X112634766Y-69267323D01*
X112634875Y-69196092D01*
X112634989Y-69128239D01*
X112635110Y-69064012D01*
X112635238Y-69003659D01*
X112635371Y-68947426D01*
X112635511Y-68895563D01*
X112635658Y-68848316D01*
X112635810Y-68805934D01*
X112635969Y-68768663D01*
X112636134Y-68736751D01*
X112636305Y-68710446D01*
X112636482Y-68689996D01*
X112636665Y-68675647D01*
X112636854Y-68667649D01*
X112636925Y-68666360D01*
X112637900Y-68650945D01*
X112638064Y-68638691D01*
X112637422Y-68631009D01*
X112636760Y-68629276D01*
X112636436Y-68625583D01*
X112636124Y-68615402D01*
X112635825Y-68599018D01*
X112635541Y-68576717D01*
X112635273Y-68548783D01*
X112635022Y-68515503D01*
X112634791Y-68477161D01*
X112634579Y-68434043D01*
X112634388Y-68386434D01*
X112634220Y-68334619D01*
X112634076Y-68278883D01*
X112633958Y-68219513D01*
X112633866Y-68156792D01*
X112633801Y-68091007D01*
X112633766Y-68022443D01*
X112633760Y-67976779D01*
X112633760Y-67327499D01*
X114437160Y-66091099D01*
X114560612Y-65462747D01*
X114684065Y-64834396D01*
X114694386Y-64832952D01*
X114740822Y-64825359D01*
X114781931Y-64816141D01*
X114819058Y-64804836D01*
X114853549Y-64790981D01*
X114886750Y-64774114D01*
X114914680Y-64757244D01*
X114959501Y-64724375D01*
X114999866Y-64686607D01*
X115035462Y-64644396D01*
X115065980Y-64598200D01*
X115091109Y-64548476D01*
X115110537Y-64495680D01*
X115121391Y-64453347D01*
X115124750Y-64432327D01*
X115127218Y-64406683D01*
X115128727Y-64378512D01*
X115129061Y-64358520D01*
X114863583Y-64358520D01*
X114860329Y-64395002D01*
X114850880Y-64429658D01*
X114835703Y-64461880D01*
X114815266Y-64491057D01*
X114790038Y-64516578D01*
X114760486Y-64537835D01*
X114727078Y-64554217D01*
X114708617Y-64560524D01*
X114688948Y-64564383D01*
X114665266Y-64566075D01*
X114639951Y-64565671D01*
X114615382Y-64563239D01*
X114593941Y-64558852D01*
X114587866Y-64556955D01*
X114554402Y-64541857D01*
X114523960Y-64521322D01*
X114497347Y-64496148D01*
X114475369Y-64467129D01*
X114458833Y-64435061D01*
X114455551Y-64426396D01*
X114446349Y-64392200D01*
X114443372Y-64358984D01*
X114446497Y-64325362D01*
X114446640Y-64324574D01*
X114456324Y-64288727D01*
X114471250Y-64256340D01*
X114490777Y-64227691D01*
X114514266Y-64203057D01*
X114541077Y-64182716D01*
X114570570Y-64166946D01*
X114602105Y-64156024D01*
X114635043Y-64150228D01*
X114668744Y-64149836D01*
X114702568Y-64155125D01*
X114735875Y-64166373D01*
X114768025Y-64183858D01*
X114769151Y-64184607D01*
X114798735Y-64208129D01*
X114822814Y-64235511D01*
X114841623Y-64267024D01*
X114841650Y-64267080D01*
X114852665Y-64292663D01*
X114859553Y-64316075D01*
X114862946Y-64339961D01*
X114863583Y-64358520D01*
X115129061Y-64358520D01*
X115129206Y-64349913D01*
X115128585Y-64322983D01*
X115126795Y-64299821D01*
X115126558Y-64297861D01*
X115116283Y-64242551D01*
X115099841Y-64189526D01*
X115077544Y-64139231D01*
X115049703Y-64092114D01*
X115016631Y-64048620D01*
X114978640Y-64009194D01*
X114936041Y-63974284D01*
X114889146Y-63944336D01*
X114873507Y-63935987D01*
X114830397Y-63916118D01*
X114788456Y-63901406D01*
X114745723Y-63891347D01*
X114700233Y-63885431D01*
X114670840Y-63883662D01*
X114618323Y-63884106D01*
X114568930Y-63889788D01*
X114521167Y-63901023D01*
X114473536Y-63918129D01*
X114443827Y-63931621D01*
X114393764Y-63959650D01*
X114348363Y-63992534D01*
X114307786Y-64030065D01*
X114272194Y-64072035D01*
X114241748Y-64118239D01*
X114216609Y-64168468D01*
X114196939Y-64222515D01*
X114186609Y-64262065D01*
X114183671Y-64279655D01*
X114181348Y-64302114D01*
X114179704Y-64327557D01*
X114178801Y-64354100D01*
X114178705Y-64379862D01*
X114179478Y-64402959D01*
X114181185Y-64421507D01*
X114181211Y-64421694D01*
X114192264Y-64476876D01*
X114209296Y-64529837D01*
X114231982Y-64580061D01*
X114259994Y-64627031D01*
X114293004Y-64670231D01*
X114330686Y-64709143D01*
X114372711Y-64743252D01*
X114393913Y-64757503D01*
X114408457Y-64767207D01*
X114417434Y-64774561D01*
X114421420Y-64780067D01*
X114421745Y-64781853D01*
X114421096Y-64785853D01*
X114419202Y-64796153D01*
X114416131Y-64812409D01*
X114411949Y-64834276D01*
X114406723Y-64861410D01*
X114400521Y-64893466D01*
X114393410Y-64930100D01*
X114385457Y-64970966D01*
X114376728Y-65015721D01*
X114367292Y-65064020D01*
X114357214Y-65115518D01*
X114346563Y-65169870D01*
X114335405Y-65226732D01*
X114323807Y-65285759D01*
X114311837Y-65346608D01*
X114309205Y-65359974D01*
X114196706Y-65931321D01*
X113418480Y-66464874D01*
X113352896Y-66509830D01*
X113288756Y-66553782D01*
X113226286Y-66596573D01*
X113165710Y-66638052D01*
X113107253Y-66678065D01*
X113051141Y-66716457D01*
X112997600Y-66753074D01*
X112946853Y-66787764D01*
X112899127Y-66820373D01*
X112854647Y-66850745D01*
X112813637Y-66878729D01*
X112776323Y-66904170D01*
X112742930Y-66926914D01*
X112713684Y-66946808D01*
X112688809Y-66963697D01*
X112668531Y-66977429D01*
X112653075Y-66987849D01*
X112642666Y-66994804D01*
X112637529Y-66998140D01*
X112637004Y-66998427D01*
X112636748Y-66995051D01*
X112636506Y-66984971D01*
X112636277Y-66968254D01*
X112636061Y-66944968D01*
X112635858Y-66915182D01*
X112635668Y-66878964D01*
X112635491Y-66836382D01*
X112635328Y-66787505D01*
X112635178Y-66732400D01*
X112635042Y-66671136D01*
X112634920Y-66603782D01*
X112634811Y-66530405D01*
X112634717Y-66451074D01*
X112634636Y-66365856D01*
X112634570Y-66274821D01*
X112634517Y-66178037D01*
X112634479Y-66075571D01*
X112634455Y-65967492D01*
X112634446Y-65853869D01*
X112634451Y-65734769D01*
X112634471Y-65610261D01*
X112634505Y-65480413D01*
X112634555Y-65345293D01*
X112634603Y-65236739D01*
X112635453Y-63475051D01*
X112666684Y-63464240D01*
X112721078Y-63442009D01*
X112771404Y-63414371D01*
X112817721Y-63381291D01*
X112847401Y-63355248D01*
X112886077Y-63313980D01*
X112919078Y-63269523D01*
X112946403Y-63222383D01*
X112968053Y-63173064D01*
X112984028Y-63122073D01*
X112994327Y-63069913D01*
X112998950Y-63017092D01*
X112998620Y-63000467D01*
X112731973Y-63000467D01*
X112730711Y-63027103D01*
X112726518Y-63051217D01*
X112718785Y-63075311D01*
X112707670Y-63100331D01*
X112699049Y-63116462D01*
X112689717Y-63130310D01*
X112677977Y-63144166D01*
X112666217Y-63156295D01*
X112635705Y-63182238D01*
X112602785Y-63201964D01*
X112567830Y-63215366D01*
X112531215Y-63222337D01*
X112493312Y-63222768D01*
X112455960Y-63216905D01*
X112425187Y-63206578D01*
X112394679Y-63190809D01*
X112366234Y-63170751D01*
X112341649Y-63147562D01*
X112333911Y-63138445D01*
X112312665Y-63106443D01*
X112297452Y-63072074D01*
X112288326Y-63036105D01*
X112285342Y-62999299D01*
X112288554Y-62962422D01*
X112298017Y-62926240D01*
X112313785Y-62891516D01*
X112316020Y-62887626D01*
X112323411Y-62876841D01*
X112334060Y-62863531D01*
X112346254Y-62849772D01*
X112353304Y-62842460D01*
X112383057Y-62817274D01*
X112415743Y-62798152D01*
X112451048Y-62785226D01*
X112488660Y-62778623D01*
X112510146Y-62777733D01*
X112548263Y-62780953D01*
X112583838Y-62790363D01*
X112617113Y-62806068D01*
X112648329Y-62828170D01*
X112666306Y-62844681D01*
X112692023Y-62874697D01*
X112711320Y-62906814D01*
X112724271Y-62941204D01*
X112730947Y-62978042D01*
X112731973Y-63000467D01*
X112998620Y-63000467D01*
X112997898Y-62964113D01*
X112991170Y-62911481D01*
X112978766Y-62859703D01*
X112960686Y-62809284D01*
X112936930Y-62760728D01*
X112907498Y-62714540D01*
X112872389Y-62671227D01*
X112847518Y-62645796D01*
X112803546Y-62608549D01*
X112755947Y-62577003D01*
X112704861Y-62551234D01*
X112650430Y-62531315D01*
X112608998Y-62520583D01*
X112586471Y-62516898D01*
X112559183Y-62514325D01*
X112529018Y-62512879D01*
X112497862Y-62512577D01*
X112467599Y-62513434D01*
G36*
X110489825Y-73111981D02*
G01*
X110461359Y-73112285D01*
X110439050Y-73112756D01*
X110422748Y-73113398D01*
X110412297Y-73114211D01*
X110408720Y-73114796D01*
X110388732Y-73122356D01*
X110372501Y-73133908D01*
X110361367Y-73148495D01*
X110361274Y-73148677D01*
X110359636Y-73152093D01*
X110358283Y-73155752D01*
X110357193Y-73160288D01*
X110356344Y-73166334D01*
X110355711Y-73174526D01*
X110355274Y-73185496D01*
X110355008Y-73199880D01*
X110354892Y-73218312D01*
X110354902Y-73241425D01*
X110355016Y-73269854D01*
X110355210Y-73304232D01*
X110355281Y-73315733D01*
X110356226Y-73469187D01*
X110365736Y-73481652D01*
X110375069Y-73491343D01*
X110386479Y-73499977D01*
X110389443Y-73501704D01*
X110392510Y-73503297D01*
X110395646Y-73504652D01*
X110399399Y-73505791D01*
X110404317Y-73506736D01*
X110410947Y-73507509D01*
X110419839Y-73508132D01*
X110431540Y-73508626D01*
X110446598Y-73509014D01*
X110465560Y-73509317D01*
X110488975Y-73509557D01*
X110517391Y-73509756D01*
X110551356Y-73509935D01*
X110591417Y-73510117D01*
X110601760Y-73510163D01*
X110799880Y-73511033D01*
X110816838Y-73503079D01*
X110832547Y-73493489D01*
X110845594Y-73481295D01*
X110854511Y-73468073D01*
X110857447Y-73459412D01*
X110857853Y-73453737D01*
X110858185Y-73442051D01*
X110858438Y-73425115D01*
X110858608Y-73403691D01*
X110858690Y-73378540D01*
X110858679Y-73350424D01*
X110858569Y-73320105D01*
X110858461Y-73302171D01*
X110857453Y-73156008D01*
X110846932Y-73143013D01*
X110837365Y-73133560D01*
X110825299Y-73124639D01*
X110819934Y-73121535D01*
X110803458Y-73113053D01*
X110613709Y-73112058D01*
X110565847Y-73111870D01*
X110524604Y-73111844D01*
X110489825Y-73111981D01*
G37*
X110489825Y-73111981D02*
X110461359Y-73112285D01*
X110439050Y-73112756D01*
X110422748Y-73113398D01*
X110412297Y-73114211D01*
X110408720Y-73114796D01*
X110388732Y-73122356D01*
X110372501Y-73133908D01*
X110361367Y-73148495D01*
X110361274Y-73148677D01*
X110359636Y-73152093D01*
X110358283Y-73155752D01*
X110357193Y-73160288D01*
X110356344Y-73166334D01*
X110355711Y-73174526D01*
X110355274Y-73185496D01*
X110355008Y-73199880D01*
X110354892Y-73218312D01*
X110354902Y-73241425D01*
X110355016Y-73269854D01*
X110355210Y-73304232D01*
X110355281Y-73315733D01*
X110356226Y-73469187D01*
X110365736Y-73481652D01*
X110375069Y-73491343D01*
X110386479Y-73499977D01*
X110389443Y-73501704D01*
X110392510Y-73503297D01*
X110395646Y-73504652D01*
X110399399Y-73505791D01*
X110404317Y-73506736D01*
X110410947Y-73507509D01*
X110419839Y-73508132D01*
X110431540Y-73508626D01*
X110446598Y-73509014D01*
X110465560Y-73509317D01*
X110488975Y-73509557D01*
X110517391Y-73509756D01*
X110551356Y-73509935D01*
X110591417Y-73510117D01*
X110601760Y-73510163D01*
X110799880Y-73511033D01*
X110816838Y-73503079D01*
X110832547Y-73493489D01*
X110845594Y-73481295D01*
X110854511Y-73468073D01*
X110857447Y-73459412D01*
X110857853Y-73453737D01*
X110858185Y-73442051D01*
X110858438Y-73425115D01*
X110858608Y-73403691D01*
X110858690Y-73378540D01*
X110858679Y-73350424D01*
X110858569Y-73320105D01*
X110858461Y-73302171D01*
X110857453Y-73156008D01*
X110846932Y-73143013D01*
X110837365Y-73133560D01*
X110825299Y-73124639D01*
X110819934Y-73121535D01*
X110803458Y-73113053D01*
X110613709Y-73112058D01*
X110565847Y-73111870D01*
X110524604Y-73111844D01*
X110489825Y-73111981D01*
G36*
X114016893Y-74827354D02*
G01*
X114004745Y-74835544D01*
X113993338Y-74846103D01*
X113984438Y-74857159D01*
X113979877Y-74866562D01*
X113979494Y-74871507D01*
X113979185Y-74882465D01*
X113978953Y-74898677D01*
X113978805Y-74919383D01*
X113978744Y-74943825D01*
X113978774Y-74971242D01*
X113978902Y-75000874D01*
X113978981Y-75013241D01*
X113979960Y-75152362D01*
X113989178Y-75164444D01*
X113997665Y-75172961D01*
X114009199Y-75181418D01*
X114016090Y-75185343D01*
X114033783Y-75194160D01*
X116002163Y-75194160D01*
X116019989Y-75185277D01*
X116037134Y-75173810D01*
X116046901Y-75162670D01*
X116055986Y-75148947D01*
X116056980Y-75015829D01*
X116057175Y-74975973D01*
X116057120Y-74942118D01*
X116056819Y-74914414D01*
X116056274Y-74893011D01*
X116055489Y-74878062D01*
X116054465Y-74869716D01*
X116054351Y-74869256D01*
X116046141Y-74851387D01*
X116032276Y-74836174D01*
X116019154Y-74827405D01*
X116005186Y-74819933D01*
X114030760Y-74819933D01*
X114016893Y-74827354D01*
G37*
X114016893Y-74827354D02*
X114004745Y-74835544D01*
X113993338Y-74846103D01*
X113984438Y-74857159D01*
X113979877Y-74866562D01*
X113979494Y-74871507D01*
X113979185Y-74882465D01*
X113978953Y-74898677D01*
X113978805Y-74919383D01*
X113978744Y-74943825D01*
X113978774Y-74971242D01*
X113978902Y-75000874D01*
X113978981Y-75013241D01*
X113979960Y-75152362D01*
X113989178Y-75164444D01*
X113997665Y-75172961D01*
X114009199Y-75181418D01*
X114016090Y-75185343D01*
X114033783Y-75194160D01*
X116002163Y-75194160D01*
X116019989Y-75185277D01*
X116037134Y-75173810D01*
X116046901Y-75162670D01*
X116055986Y-75148947D01*
X116056980Y-75015829D01*
X116057175Y-74975973D01*
X116057120Y-74942118D01*
X116056819Y-74914414D01*
X116056274Y-74893011D01*
X116055489Y-74878062D01*
X116054465Y-74869716D01*
X116054351Y-74869256D01*
X116046141Y-74851387D01*
X116032276Y-74836174D01*
X116019154Y-74827405D01*
X116005186Y-74819933D01*
X114030760Y-74819933D01*
X114016893Y-74827354D01*
G36*
X111580633Y-73111925D02*
G01*
X111553413Y-73112052D01*
X111512307Y-73112280D01*
X111477428Y-73112513D01*
X111448227Y-73112769D01*
X111424160Y-73113068D01*
X111404677Y-73113428D01*
X111389233Y-73113867D01*
X111377280Y-73114406D01*
X111368272Y-73115063D01*
X111361661Y-73115856D01*
X111356900Y-73116805D01*
X111353443Y-73117929D01*
X111351114Y-73119039D01*
X111336390Y-73129477D01*
X111322777Y-73143278D01*
X111312776Y-73157854D01*
X111311899Y-73159612D01*
X111311355Y-73161064D01*
X111310847Y-73163200D01*
X111310372Y-73166241D01*
X111309931Y-73170410D01*
X111309522Y-73175929D01*
X111309144Y-73183021D01*
X111308795Y-73191908D01*
X111308475Y-73202811D01*
X111308182Y-73215954D01*
X111307914Y-73231558D01*
X111307672Y-73249845D01*
X111307453Y-73271039D01*
X111307257Y-73295361D01*
X111307082Y-73323034D01*
X111306927Y-73354279D01*
X111306791Y-73389320D01*
X111306672Y-73428377D01*
X111306570Y-73471674D01*
X111306484Y-73519433D01*
X111306411Y-73571876D01*
X111306352Y-73629226D01*
X111306304Y-73691703D01*
X111306267Y-73759532D01*
X111306240Y-73832934D01*
X111306220Y-73912131D01*
X111306208Y-73997345D01*
X111306201Y-74088800D01*
X111306199Y-74186716D01*
X111306199Y-74227778D01*
X111306201Y-74328052D01*
X111306205Y-74421775D01*
X111306213Y-74509173D01*
X111306225Y-74590467D01*
X111306244Y-74665883D01*
X111306271Y-74735644D01*
X111306306Y-74799972D01*
X111306352Y-74859092D01*
X111306409Y-74913228D01*
X111306480Y-74962603D01*
X111306565Y-75007440D01*
X111306666Y-75047963D01*
X111306784Y-75084396D01*
X111306920Y-75116962D01*
X111307076Y-75145886D01*
X111307254Y-75171389D01*
X111307454Y-75193697D01*
X111307678Y-75213032D01*
X111307927Y-75229618D01*
X111308204Y-75243680D01*
X111308508Y-75255439D01*
X111308841Y-75265121D01*
X111309205Y-75272948D01*
X111309601Y-75279144D01*
X111310031Y-75283933D01*
X111310496Y-75287538D01*
X111310996Y-75290184D01*
X111311535Y-75292092D01*
X111312112Y-75293488D01*
X111312684Y-75294521D01*
X111319730Y-75303566D01*
X111329006Y-75312565D01*
X111331145Y-75314280D01*
X111336361Y-75318152D01*
X111341436Y-75321451D01*
X111346933Y-75324220D01*
X111353416Y-75326505D01*
X111361447Y-75328351D01*
X111371590Y-75329802D01*
X111384408Y-75330903D01*
X111400463Y-75331700D01*
X111420318Y-75332238D01*
X111444537Y-75332560D01*
X111473682Y-75332713D01*
X111508317Y-75332741D01*
X111549005Y-75332689D01*
X111561571Y-75332667D01*
X111596802Y-75332557D01*
X111630226Y-75332369D01*
X111661188Y-75332111D01*
X111689031Y-75331793D01*
X111713100Y-75331424D01*
X111732739Y-75331014D01*
X111747292Y-75330572D01*
X111756102Y-75330107D01*
X111758306Y-75329835D01*
X111770765Y-75325578D01*
X111783978Y-75319216D01*
X111795310Y-75312149D01*
X111801078Y-75307127D01*
X111806493Y-75299650D01*
X111811940Y-75290285D01*
X111812085Y-75290001D01*
X111812609Y-75288586D01*
X111813099Y-75286330D01*
X111813556Y-75283015D01*
X111813981Y-75278418D01*
X111814375Y-75272318D01*
X111814739Y-75264494D01*
X111815074Y-75254725D01*
X111815382Y-75242789D01*
X111815664Y-75228466D01*
X111815920Y-75211534D01*
X111816153Y-75191772D01*
X111816362Y-75168959D01*
X111816549Y-75142873D01*
X111816716Y-75113294D01*
X111816862Y-75080000D01*
X111816991Y-75042770D01*
X111817102Y-75001382D01*
X111817197Y-74955616D01*
X111817276Y-74905251D01*
X111817342Y-74850064D01*
X111817394Y-74789836D01*
X111817435Y-74724344D01*
X111817466Y-74653368D01*
X111817487Y-74576686D01*
X111817499Y-74494077D01*
X111817504Y-74405321D01*
X111817503Y-74310195D01*
X111817499Y-74226588D01*
X111817491Y-74126421D01*
X111817480Y-74032804D01*
X111817466Y-73945511D01*
X111817446Y-73864318D01*
X111817421Y-73789001D01*
X111817387Y-73719336D01*
X111817345Y-73655098D01*
X111817292Y-73596062D01*
X111817227Y-73542006D01*
X111817149Y-73492703D01*
X111817057Y-73447930D01*
X111816949Y-73407463D01*
X111816825Y-73371077D01*
X111816682Y-73338548D01*
X111816519Y-73309651D01*
X111816335Y-73284162D01*
X111816129Y-73261856D01*
X111815900Y-73242510D01*
X111815645Y-73225899D01*
X111815365Y-73211799D01*
X111815056Y-73199985D01*
X111814719Y-73190233D01*
X111814352Y-73182318D01*
X111813953Y-73176017D01*
X111813521Y-73171104D01*
X111813055Y-73167356D01*
X111812553Y-73164548D01*
X111812015Y-73162456D01*
X111811438Y-73160856D01*
X111811211Y-73160335D01*
X111802482Y-73146754D01*
X111789649Y-73133466D01*
X111774911Y-73122383D01*
X111760465Y-73115420D01*
X111759187Y-73115042D01*
X111753603Y-73114111D01*
X111743951Y-73113345D01*
X111729873Y-73112740D01*
X111711014Y-73112288D01*
X111687017Y-73111986D01*
X111657526Y-73111829D01*
X111622183Y-73111810D01*
X111580633Y-73111925D01*
G37*
X111580633Y-73111925D02*
X111553413Y-73112052D01*
X111512307Y-73112280D01*
X111477428Y-73112513D01*
X111448227Y-73112769D01*
X111424160Y-73113068D01*
X111404677Y-73113428D01*
X111389233Y-73113867D01*
X111377280Y-73114406D01*
X111368272Y-73115063D01*
X111361661Y-73115856D01*
X111356900Y-73116805D01*
X111353443Y-73117929D01*
X111351114Y-73119039D01*
X111336390Y-73129477D01*
X111322777Y-73143278D01*
X111312776Y-73157854D01*
X111311899Y-73159612D01*
X111311355Y-73161064D01*
X111310847Y-73163200D01*
X111310372Y-73166241D01*
X111309931Y-73170410D01*
X111309522Y-73175929D01*
X111309144Y-73183021D01*
X111308795Y-73191908D01*
X111308475Y-73202811D01*
X111308182Y-73215954D01*
X111307914Y-73231558D01*
X111307672Y-73249845D01*
X111307453Y-73271039D01*
X111307257Y-73295361D01*
X111307082Y-73323034D01*
X111306927Y-73354279D01*
X111306791Y-73389320D01*
X111306672Y-73428377D01*
X111306570Y-73471674D01*
X111306484Y-73519433D01*
X111306411Y-73571876D01*
X111306352Y-73629226D01*
X111306304Y-73691703D01*
X111306267Y-73759532D01*
X111306240Y-73832934D01*
X111306220Y-73912131D01*
X111306208Y-73997345D01*
X111306201Y-74088800D01*
X111306199Y-74186716D01*
X111306199Y-74227778D01*
X111306201Y-74328052D01*
X111306205Y-74421775D01*
X111306213Y-74509173D01*
X111306225Y-74590467D01*
X111306244Y-74665883D01*
X111306271Y-74735644D01*
X111306306Y-74799972D01*
X111306352Y-74859092D01*
X111306409Y-74913228D01*
X111306480Y-74962603D01*
X111306565Y-75007440D01*
X111306666Y-75047963D01*
X111306784Y-75084396D01*
X111306920Y-75116962D01*
X111307076Y-75145886D01*
X111307254Y-75171389D01*
X111307454Y-75193697D01*
X111307678Y-75213032D01*
X111307927Y-75229618D01*
X111308204Y-75243680D01*
X111308508Y-75255439D01*
X111308841Y-75265121D01*
X111309205Y-75272948D01*
X111309601Y-75279144D01*
X111310031Y-75283933D01*
X111310496Y-75287538D01*
X111310996Y-75290184D01*
X111311535Y-75292092D01*
X111312112Y-75293488D01*
X111312684Y-75294521D01*
X111319730Y-75303566D01*
X111329006Y-75312565D01*
X111331145Y-75314280D01*
X111336361Y-75318152D01*
X111341436Y-75321451D01*
X111346933Y-75324220D01*
X111353416Y-75326505D01*
X111361447Y-75328351D01*
X111371590Y-75329802D01*
X111384408Y-75330903D01*
X111400463Y-75331700D01*
X111420318Y-75332238D01*
X111444537Y-75332560D01*
X111473682Y-75332713D01*
X111508317Y-75332741D01*
X111549005Y-75332689D01*
X111561571Y-75332667D01*
X111596802Y-75332557D01*
X111630226Y-75332369D01*
X111661188Y-75332111D01*
X111689031Y-75331793D01*
X111713100Y-75331424D01*
X111732739Y-75331014D01*
X111747292Y-75330572D01*
X111756102Y-75330107D01*
X111758306Y-75329835D01*
X111770765Y-75325578D01*
X111783978Y-75319216D01*
X111795310Y-75312149D01*
X111801078Y-75307127D01*
X111806493Y-75299650D01*
X111811940Y-75290285D01*
X111812085Y-75290001D01*
X111812609Y-75288586D01*
X111813099Y-75286330D01*
X111813556Y-75283015D01*
X111813981Y-75278418D01*
X111814375Y-75272318D01*
X111814739Y-75264494D01*
X111815074Y-75254725D01*
X111815382Y-75242789D01*
X111815664Y-75228466D01*
X111815920Y-75211534D01*
X111816153Y-75191772D01*
X111816362Y-75168959D01*
X111816549Y-75142873D01*
X111816716Y-75113294D01*
X111816862Y-75080000D01*
X111816991Y-75042770D01*
X111817102Y-75001382D01*
X111817197Y-74955616D01*
X111817276Y-74905251D01*
X111817342Y-74850064D01*
X111817394Y-74789836D01*
X111817435Y-74724344D01*
X111817466Y-74653368D01*
X111817487Y-74576686D01*
X111817499Y-74494077D01*
X111817504Y-74405321D01*
X111817503Y-74310195D01*
X111817499Y-74226588D01*
X111817491Y-74126421D01*
X111817480Y-74032804D01*
X111817466Y-73945511D01*
X111817446Y-73864318D01*
X111817421Y-73789001D01*
X111817387Y-73719336D01*
X111817345Y-73655098D01*
X111817292Y-73596062D01*
X111817227Y-73542006D01*
X111817149Y-73492703D01*
X111817057Y-73447930D01*
X111816949Y-73407463D01*
X111816825Y-73371077D01*
X111816682Y-73338548D01*
X111816519Y-73309651D01*
X111816335Y-73284162D01*
X111816129Y-73261856D01*
X111815900Y-73242510D01*
X111815645Y-73225899D01*
X111815365Y-73211799D01*
X111815056Y-73199985D01*
X111814719Y-73190233D01*
X111814352Y-73182318D01*
X111813953Y-73176017D01*
X111813521Y-73171104D01*
X111813055Y-73167356D01*
X111812553Y-73164548D01*
X111812015Y-73162456D01*
X111811438Y-73160856D01*
X111811211Y-73160335D01*
X111802482Y-73146754D01*
X111789649Y-73133466D01*
X111774911Y-73122383D01*
X111760465Y-73115420D01*
X111759187Y-73115042D01*
X111753603Y-73114111D01*
X111743951Y-73113345D01*
X111729873Y-73112740D01*
X111711014Y-73112288D01*
X111687017Y-73111986D01*
X111657526Y-73111829D01*
X111622183Y-73111810D01*
X111580633Y-73111925D01*
G36*
X116758928Y-73111924D02*
G01*
X116731357Y-73112052D01*
X116539741Y-73113053D01*
X116523504Y-73123213D01*
X116511812Y-73132115D01*
X116500738Y-73143063D01*
X116496680Y-73148100D01*
X116486093Y-73162826D01*
X116485210Y-74221673D01*
X116485127Y-74328775D01*
X116485063Y-74429261D01*
X116485019Y-74523285D01*
X116484994Y-74611005D01*
X116484989Y-74692577D01*
X116485005Y-74768157D01*
X116485042Y-74837901D01*
X116485101Y-74901965D01*
X116485182Y-74960506D01*
X116485285Y-75013681D01*
X116485410Y-75061645D01*
X116485559Y-75104554D01*
X116485732Y-75142565D01*
X116485929Y-75175834D01*
X116486151Y-75204518D01*
X116486397Y-75228772D01*
X116486670Y-75248753D01*
X116486968Y-75264617D01*
X116487292Y-75276521D01*
X116487643Y-75284621D01*
X116488022Y-75289072D01*
X116488217Y-75289969D01*
X116493077Y-75297693D01*
X116501082Y-75306750D01*
X116505886Y-75311212D01*
X116511224Y-75315693D01*
X116516330Y-75319514D01*
X116521764Y-75322727D01*
X116528086Y-75325381D01*
X116535857Y-75327528D01*
X116545636Y-75329219D01*
X116557984Y-75330504D01*
X116573460Y-75331436D01*
X116592625Y-75332064D01*
X116616039Y-75332440D01*
X116644262Y-75332615D01*
X116677853Y-75332640D01*
X116717375Y-75332565D01*
X116739861Y-75332506D01*
X116775037Y-75332386D01*
X116808369Y-75332226D01*
X116839206Y-75332033D01*
X116866897Y-75331812D01*
X116890793Y-75331569D01*
X116910242Y-75331312D01*
X116924593Y-75331046D01*
X116933197Y-75330778D01*
X116935291Y-75330624D01*
X116949535Y-75325961D01*
X116964565Y-75317136D01*
X116977990Y-75305873D01*
X116987424Y-75293892D01*
X116988166Y-75292502D01*
X116995786Y-75277391D01*
X116995712Y-74225702D01*
X116995704Y-74125579D01*
X116995693Y-74032005D01*
X116995679Y-73944755D01*
X116995660Y-73863605D01*
X116995634Y-73788331D01*
X116995600Y-73718708D01*
X116995558Y-73654511D01*
X116995505Y-73595517D01*
X116995440Y-73541500D01*
X116995362Y-73492236D01*
X116995270Y-73447502D01*
X116995162Y-73407072D01*
X116995037Y-73370721D01*
X116994894Y-73338227D01*
X116994731Y-73309363D01*
X116994547Y-73283906D01*
X116994341Y-73261631D01*
X116994111Y-73242314D01*
X116993856Y-73225729D01*
X116993575Y-73211654D01*
X116993267Y-73199863D01*
X116992929Y-73190132D01*
X116992561Y-73182237D01*
X116992162Y-73175952D01*
X116991729Y-73171054D01*
X116991263Y-73167318D01*
X116990760Y-73164519D01*
X116990221Y-73162434D01*
X116989644Y-73160838D01*
X116989425Y-73160335D01*
X116980695Y-73146754D01*
X116967863Y-73133466D01*
X116953125Y-73122383D01*
X116938678Y-73115420D01*
X116937401Y-73115042D01*
X116931820Y-73114112D01*
X116922173Y-73113347D01*
X116908102Y-73112741D01*
X116889252Y-73112289D01*
X116865266Y-73111987D01*
X116835788Y-73111829D01*
X116800461Y-73111810D01*
X116758928Y-73111924D01*
G37*
X116758928Y-73111924D02*
X116731357Y-73112052D01*
X116539741Y-73113053D01*
X116523504Y-73123213D01*
X116511812Y-73132115D01*
X116500738Y-73143063D01*
X116496680Y-73148100D01*
X116486093Y-73162826D01*
X116485210Y-74221673D01*
X116485127Y-74328775D01*
X116485063Y-74429261D01*
X116485019Y-74523285D01*
X116484994Y-74611005D01*
X116484989Y-74692577D01*
X116485005Y-74768157D01*
X116485042Y-74837901D01*
X116485101Y-74901965D01*
X116485182Y-74960506D01*
X116485285Y-75013681D01*
X116485410Y-75061645D01*
X116485559Y-75104554D01*
X116485732Y-75142565D01*
X116485929Y-75175834D01*
X116486151Y-75204518D01*
X116486397Y-75228772D01*
X116486670Y-75248753D01*
X116486968Y-75264617D01*
X116487292Y-75276521D01*
X116487643Y-75284621D01*
X116488022Y-75289072D01*
X116488217Y-75289969D01*
X116493077Y-75297693D01*
X116501082Y-75306750D01*
X116505886Y-75311212D01*
X116511224Y-75315693D01*
X116516330Y-75319514D01*
X116521764Y-75322727D01*
X116528086Y-75325381D01*
X116535857Y-75327528D01*
X116545636Y-75329219D01*
X116557984Y-75330504D01*
X116573460Y-75331436D01*
X116592625Y-75332064D01*
X116616039Y-75332440D01*
X116644262Y-75332615D01*
X116677853Y-75332640D01*
X116717375Y-75332565D01*
X116739861Y-75332506D01*
X116775037Y-75332386D01*
X116808369Y-75332226D01*
X116839206Y-75332033D01*
X116866897Y-75331812D01*
X116890793Y-75331569D01*
X116910242Y-75331312D01*
X116924593Y-75331046D01*
X116933197Y-75330778D01*
X116935291Y-75330624D01*
X116949535Y-75325961D01*
X116964565Y-75317136D01*
X116977990Y-75305873D01*
X116987424Y-75293892D01*
X116988166Y-75292502D01*
X116995786Y-75277391D01*
X116995712Y-74225702D01*
X116995704Y-74125579D01*
X116995693Y-74032005D01*
X116995679Y-73944755D01*
X116995660Y-73863605D01*
X116995634Y-73788331D01*
X116995600Y-73718708D01*
X116995558Y-73654511D01*
X116995505Y-73595517D01*
X116995440Y-73541500D01*
X116995362Y-73492236D01*
X116995270Y-73447502D01*
X116995162Y-73407072D01*
X116995037Y-73370721D01*
X116994894Y-73338227D01*
X116994731Y-73309363D01*
X116994547Y-73283906D01*
X116994341Y-73261631D01*
X116994111Y-73242314D01*
X116993856Y-73225729D01*
X116993575Y-73211654D01*
X116993267Y-73199863D01*
X116992929Y-73190132D01*
X116992561Y-73182237D01*
X116992162Y-73175952D01*
X116991729Y-73171054D01*
X116991263Y-73167318D01*
X116990760Y-73164519D01*
X116990221Y-73162434D01*
X116989644Y-73160838D01*
X116989425Y-73160335D01*
X116980695Y-73146754D01*
X116967863Y-73133466D01*
X116953125Y-73122383D01*
X116938678Y-73115420D01*
X116937401Y-73115042D01*
X116931820Y-73114112D01*
X116922173Y-73113347D01*
X116908102Y-73112741D01*
X116889252Y-73112289D01*
X116865266Y-73111987D01*
X116835788Y-73111829D01*
X116800461Y-73111810D01*
X116758928Y-73111924D01*
G36*
X106638462Y-73111762D02*
G01*
X106611767Y-73111946D01*
X106589653Y-73112363D01*
X106571569Y-73113067D01*
X106556968Y-73114109D01*
X106545302Y-73115541D01*
X106536022Y-73117414D01*
X106528580Y-73119781D01*
X106522426Y-73122693D01*
X106517014Y-73126202D01*
X106511794Y-73130359D01*
X106506218Y-73135218D01*
X106506138Y-73135289D01*
X106490346Y-73149189D01*
X106490346Y-74086720D01*
X106163340Y-74086720D01*
X106101395Y-74086751D01*
X106046071Y-74086848D01*
X105997211Y-74087010D01*
X105954663Y-74087240D01*
X105918273Y-74087539D01*
X105887887Y-74087909D01*
X105863351Y-74088353D01*
X105844511Y-74088870D01*
X105831213Y-74089464D01*
X105823304Y-74090136D01*
X105821484Y-74090459D01*
X105807231Y-74096398D01*
X105792984Y-74106194D01*
X105780974Y-74118027D01*
X105773626Y-74129585D01*
X105772042Y-74136915D01*
X105770759Y-74149828D01*
X105769776Y-74167156D01*
X105769092Y-74187733D01*
X105768709Y-74210391D01*
X105768625Y-74233963D01*
X105768840Y-74257282D01*
X105769355Y-74279180D01*
X105770169Y-74298490D01*
X105771282Y-74314045D01*
X105772694Y-74324677D01*
X105773649Y-74328129D01*
X105783261Y-74342929D01*
X105797962Y-74355866D01*
X105811320Y-74363400D01*
X105813858Y-74364408D01*
X105817008Y-74365302D01*
X105821176Y-74366089D01*
X105826772Y-74366779D01*
X105834203Y-74367379D01*
X105843878Y-74367898D01*
X105856205Y-74368344D01*
X105871592Y-74368725D01*
X105890447Y-74369049D01*
X105913179Y-74369326D01*
X105940196Y-74369562D01*
X105971907Y-74369766D01*
X106008718Y-74369947D01*
X106051040Y-74370113D01*
X106099279Y-74370272D01*
X106153845Y-74370433D01*
X106159391Y-74370448D01*
X106493916Y-74371390D01*
X106492838Y-74961422D01*
X106492691Y-75037629D01*
X106492539Y-75107340D01*
X106492380Y-75170832D01*
X106492212Y-75228383D01*
X106492030Y-75280270D01*
X106491834Y-75326769D01*
X106491620Y-75368159D01*
X106491385Y-75404717D01*
X106491128Y-75436720D01*
X106490845Y-75464445D01*
X106490534Y-75488170D01*
X106490192Y-75508172D01*
X106489817Y-75524728D01*
X106489405Y-75538115D01*
X106488955Y-75548611D01*
X106488464Y-75556493D01*
X106487929Y-75562038D01*
X106487348Y-75565524D01*
X106487153Y-75566247D01*
X106478539Y-75583490D01*
X106465211Y-75597151D01*
X106448584Y-75605861D01*
X106445207Y-75606834D01*
X106439828Y-75607589D01*
X106429889Y-75608255D01*
X106415157Y-75608836D01*
X106395394Y-75609333D01*
X106370366Y-75609751D01*
X106339837Y-75610093D01*
X106303571Y-75610360D01*
X106261333Y-75610557D01*
X106212888Y-75610685D01*
X106157999Y-75610749D01*
X106134093Y-75610757D01*
X106089636Y-75610786D01*
X106046917Y-75610861D01*
X106006450Y-75610977D01*
X105968748Y-75611130D01*
X105934325Y-75611319D01*
X105903694Y-75611537D01*
X105877369Y-75611783D01*
X105855864Y-75612053D01*
X105839692Y-75612342D01*
X105829366Y-75612648D01*
X105825652Y-75612904D01*
X105808586Y-75618196D01*
X105792027Y-75627594D01*
X105778147Y-75639607D01*
X105769833Y-75651231D01*
X105767489Y-75656165D01*
X105765682Y-75661127D01*
X105764342Y-75667039D01*
X105763400Y-75674825D01*
X105762786Y-75685406D01*
X105762430Y-75699705D01*
X105762263Y-75718644D01*
X105762215Y-75743145D01*
X105762213Y-75752093D01*
X105762310Y-75780932D01*
X105762623Y-75803716D01*
X105763187Y-75821162D01*
X105764036Y-75833986D01*
X105765204Y-75842905D01*
X105766727Y-75848635D01*
X105766870Y-75848988D01*
X105775881Y-75864294D01*
X105789051Y-75879067D01*
X105804056Y-75890804D01*
X105807613Y-75892859D01*
X105821480Y-75900280D01*
X106160146Y-75900630D01*
X106208819Y-75900654D01*
X106256506Y-75900628D01*
X106302652Y-75900556D01*
X106346702Y-75900439D01*
X106388098Y-75900280D01*
X106426286Y-75900084D01*
X106460708Y-75899853D01*
X106490808Y-75899589D01*
X106516031Y-75899297D01*
X106535821Y-75898978D01*
X106549620Y-75898637D01*
X106553409Y-75898491D01*
X106620172Y-75894319D01*
X106680616Y-75888149D01*
X106734908Y-75879931D01*
X106783217Y-75869612D01*
X106825710Y-75857143D01*
X106862557Y-75842472D01*
X106893924Y-75825549D01*
X106919981Y-75806322D01*
X106940894Y-75784741D01*
X106944512Y-75780089D01*
X106959852Y-75757064D01*
X106971792Y-75733059D01*
X106980797Y-75706687D01*
X106987338Y-75676560D01*
X106991882Y-75641292D01*
X106992082Y-75639188D01*
X106992641Y-75629911D01*
X106993172Y-75614298D01*
X106993675Y-75592314D01*
X106994151Y-75563922D01*
X106994601Y-75529088D01*
X106995023Y-75487776D01*
X106995419Y-75439950D01*
X106995789Y-75385575D01*
X106996133Y-75324616D01*
X106996452Y-75257037D01*
X106996745Y-75182802D01*
X106997013Y-75101875D01*
X106997257Y-75014223D01*
X106997329Y-74985092D01*
X106998802Y-74371318D01*
X107177221Y-74369550D01*
X107214036Y-74369222D01*
X107256821Y-74368905D01*
X107305138Y-74368600D01*
X107358548Y-74368308D01*
X107416611Y-74368028D01*
X107478890Y-74367762D01*
X107544944Y-74367510D01*
X107614335Y-74367273D01*
X107686625Y-74367052D01*
X107761374Y-74366846D01*
X107838144Y-74366657D01*
X107916496Y-74366484D01*
X107995990Y-74366330D01*
X108076189Y-74366194D01*
X108156653Y-74366077D01*
X108236943Y-74365979D01*
X108316620Y-74365901D01*
X108395246Y-74365844D01*
X108472382Y-74365808D01*
X108547589Y-74365794D01*
X108620427Y-74365802D01*
X108690459Y-74365834D01*
X108757245Y-74365888D01*
X108820346Y-74365967D01*
X108879324Y-74366071D01*
X108933740Y-74366200D01*
X108983155Y-74366355D01*
X109027129Y-74366536D01*
X109065225Y-74366744D01*
X109097003Y-74366980D01*
X109098080Y-74366990D01*
X109148398Y-74367441D01*
X109192392Y-74367849D01*
X109230510Y-74368229D01*
X109263202Y-74368595D01*
X109290915Y-74368962D01*
X109314100Y-74369344D01*
X109333204Y-74369757D01*
X109348677Y-74370214D01*
X109360966Y-74370730D01*
X109370522Y-74371320D01*
X109377793Y-74371998D01*
X109383227Y-74372779D01*
X109387273Y-74373677D01*
X109390381Y-74374707D01*
X109392999Y-74375884D01*
X109394413Y-74376610D01*
X109408394Y-74387338D01*
X109418798Y-74403223D01*
X109424226Y-74417892D01*
X109424821Y-74422962D01*
X109425387Y-74434021D01*
X109425926Y-74451137D01*
X109426439Y-74474381D01*
X109426927Y-74503822D01*
X109427390Y-74539530D01*
X109427829Y-74581576D01*
X109428245Y-74630030D01*
X109428638Y-74684960D01*
X109429010Y-74746437D01*
X109429361Y-74814532D01*
X109429693Y-74889313D01*
X109429768Y-74907987D01*
X109431666Y-75385507D01*
X109439368Y-75396304D01*
X109446667Y-75403693D01*
X109457532Y-75411576D01*
X109466462Y-75416624D01*
X109485853Y-75426147D01*
X109878706Y-75426147D01*
X109895640Y-75417441D01*
X109910754Y-75407149D01*
X109922733Y-75394290D01*
X109932893Y-75379845D01*
X109933896Y-74962729D01*
X109934043Y-74893774D01*
X109934133Y-74831221D01*
X109934158Y-74774697D01*
X109934111Y-74723830D01*
X109933984Y-74678249D01*
X109933769Y-74637580D01*
X109933460Y-74601454D01*
X109933048Y-74569496D01*
X109932526Y-74541336D01*
X109931888Y-74516602D01*
X109931124Y-74494921D01*
X109930229Y-74475921D01*
X109929194Y-74459231D01*
X109928011Y-74444479D01*
X109926675Y-74431292D01*
X109925176Y-74419299D01*
X109923508Y-74408128D01*
X109922659Y-74403033D01*
X109911540Y-74352507D01*
X109896419Y-74307342D01*
X109877204Y-74267369D01*
X109853804Y-74232417D01*
X109826128Y-74202317D01*
X109805475Y-74185027D01*
X109776917Y-74165514D01*
X109746244Y-74148633D01*
X109712708Y-74134136D01*
X109675559Y-74121777D01*
X109634047Y-74111311D01*
X109587424Y-74102491D01*
X109534939Y-74095071D01*
X109529880Y-74094461D01*
X109524777Y-74093886D01*
X109519305Y-74093348D01*
X109513233Y-74092846D01*
X109506330Y-74092379D01*
X109498363Y-74091947D01*
X109489102Y-74091546D01*
X109478316Y-74091177D01*
X109465772Y-74090838D01*
X109451239Y-74090528D01*
X109434486Y-74090245D01*
X109415281Y-74089988D01*
X109393394Y-74089757D01*
X109368592Y-74089549D01*
X109340645Y-74089363D01*
X109309320Y-74089199D01*
X109274387Y-74089054D01*
X109235613Y-74088928D01*
X109192768Y-74088820D01*
X109145620Y-74088728D01*
X109093938Y-74088650D01*
X109037490Y-74088586D01*
X108976045Y-74088535D01*
X108909371Y-74088494D01*
X108837238Y-74088464D01*
X108759413Y-74088441D01*
X108675665Y-74088427D01*
X108585762Y-74088418D01*
X108489475Y-74088414D01*
X108420746Y-74088413D01*
X108334285Y-74088410D01*
X108248496Y-74088402D01*
X108163697Y-74088389D01*
X108080209Y-74088370D01*
X107998349Y-74088347D01*
X107918436Y-74088320D01*
X107840790Y-74088288D01*
X107765727Y-74088251D01*
X107693568Y-74088211D01*
X107624631Y-74088168D01*
X107559235Y-74088121D01*
X107497698Y-74088070D01*
X107440339Y-74088017D01*
X107387477Y-74087961D01*
X107339431Y-74087902D01*
X107296519Y-74087841D01*
X107259059Y-74087777D01*
X107227371Y-74087712D01*
X107201774Y-74087645D01*
X107182585Y-74087576D01*
X107180380Y-74087567D01*
X106998346Y-74086720D01*
X106998346Y-73627718D01*
X106998340Y-73562046D01*
X106998319Y-73502810D01*
X106998278Y-73449675D01*
X106998215Y-73402302D01*
X106998125Y-73360355D01*
X106998005Y-73323498D01*
X106997851Y-73291394D01*
X106997660Y-73263706D01*
X106997427Y-73240096D01*
X106997149Y-73220229D01*
X106996821Y-73203768D01*
X106996442Y-73190375D01*
X106996006Y-73179715D01*
X106995509Y-73171450D01*
X106994949Y-73165243D01*
X106994321Y-73160758D01*
X106993622Y-73157658D01*
X106993105Y-73156171D01*
X106983329Y-73139371D01*
X106969047Y-73126220D01*
X106959400Y-73120344D01*
X106956395Y-73118799D01*
X106953210Y-73117486D01*
X106949293Y-73116383D01*
X106944091Y-73115469D01*
X106937050Y-73114720D01*
X106927618Y-73114116D01*
X106915241Y-73113634D01*
X106899368Y-73113253D01*
X106879445Y-73112950D01*
X106854920Y-73112703D01*
X106825238Y-73112491D01*
X106789849Y-73112292D01*
X106751507Y-73112100D01*
X106707783Y-73111891D01*
X106670284Y-73111761D01*
X106638462Y-73111762D01*
G37*
X106638462Y-73111762D02*
X106611767Y-73111946D01*
X106589653Y-73112363D01*
X106571569Y-73113067D01*
X106556968Y-73114109D01*
X106545302Y-73115541D01*
X106536022Y-73117414D01*
X106528580Y-73119781D01*
X106522426Y-73122693D01*
X106517014Y-73126202D01*
X106511794Y-73130359D01*
X106506218Y-73135218D01*
X106506138Y-73135289D01*
X106490346Y-73149189D01*
X106490346Y-74086720D01*
X106163340Y-74086720D01*
X106101395Y-74086751D01*
X106046071Y-74086848D01*
X105997211Y-74087010D01*
X105954663Y-74087240D01*
X105918273Y-74087539D01*
X105887887Y-74087909D01*
X105863351Y-74088353D01*
X105844511Y-74088870D01*
X105831213Y-74089464D01*
X105823304Y-74090136D01*
X105821484Y-74090459D01*
X105807231Y-74096398D01*
X105792984Y-74106194D01*
X105780974Y-74118027D01*
X105773626Y-74129585D01*
X105772042Y-74136915D01*
X105770759Y-74149828D01*
X105769776Y-74167156D01*
X105769092Y-74187733D01*
X105768709Y-74210391D01*
X105768625Y-74233963D01*
X105768840Y-74257282D01*
X105769355Y-74279180D01*
X105770169Y-74298490D01*
X105771282Y-74314045D01*
X105772694Y-74324677D01*
X105773649Y-74328129D01*
X105783261Y-74342929D01*
X105797962Y-74355866D01*
X105811320Y-74363400D01*
X105813858Y-74364408D01*
X105817008Y-74365302D01*
X105821176Y-74366089D01*
X105826772Y-74366779D01*
X105834203Y-74367379D01*
X105843878Y-74367898D01*
X105856205Y-74368344D01*
X105871592Y-74368725D01*
X105890447Y-74369049D01*
X105913179Y-74369326D01*
X105940196Y-74369562D01*
X105971907Y-74369766D01*
X106008718Y-74369947D01*
X106051040Y-74370113D01*
X106099279Y-74370272D01*
X106153845Y-74370433D01*
X106159391Y-74370448D01*
X106493916Y-74371390D01*
X106492838Y-74961422D01*
X106492691Y-75037629D01*
X106492539Y-75107340D01*
X106492380Y-75170832D01*
X106492212Y-75228383D01*
X106492030Y-75280270D01*
X106491834Y-75326769D01*
X106491620Y-75368159D01*
X106491385Y-75404717D01*
X106491128Y-75436720D01*
X106490845Y-75464445D01*
X106490534Y-75488170D01*
X106490192Y-75508172D01*
X106489817Y-75524728D01*
X106489405Y-75538115D01*
X106488955Y-75548611D01*
X106488464Y-75556493D01*
X106487929Y-75562038D01*
X106487348Y-75565524D01*
X106487153Y-75566247D01*
X106478539Y-75583490D01*
X106465211Y-75597151D01*
X106448584Y-75605861D01*
X106445207Y-75606834D01*
X106439828Y-75607589D01*
X106429889Y-75608255D01*
X106415157Y-75608836D01*
X106395394Y-75609333D01*
X106370366Y-75609751D01*
X106339837Y-75610093D01*
X106303571Y-75610360D01*
X106261333Y-75610557D01*
X106212888Y-75610685D01*
X106157999Y-75610749D01*
X106134093Y-75610757D01*
X106089636Y-75610786D01*
X106046917Y-75610861D01*
X106006450Y-75610977D01*
X105968748Y-75611130D01*
X105934325Y-75611319D01*
X105903694Y-75611537D01*
X105877369Y-75611783D01*
X105855864Y-75612053D01*
X105839692Y-75612342D01*
X105829366Y-75612648D01*
X105825652Y-75612904D01*
X105808586Y-75618196D01*
X105792027Y-75627594D01*
X105778147Y-75639607D01*
X105769833Y-75651231D01*
X105767489Y-75656165D01*
X105765682Y-75661127D01*
X105764342Y-75667039D01*
X105763400Y-75674825D01*
X105762786Y-75685406D01*
X105762430Y-75699705D01*
X105762263Y-75718644D01*
X105762215Y-75743145D01*
X105762213Y-75752093D01*
X105762310Y-75780932D01*
X105762623Y-75803716D01*
X105763187Y-75821162D01*
X105764036Y-75833986D01*
X105765204Y-75842905D01*
X105766727Y-75848635D01*
X105766870Y-75848988D01*
X105775881Y-75864294D01*
X105789051Y-75879067D01*
X105804056Y-75890804D01*
X105807613Y-75892859D01*
X105821480Y-75900280D01*
X106160146Y-75900630D01*
X106208819Y-75900654D01*
X106256506Y-75900628D01*
X106302652Y-75900556D01*
X106346702Y-75900439D01*
X106388098Y-75900280D01*
X106426286Y-75900084D01*
X106460708Y-75899853D01*
X106490808Y-75899589D01*
X106516031Y-75899297D01*
X106535821Y-75898978D01*
X106549620Y-75898637D01*
X106553409Y-75898491D01*
X106620172Y-75894319D01*
X106680616Y-75888149D01*
X106734908Y-75879931D01*
X106783217Y-75869612D01*
X106825710Y-75857143D01*
X106862557Y-75842472D01*
X106893924Y-75825549D01*
X106919981Y-75806322D01*
X106940894Y-75784741D01*
X106944512Y-75780089D01*
X106959852Y-75757064D01*
X106971792Y-75733059D01*
X106980797Y-75706687D01*
X106987338Y-75676560D01*
X106991882Y-75641292D01*
X106992082Y-75639188D01*
X106992641Y-75629911D01*
X106993172Y-75614298D01*
X106993675Y-75592314D01*
X106994151Y-75563922D01*
X106994601Y-75529088D01*
X106995023Y-75487776D01*
X106995419Y-75439950D01*
X106995789Y-75385575D01*
X106996133Y-75324616D01*
X106996452Y-75257037D01*
X106996745Y-75182802D01*
X106997013Y-75101875D01*
X106997257Y-75014223D01*
X106997329Y-74985092D01*
X106998802Y-74371318D01*
X107177221Y-74369550D01*
X107214036Y-74369222D01*
X107256821Y-74368905D01*
X107305138Y-74368600D01*
X107358548Y-74368308D01*
X107416611Y-74368028D01*
X107478890Y-74367762D01*
X107544944Y-74367510D01*
X107614335Y-74367273D01*
X107686625Y-74367052D01*
X107761374Y-74366846D01*
X107838144Y-74366657D01*
X107916496Y-74366484D01*
X107995990Y-74366330D01*
X108076189Y-74366194D01*
X108156653Y-74366077D01*
X108236943Y-74365979D01*
X108316620Y-74365901D01*
X108395246Y-74365844D01*
X108472382Y-74365808D01*
X108547589Y-74365794D01*
X108620427Y-74365802D01*
X108690459Y-74365834D01*
X108757245Y-74365888D01*
X108820346Y-74365967D01*
X108879324Y-74366071D01*
X108933740Y-74366200D01*
X108983155Y-74366355D01*
X109027129Y-74366536D01*
X109065225Y-74366744D01*
X109097003Y-74366980D01*
X109098080Y-74366990D01*
X109148398Y-74367441D01*
X109192392Y-74367849D01*
X109230510Y-74368229D01*
X109263202Y-74368595D01*
X109290915Y-74368962D01*
X109314100Y-74369344D01*
X109333204Y-74369757D01*
X109348677Y-74370214D01*
X109360966Y-74370730D01*
X109370522Y-74371320D01*
X109377793Y-74371998D01*
X109383227Y-74372779D01*
X109387273Y-74373677D01*
X109390381Y-74374707D01*
X109392999Y-74375884D01*
X109394413Y-74376610D01*
X109408394Y-74387338D01*
X109418798Y-74403223D01*
X109424226Y-74417892D01*
X109424821Y-74422962D01*
X109425387Y-74434021D01*
X109425926Y-74451137D01*
X109426439Y-74474381D01*
X109426927Y-74503822D01*
X109427390Y-74539530D01*
X109427829Y-74581576D01*
X109428245Y-74630030D01*
X109428638Y-74684960D01*
X109429010Y-74746437D01*
X109429361Y-74814532D01*
X109429693Y-74889313D01*
X109429768Y-74907987D01*
X109431666Y-75385507D01*
X109439368Y-75396304D01*
X109446667Y-75403693D01*
X109457532Y-75411576D01*
X109466462Y-75416624D01*
X109485853Y-75426147D01*
X109878706Y-75426147D01*
X109895640Y-75417441D01*
X109910754Y-75407149D01*
X109922733Y-75394290D01*
X109932893Y-75379845D01*
X109933896Y-74962729D01*
X109934043Y-74893774D01*
X109934133Y-74831221D01*
X109934158Y-74774697D01*
X109934111Y-74723830D01*
X109933984Y-74678249D01*
X109933769Y-74637580D01*
X109933460Y-74601454D01*
X109933048Y-74569496D01*
X109932526Y-74541336D01*
X109931888Y-74516602D01*
X109931124Y-74494921D01*
X109930229Y-74475921D01*
X109929194Y-74459231D01*
X109928011Y-74444479D01*
X109926675Y-74431292D01*
X109925176Y-74419299D01*
X109923508Y-74408128D01*
X109922659Y-74403033D01*
X109911540Y-74352507D01*
X109896419Y-74307342D01*
X109877204Y-74267369D01*
X109853804Y-74232417D01*
X109826128Y-74202317D01*
X109805475Y-74185027D01*
X109776917Y-74165514D01*
X109746244Y-74148633D01*
X109712708Y-74134136D01*
X109675559Y-74121777D01*
X109634047Y-74111311D01*
X109587424Y-74102491D01*
X109534939Y-74095071D01*
X109529880Y-74094461D01*
X109524777Y-74093886D01*
X109519305Y-74093348D01*
X109513233Y-74092846D01*
X109506330Y-74092379D01*
X109498363Y-74091947D01*
X109489102Y-74091546D01*
X109478316Y-74091177D01*
X109465772Y-74090838D01*
X109451239Y-74090528D01*
X109434486Y-74090245D01*
X109415281Y-74089988D01*
X109393394Y-74089757D01*
X109368592Y-74089549D01*
X109340645Y-74089363D01*
X109309320Y-74089199D01*
X109274387Y-74089054D01*
X109235613Y-74088928D01*
X109192768Y-74088820D01*
X109145620Y-74088728D01*
X109093938Y-74088650D01*
X109037490Y-74088586D01*
X108976045Y-74088535D01*
X108909371Y-74088494D01*
X108837238Y-74088464D01*
X108759413Y-74088441D01*
X108675665Y-74088427D01*
X108585762Y-74088418D01*
X108489475Y-74088414D01*
X108420746Y-74088413D01*
X108334285Y-74088410D01*
X108248496Y-74088402D01*
X108163697Y-74088389D01*
X108080209Y-74088370D01*
X107998349Y-74088347D01*
X107918436Y-74088320D01*
X107840790Y-74088288D01*
X107765727Y-74088251D01*
X107693568Y-74088211D01*
X107624631Y-74088168D01*
X107559235Y-74088121D01*
X107497698Y-74088070D01*
X107440339Y-74088017D01*
X107387477Y-74087961D01*
X107339431Y-74087902D01*
X107296519Y-74087841D01*
X107259059Y-74087777D01*
X107227371Y-74087712D01*
X107201774Y-74087645D01*
X107182585Y-74087576D01*
X107180380Y-74087567D01*
X106998346Y-74086720D01*
X106998346Y-73627718D01*
X106998340Y-73562046D01*
X106998319Y-73502810D01*
X106998278Y-73449675D01*
X106998215Y-73402302D01*
X106998125Y-73360355D01*
X106998005Y-73323498D01*
X106997851Y-73291394D01*
X106997660Y-73263706D01*
X106997427Y-73240096D01*
X106997149Y-73220229D01*
X106996821Y-73203768D01*
X106996442Y-73190375D01*
X106996006Y-73179715D01*
X106995509Y-73171450D01*
X106994949Y-73165243D01*
X106994321Y-73160758D01*
X106993622Y-73157658D01*
X106993105Y-73156171D01*
X106983329Y-73139371D01*
X106969047Y-73126220D01*
X106959400Y-73120344D01*
X106956395Y-73118799D01*
X106953210Y-73117486D01*
X106949293Y-73116383D01*
X106944091Y-73115469D01*
X106937050Y-73114720D01*
X106927618Y-73114116D01*
X106915241Y-73113634D01*
X106899368Y-73113253D01*
X106879445Y-73112950D01*
X106854920Y-73112703D01*
X106825238Y-73112491D01*
X106789849Y-73112292D01*
X106751507Y-73112100D01*
X106707783Y-73111891D01*
X106670284Y-73111761D01*
X106638462Y-73111762D01*
G36*
X118087734Y-74087317D02*
G01*
X118040945Y-74087429D01*
X117988515Y-74087648D01*
X117930141Y-74087975D01*
X117865520Y-74088408D01*
X117813666Y-74088795D01*
X117420813Y-74091841D01*
X117406846Y-74099292D01*
X117392327Y-74109341D01*
X117380509Y-74121886D01*
X117373177Y-74134968D01*
X117372552Y-74136934D01*
X117371864Y-74142699D01*
X117371247Y-74154223D01*
X117370728Y-74170493D01*
X117370331Y-74190497D01*
X117370085Y-74213221D01*
X117370013Y-74234292D01*
X117370013Y-74322598D01*
X117379342Y-74336690D01*
X117392374Y-74350774D01*
X117406435Y-74359899D01*
X117424200Y-74369017D01*
X117813666Y-74368228D01*
X117875308Y-74368100D01*
X117930542Y-74367992D01*
X117979736Y-74367921D01*
X118023256Y-74367902D01*
X118061469Y-74367954D01*
X118094741Y-74368092D01*
X118123439Y-74368334D01*
X118147929Y-74368696D01*
X118168578Y-74369196D01*
X118185751Y-74369849D01*
X118199817Y-74370674D01*
X118211140Y-74371686D01*
X118220089Y-74372903D01*
X118227028Y-74374341D01*
X118232325Y-74376018D01*
X118236347Y-74377949D01*
X118239459Y-74380153D01*
X118242028Y-74382645D01*
X118244421Y-74385442D01*
X118246615Y-74388103D01*
X118248818Y-74390618D01*
X118250829Y-74392892D01*
X118252656Y-74395233D01*
X118254307Y-74397945D01*
X118255791Y-74401336D01*
X118257118Y-74405711D01*
X118258296Y-74411377D01*
X118259334Y-74418640D01*
X118260240Y-74427806D01*
X118261024Y-74439183D01*
X118261695Y-74453074D01*
X118262261Y-74469788D01*
X118262731Y-74489631D01*
X118263113Y-74512908D01*
X118263418Y-74539925D01*
X118263653Y-74570990D01*
X118263827Y-74606409D01*
X118263950Y-74646486D01*
X118264030Y-74691530D01*
X118264075Y-74741846D01*
X118264096Y-74797740D01*
X118264100Y-74859519D01*
X118264096Y-74927489D01*
X118264093Y-74994347D01*
X118264091Y-75067302D01*
X118264081Y-75133793D01*
X118264061Y-75194130D01*
X118264028Y-75248621D01*
X118263978Y-75297575D01*
X118263908Y-75341301D01*
X118263814Y-75380109D01*
X118263694Y-75414308D01*
X118263545Y-75444208D01*
X118263362Y-75470116D01*
X118263143Y-75492343D01*
X118262884Y-75511197D01*
X118262582Y-75526988D01*
X118262235Y-75540026D01*
X118261838Y-75550618D01*
X118261389Y-75559074D01*
X118260883Y-75565704D01*
X118260319Y-75570817D01*
X118259692Y-75574721D01*
X118259000Y-75577727D01*
X118258239Y-75580142D01*
X118257923Y-75580990D01*
X118248455Y-75597966D01*
X118234886Y-75609736D01*
X118216616Y-75616810D01*
X118214919Y-75617191D01*
X118210801Y-75617564D01*
X118201953Y-75617915D01*
X118188271Y-75618244D01*
X118169650Y-75618552D01*
X118145985Y-75618840D01*
X118117170Y-75619107D01*
X118083101Y-75619354D01*
X118043674Y-75619582D01*
X117998783Y-75619790D01*
X117948323Y-75619979D01*
X117892189Y-75620149D01*
X117830278Y-75620301D01*
X117762483Y-75620435D01*
X117688700Y-75620551D01*
X117608824Y-75620650D01*
X117522750Y-75620732D01*
X117430374Y-75620797D01*
X117331589Y-75620846D01*
X117226293Y-75620879D01*
X117114379Y-75620896D01*
X117057426Y-75620899D01*
X116943092Y-75620911D01*
X116834346Y-75620942D01*
X116731256Y-75620993D01*
X116633886Y-75621063D01*
X116542305Y-75621152D01*
X116456578Y-75621260D01*
X116376771Y-75621387D01*
X116302952Y-75621532D01*
X116235185Y-75621696D01*
X116173538Y-75621878D01*
X116118078Y-75622077D01*
X116068870Y-75622294D01*
X116025980Y-75622529D01*
X115989476Y-75622781D01*
X115959423Y-75623051D01*
X115935888Y-75623337D01*
X115918937Y-75623640D01*
X115908637Y-75623959D01*
X115905163Y-75624243D01*
X115887633Y-75631312D01*
X115871790Y-75641706D01*
X115859542Y-75653994D01*
X115854370Y-75662409D01*
X115852332Y-75667460D01*
X115850763Y-75673124D01*
X115849603Y-75680324D01*
X115848789Y-75689985D01*
X115848261Y-75703027D01*
X115847957Y-75720376D01*
X115847815Y-75742953D01*
X115847781Y-75761556D01*
X115847784Y-75787822D01*
X115847890Y-75808244D01*
X115848171Y-75823752D01*
X115848696Y-75835274D01*
X115849535Y-75843740D01*
X115850760Y-75850079D01*
X115852439Y-75855220D01*
X115854643Y-75860093D01*
X115855326Y-75861462D01*
X115865024Y-75874547D01*
X115879322Y-75886336D01*
X115896048Y-75895339D01*
X115911145Y-75899789D01*
X115915712Y-75899986D01*
X115926753Y-75900170D01*
X115943972Y-75900341D01*
X115967070Y-75900499D01*
X115995749Y-75900645D01*
X116029711Y-75900779D01*
X116068658Y-75900901D01*
X116112292Y-75901011D01*
X116160315Y-75901109D01*
X116212428Y-75901196D01*
X116268335Y-75901271D01*
X116327736Y-75901335D01*
X116390333Y-75901388D01*
X116455829Y-75901431D01*
X116523926Y-75901463D01*
X116594325Y-75901484D01*
X116666728Y-75901495D01*
X116740838Y-75901496D01*
X116816356Y-75901488D01*
X116892984Y-75901469D01*
X116970424Y-75901441D01*
X117048378Y-75901404D01*
X117126548Y-75901357D01*
X117204636Y-75901302D01*
X117282344Y-75901237D01*
X117359374Y-75901164D01*
X117435428Y-75901083D01*
X117510207Y-75900993D01*
X117583414Y-75900895D01*
X117654751Y-75900789D01*
X117723919Y-75900676D01*
X117790620Y-75900555D01*
X117854557Y-75900426D01*
X117915432Y-75900290D01*
X117972945Y-75900148D01*
X118026800Y-75899998D01*
X118076698Y-75899842D01*
X118122341Y-75899679D01*
X118163431Y-75899510D01*
X118199670Y-75899334D01*
X118230760Y-75899153D01*
X118256403Y-75898966D01*
X118276301Y-75898774D01*
X118290155Y-75898576D01*
X118297668Y-75898372D01*
X118297960Y-75898357D01*
X118363947Y-75893218D01*
X118423956Y-75885309D01*
X118478237Y-75874532D01*
X118527036Y-75860785D01*
X118570603Y-75843968D01*
X118609184Y-75823981D01*
X118643030Y-75800724D01*
X118672387Y-75774097D01*
X118697503Y-75743998D01*
X118704341Y-75734138D01*
X118721778Y-75704042D01*
X118736500Y-75670136D01*
X118748783Y-75631621D01*
X118758907Y-75587702D01*
X118762621Y-75567221D01*
X118763423Y-75562149D01*
X118764152Y-75556678D01*
X118764811Y-75550479D01*
X118765404Y-75543219D01*
X118765933Y-75534568D01*
X118766403Y-75524196D01*
X118766818Y-75511772D01*
X118767179Y-75496966D01*
X118767492Y-75479446D01*
X118767760Y-75458882D01*
X118767985Y-75434943D01*
X118768172Y-75407299D01*
X118768325Y-75375618D01*
X118768445Y-75339572D01*
X118768538Y-75298827D01*
X118768607Y-75253055D01*
X118768654Y-75201924D01*
X118768684Y-75145104D01*
X118768700Y-75082263D01*
X118768706Y-75013072D01*
X118768706Y-74454173D01*
X118760805Y-74410436D01*
X118750301Y-74362321D01*
X118737068Y-74319873D01*
X118720791Y-74282429D01*
X118701156Y-74249326D01*
X118677848Y-74219903D01*
X118662982Y-74204700D01*
X118635606Y-74181538D01*
X118604987Y-74161244D01*
X118570701Y-74143690D01*
X118532328Y-74128748D01*
X118489444Y-74116291D01*
X118441627Y-74106190D01*
X118388455Y-74098318D01*
X118329505Y-74092547D01*
X118282720Y-74089594D01*
X118266947Y-74088937D01*
X118247650Y-74088392D01*
X118224529Y-74087958D01*
X118197279Y-74087634D01*
X118165598Y-74087419D01*
X118129184Y-74087314D01*
X118087734Y-74087317D01*
G37*
X118087734Y-74087317D02*
X118040945Y-74087429D01*
X117988515Y-74087648D01*
X117930141Y-74087975D01*
X117865520Y-74088408D01*
X117813666Y-74088795D01*
X117420813Y-74091841D01*
X117406846Y-74099292D01*
X117392327Y-74109341D01*
X117380509Y-74121886D01*
X117373177Y-74134968D01*
X117372552Y-74136934D01*
X117371864Y-74142699D01*
X117371247Y-74154223D01*
X117370728Y-74170493D01*
X117370331Y-74190497D01*
X117370085Y-74213221D01*
X117370013Y-74234292D01*
X117370013Y-74322598D01*
X117379342Y-74336690D01*
X117392374Y-74350774D01*
X117406435Y-74359899D01*
X117424200Y-74369017D01*
X117813666Y-74368228D01*
X117875308Y-74368100D01*
X117930542Y-74367992D01*
X117979736Y-74367921D01*
X118023256Y-74367902D01*
X118061469Y-74367954D01*
X118094741Y-74368092D01*
X118123439Y-74368334D01*
X118147929Y-74368696D01*
X118168578Y-74369196D01*
X118185751Y-74369849D01*
X118199817Y-74370674D01*
X118211140Y-74371686D01*
X118220089Y-74372903D01*
X118227028Y-74374341D01*
X118232325Y-74376018D01*
X118236347Y-74377949D01*
X118239459Y-74380153D01*
X118242028Y-74382645D01*
X118244421Y-74385442D01*
X118246615Y-74388103D01*
X118248818Y-74390618D01*
X118250829Y-74392892D01*
X118252656Y-74395233D01*
X118254307Y-74397945D01*
X118255791Y-74401336D01*
X118257118Y-74405711D01*
X118258296Y-74411377D01*
X118259334Y-74418640D01*
X118260240Y-74427806D01*
X118261024Y-74439183D01*
X118261695Y-74453074D01*
X118262261Y-74469788D01*
X118262731Y-74489631D01*
X118263113Y-74512908D01*
X118263418Y-74539925D01*
X118263653Y-74570990D01*
X118263827Y-74606409D01*
X118263950Y-74646486D01*
X118264030Y-74691530D01*
X118264075Y-74741846D01*
X118264096Y-74797740D01*
X118264100Y-74859519D01*
X118264096Y-74927489D01*
X118264093Y-74994347D01*
X118264091Y-75067302D01*
X118264081Y-75133793D01*
X118264061Y-75194130D01*
X118264028Y-75248621D01*
X118263978Y-75297575D01*
X118263908Y-75341301D01*
X118263814Y-75380109D01*
X118263694Y-75414308D01*
X118263545Y-75444208D01*
X118263362Y-75470116D01*
X118263143Y-75492343D01*
X118262884Y-75511197D01*
X118262582Y-75526988D01*
X118262235Y-75540026D01*
X118261838Y-75550618D01*
X118261389Y-75559074D01*
X118260883Y-75565704D01*
X118260319Y-75570817D01*
X118259692Y-75574721D01*
X118259000Y-75577727D01*
X118258239Y-75580142D01*
X118257923Y-75580990D01*
X118248455Y-75597966D01*
X118234886Y-75609736D01*
X118216616Y-75616810D01*
X118214919Y-75617191D01*
X118210801Y-75617564D01*
X118201953Y-75617915D01*
X118188271Y-75618244D01*
X118169650Y-75618552D01*
X118145985Y-75618840D01*
X118117170Y-75619107D01*
X118083101Y-75619354D01*
X118043674Y-75619582D01*
X117998783Y-75619790D01*
X117948323Y-75619979D01*
X117892189Y-75620149D01*
X117830278Y-75620301D01*
X117762483Y-75620435D01*
X117688700Y-75620551D01*
X117608824Y-75620650D01*
X117522750Y-75620732D01*
X117430374Y-75620797D01*
X117331589Y-75620846D01*
X117226293Y-75620879D01*
X117114379Y-75620896D01*
X117057426Y-75620899D01*
X116943092Y-75620911D01*
X116834346Y-75620942D01*
X116731256Y-75620993D01*
X116633886Y-75621063D01*
X116542305Y-75621152D01*
X116456578Y-75621260D01*
X116376771Y-75621387D01*
X116302952Y-75621532D01*
X116235185Y-75621696D01*
X116173538Y-75621878D01*
X116118078Y-75622077D01*
X116068870Y-75622294D01*
X116025980Y-75622529D01*
X115989476Y-75622781D01*
X115959423Y-75623051D01*
X115935888Y-75623337D01*
X115918937Y-75623640D01*
X115908637Y-75623959D01*
X115905163Y-75624243D01*
X115887633Y-75631312D01*
X115871790Y-75641706D01*
X115859542Y-75653994D01*
X115854370Y-75662409D01*
X115852332Y-75667460D01*
X115850763Y-75673124D01*
X115849603Y-75680324D01*
X115848789Y-75689985D01*
X115848261Y-75703027D01*
X115847957Y-75720376D01*
X115847815Y-75742953D01*
X115847781Y-75761556D01*
X115847784Y-75787822D01*
X115847890Y-75808244D01*
X115848171Y-75823752D01*
X115848696Y-75835274D01*
X115849535Y-75843740D01*
X115850760Y-75850079D01*
X115852439Y-75855220D01*
X115854643Y-75860093D01*
X115855326Y-75861462D01*
X115865024Y-75874547D01*
X115879322Y-75886336D01*
X115896048Y-75895339D01*
X115911145Y-75899789D01*
X115915712Y-75899986D01*
X115926753Y-75900170D01*
X115943972Y-75900341D01*
X115967070Y-75900499D01*
X115995749Y-75900645D01*
X116029711Y-75900779D01*
X116068658Y-75900901D01*
X116112292Y-75901011D01*
X116160315Y-75901109D01*
X116212428Y-75901196D01*
X116268335Y-75901271D01*
X116327736Y-75901335D01*
X116390333Y-75901388D01*
X116455829Y-75901431D01*
X116523926Y-75901463D01*
X116594325Y-75901484D01*
X116666728Y-75901495D01*
X116740838Y-75901496D01*
X116816356Y-75901488D01*
X116892984Y-75901469D01*
X116970424Y-75901441D01*
X117048378Y-75901404D01*
X117126548Y-75901357D01*
X117204636Y-75901302D01*
X117282344Y-75901237D01*
X117359374Y-75901164D01*
X117435428Y-75901083D01*
X117510207Y-75900993D01*
X117583414Y-75900895D01*
X117654751Y-75900789D01*
X117723919Y-75900676D01*
X117790620Y-75900555D01*
X117854557Y-75900426D01*
X117915432Y-75900290D01*
X117972945Y-75900148D01*
X118026800Y-75899998D01*
X118076698Y-75899842D01*
X118122341Y-75899679D01*
X118163431Y-75899510D01*
X118199670Y-75899334D01*
X118230760Y-75899153D01*
X118256403Y-75898966D01*
X118276301Y-75898774D01*
X118290155Y-75898576D01*
X118297668Y-75898372D01*
X118297960Y-75898357D01*
X118363947Y-75893218D01*
X118423956Y-75885309D01*
X118478237Y-75874532D01*
X118527036Y-75860785D01*
X118570603Y-75843968D01*
X118609184Y-75823981D01*
X118643030Y-75800724D01*
X118672387Y-75774097D01*
X118697503Y-75743998D01*
X118704341Y-75734138D01*
X118721778Y-75704042D01*
X118736500Y-75670136D01*
X118748783Y-75631621D01*
X118758907Y-75587702D01*
X118762621Y-75567221D01*
X118763423Y-75562149D01*
X118764152Y-75556678D01*
X118764811Y-75550479D01*
X118765404Y-75543219D01*
X118765933Y-75534568D01*
X118766403Y-75524196D01*
X118766818Y-75511772D01*
X118767179Y-75496966D01*
X118767492Y-75479446D01*
X118767760Y-75458882D01*
X118767985Y-75434943D01*
X118768172Y-75407299D01*
X118768325Y-75375618D01*
X118768445Y-75339572D01*
X118768538Y-75298827D01*
X118768607Y-75253055D01*
X118768654Y-75201924D01*
X118768684Y-75145104D01*
X118768700Y-75082263D01*
X118768706Y-75013072D01*
X118768706Y-74454173D01*
X118760805Y-74410436D01*
X118750301Y-74362321D01*
X118737068Y-74319873D01*
X118720791Y-74282429D01*
X118701156Y-74249326D01*
X118677848Y-74219903D01*
X118662982Y-74204700D01*
X118635606Y-74181538D01*
X118604987Y-74161244D01*
X118570701Y-74143690D01*
X118532328Y-74128748D01*
X118489444Y-74116291D01*
X118441627Y-74106190D01*
X118388455Y-74098318D01*
X118329505Y-74092547D01*
X118282720Y-74089594D01*
X118266947Y-74088937D01*
X118247650Y-74088392D01*
X118224529Y-74087958D01*
X118197279Y-74087634D01*
X118165598Y-74087419D01*
X118129184Y-74087314D01*
X118087734Y-74087317D01*
G36*
X112889517Y-74089050D02*
G01*
X112838721Y-74089121D01*
X112782123Y-74089233D01*
X112719316Y-74089376D01*
X112693026Y-74089437D01*
X112631872Y-74089605D01*
X112574051Y-74089813D01*
X112519864Y-74090058D01*
X112469613Y-74090337D01*
X112423597Y-74090648D01*
X112382118Y-74090987D01*
X112345476Y-74091352D01*
X112313973Y-74091740D01*
X112287909Y-74092148D01*
X112267584Y-74092573D01*
X112253300Y-74093013D01*
X112245358Y-74093464D01*
X112243958Y-74093664D01*
X112225251Y-74101655D01*
X112208879Y-74114426D01*
X112201050Y-74123921D01*
X112198773Y-74127439D01*
X112196994Y-74130993D01*
X112195662Y-74135402D01*
X112194723Y-74141489D01*
X112194128Y-74150072D01*
X112193823Y-74161973D01*
X112193756Y-74178014D01*
X112193876Y-74199013D01*
X112194131Y-74225793D01*
X112194197Y-74232213D01*
X112194531Y-74262482D01*
X112194995Y-74286764D01*
X112195807Y-74305845D01*
X112197185Y-74320510D01*
X112199349Y-74331545D01*
X112202518Y-74339735D01*
X112206910Y-74345868D01*
X112212744Y-74350727D01*
X112220240Y-74355099D01*
X112229616Y-74359770D01*
X112229757Y-74359839D01*
X112248925Y-74369217D01*
X112636922Y-74368325D01*
X112698314Y-74368182D01*
X112753302Y-74368060D01*
X112802254Y-74367977D01*
X112845540Y-74367949D01*
X112883529Y-74367990D01*
X112916590Y-74368119D01*
X112945092Y-74368350D01*
X112969403Y-74368700D01*
X112989894Y-74369186D01*
X113006932Y-74369823D01*
X113020888Y-74370627D01*
X113032129Y-74371615D01*
X113041026Y-74372803D01*
X113047947Y-74374207D01*
X113053261Y-74375843D01*
X113057337Y-74377727D01*
X113060545Y-74379876D01*
X113063252Y-74382306D01*
X113065829Y-74385032D01*
X113067828Y-74387207D01*
X113070100Y-74389534D01*
X113072173Y-74391634D01*
X113074057Y-74393809D01*
X113075760Y-74396366D01*
X113077292Y-74399609D01*
X113078661Y-74403843D01*
X113079877Y-74409373D01*
X113080949Y-74416505D01*
X113081886Y-74425542D01*
X113082697Y-74436789D01*
X113083390Y-74450553D01*
X113083976Y-74467137D01*
X113084462Y-74486846D01*
X113084859Y-74509986D01*
X113085175Y-74536861D01*
X113085419Y-74567776D01*
X113085601Y-74603036D01*
X113085729Y-74642946D01*
X113085813Y-74687811D01*
X113085861Y-74737936D01*
X113085882Y-74793626D01*
X113085887Y-74855185D01*
X113085883Y-74922919D01*
X113085880Y-74994347D01*
X113085877Y-75067302D01*
X113085868Y-75133793D01*
X113085848Y-75194130D01*
X113085815Y-75248621D01*
X113085765Y-75297575D01*
X113085695Y-75341301D01*
X113085601Y-75380109D01*
X113085481Y-75414308D01*
X113085331Y-75444208D01*
X113085149Y-75470116D01*
X113084929Y-75492343D01*
X113084671Y-75511197D01*
X113084369Y-75526988D01*
X113084022Y-75540026D01*
X113083625Y-75550618D01*
X113083175Y-75559074D01*
X113082670Y-75565704D01*
X113082106Y-75570817D01*
X113081479Y-75574721D01*
X113080787Y-75577727D01*
X113080026Y-75580142D01*
X113079710Y-75580990D01*
X113070241Y-75597966D01*
X113056673Y-75609736D01*
X113038402Y-75616810D01*
X113036705Y-75617191D01*
X113032527Y-75617574D01*
X113023597Y-75617934D01*
X113009810Y-75618271D01*
X112991058Y-75618585D01*
X112967234Y-75618878D01*
X112938231Y-75619149D01*
X112903942Y-75619399D01*
X112864261Y-75619628D01*
X112819080Y-75619837D01*
X112768292Y-75620025D01*
X112711791Y-75620194D01*
X112649469Y-75620343D01*
X112581219Y-75620473D01*
X112506935Y-75620584D01*
X112426510Y-75620677D01*
X112339836Y-75620752D01*
X112246806Y-75620810D01*
X112147314Y-75620850D01*
X112041253Y-75620873D01*
X111939326Y-75620880D01*
X110859146Y-75620880D01*
X110859072Y-74886820D01*
X110859062Y-74803684D01*
X110859048Y-74727052D01*
X110859027Y-74656653D01*
X110858998Y-74592218D01*
X110858957Y-74533475D01*
X110858904Y-74480156D01*
X110858835Y-74431989D01*
X110858748Y-74388705D01*
X110858642Y-74350035D01*
X110858513Y-74315707D01*
X110858359Y-74285452D01*
X110858179Y-74258999D01*
X110857970Y-74236080D01*
X110857729Y-74216423D01*
X110857455Y-74199758D01*
X110857145Y-74185816D01*
X110856797Y-74174327D01*
X110856408Y-74165020D01*
X110855977Y-74157625D01*
X110855501Y-74151873D01*
X110854978Y-74147492D01*
X110854406Y-74144214D01*
X110853782Y-74141768D01*
X110853104Y-74139885D01*
X110852810Y-74139213D01*
X110844364Y-74125826D01*
X110832172Y-74112684D01*
X110818277Y-74101622D01*
X110804722Y-74094471D01*
X110801967Y-74093599D01*
X110795418Y-74092692D01*
X110783042Y-74091953D01*
X110764697Y-74091380D01*
X110740242Y-74090971D01*
X110709535Y-74090724D01*
X110672434Y-74090638D01*
X110628798Y-74090710D01*
X110595920Y-74090846D01*
X110403640Y-74091800D01*
X110387661Y-74101193D01*
X110376132Y-74109790D01*
X110364964Y-74120978D01*
X110360568Y-74126593D01*
X110349453Y-74142600D01*
X110348584Y-74876249D01*
X110347714Y-75609898D01*
X110052250Y-75612223D01*
X110020199Y-75612442D01*
X109981841Y-75612645D01*
X109937642Y-75612832D01*
X109888067Y-75613003D01*
X109833582Y-75613157D01*
X109774655Y-75613293D01*
X109711750Y-75613411D01*
X109645333Y-75613511D01*
X109575871Y-75613591D01*
X109503830Y-75613652D01*
X109429675Y-75613692D01*
X109353873Y-75613711D01*
X109276890Y-75613709D01*
X109199191Y-75613685D01*
X109121243Y-75613639D01*
X109043511Y-75613570D01*
X108969386Y-75613481D01*
X108181986Y-75612413D01*
X108167308Y-75604579D01*
X108155760Y-75596522D01*
X108147809Y-75585601D01*
X108145516Y-75580872D01*
X108144010Y-75577062D01*
X108142638Y-75572441D01*
X108141388Y-75566682D01*
X108140254Y-75559462D01*
X108139228Y-75550457D01*
X108138299Y-75539341D01*
X108137461Y-75525791D01*
X108136705Y-75509482D01*
X108136022Y-75490089D01*
X108135404Y-75467288D01*
X108134843Y-75440755D01*
X108134330Y-75410165D01*
X108133857Y-75375193D01*
X108133415Y-75335516D01*
X108132996Y-75290808D01*
X108132592Y-75240745D01*
X108132195Y-75185003D01*
X108131795Y-75123258D01*
X108131385Y-75055184D01*
X108131228Y-75028213D01*
X108130877Y-74966016D01*
X108130565Y-74910229D01*
X108130272Y-74860490D01*
X108129977Y-74816436D01*
X108129659Y-74777703D01*
X108129299Y-74743931D01*
X108128875Y-74714755D01*
X108128366Y-74689812D01*
X108127752Y-74668742D01*
X108127013Y-74651179D01*
X108126128Y-74636763D01*
X108125075Y-74625129D01*
X108123835Y-74615916D01*
X108122387Y-74608761D01*
X108120711Y-74603300D01*
X108118785Y-74599171D01*
X108116588Y-74596012D01*
X108114102Y-74593460D01*
X108111304Y-74591152D01*
X108108174Y-74588724D01*
X108106141Y-74587071D01*
X108101163Y-74583041D01*
X108096184Y-74579609D01*
X108090642Y-74576728D01*
X108083974Y-74574349D01*
X108075617Y-74572426D01*
X108065009Y-74570908D01*
X108051586Y-74569750D01*
X108034787Y-74568901D01*
X108014048Y-74568314D01*
X107988807Y-74567942D01*
X107958501Y-74567735D01*
X107922568Y-74567646D01*
X107880444Y-74567627D01*
X107878803Y-74567627D01*
X107836834Y-74567641D01*
X107801067Y-74567716D01*
X107770932Y-74567898D01*
X107745858Y-74568235D01*
X107725275Y-74568772D01*
X107708611Y-74569557D01*
X107695297Y-74570638D01*
X107684760Y-74572060D01*
X107676431Y-74573871D01*
X107669739Y-74576117D01*
X107664114Y-74578846D01*
X107658983Y-74582104D01*
X107653777Y-74585939D01*
X107653510Y-74586143D01*
X107649962Y-74588675D01*
X107646788Y-74590807D01*
X107643967Y-74592911D01*
X107641477Y-74595356D01*
X107639296Y-74598512D01*
X107637404Y-74602751D01*
X107635778Y-74608442D01*
X107634396Y-74615956D01*
X107633237Y-74625663D01*
X107632280Y-74637933D01*
X107631502Y-74653137D01*
X107630883Y-74671645D01*
X107630399Y-74693827D01*
X107630031Y-74720053D01*
X107629755Y-74750695D01*
X107629551Y-74786121D01*
X107629397Y-74826704D01*
X107629271Y-74872812D01*
X107629152Y-74924816D01*
X107629017Y-74983086D01*
X107628959Y-75006200D01*
X107628798Y-75077763D01*
X107628708Y-75142923D01*
X107628704Y-75202051D01*
X107628799Y-75255517D01*
X107629006Y-75303692D01*
X107629339Y-75346945D01*
X107629813Y-75385647D01*
X107630441Y-75420169D01*
X107631236Y-75450881D01*
X107632212Y-75478153D01*
X107633383Y-75502356D01*
X107634763Y-75523860D01*
X107636365Y-75543035D01*
X107638203Y-75560252D01*
X107640290Y-75575881D01*
X107642642Y-75590293D01*
X107645270Y-75603857D01*
X107648189Y-75616945D01*
X107651413Y-75629927D01*
X107652146Y-75632733D01*
X107666962Y-75677974D01*
X107686472Y-75718609D01*
X107710802Y-75754751D01*
X107740077Y-75786513D01*
X107774425Y-75814004D01*
X107813969Y-75837338D01*
X107858838Y-75856627D01*
X107909157Y-75871981D01*
X107926428Y-75876081D01*
X107960169Y-75882859D01*
X107995067Y-75888340D01*
X108032575Y-75892697D01*
X108074146Y-75896102D01*
X108113508Y-75898366D01*
X108122924Y-75898656D01*
X108138911Y-75898939D01*
X108161265Y-75899213D01*
X108189783Y-75899480D01*
X108224262Y-75899738D01*
X108264498Y-75899988D01*
X108310290Y-75900229D01*
X108361432Y-75900461D01*
X108417724Y-75900684D01*
X108478960Y-75900898D01*
X108544939Y-75901102D01*
X108615457Y-75901297D01*
X108690311Y-75901482D01*
X108769298Y-75901657D01*
X108852215Y-75901823D01*
X108938858Y-75901978D01*
X109029025Y-75902122D01*
X109122513Y-75902256D01*
X109219118Y-75902379D01*
X109318637Y-75902492D01*
X109420867Y-75902593D01*
X109525605Y-75902683D01*
X109632649Y-75902761D01*
X109741794Y-75902828D01*
X109852838Y-75902883D01*
X109965577Y-75902926D01*
X110079809Y-75902957D01*
X110195330Y-75902976D01*
X110311938Y-75902982D01*
X110429429Y-75902976D01*
X110547600Y-75902957D01*
X110666248Y-75902924D01*
X110785169Y-75902879D01*
X110904162Y-75902820D01*
X111023022Y-75902748D01*
X111141547Y-75902662D01*
X111259533Y-75902562D01*
X111376777Y-75902449D01*
X111493077Y-75902321D01*
X111608228Y-75902178D01*
X111722029Y-75902021D01*
X111834276Y-75901850D01*
X111944765Y-75901663D01*
X111964893Y-75901627D01*
X112053840Y-75901461D01*
X112141110Y-75901284D01*
X112226454Y-75901099D01*
X112309626Y-75900907D01*
X112390379Y-75900707D01*
X112468465Y-75900502D01*
X112543637Y-75900292D01*
X112615648Y-75900077D01*
X112684252Y-75899860D01*
X112749200Y-75899640D01*
X112810246Y-75899419D01*
X112867142Y-75899198D01*
X112919642Y-75898977D01*
X112967498Y-75898757D01*
X113010463Y-75898540D01*
X113048290Y-75898326D01*
X113080731Y-75898116D01*
X113107540Y-75897912D01*
X113128469Y-75897713D01*
X113143272Y-75897521D01*
X113151701Y-75897337D01*
X113153613Y-75897228D01*
X113162187Y-75895958D01*
X113175679Y-75894159D01*
X113192279Y-75892066D01*
X113210175Y-75889912D01*
X113211186Y-75889793D01*
X113270838Y-75880802D01*
X113324750Y-75868381D01*
X113373111Y-75852378D01*
X113416108Y-75832642D01*
X113453930Y-75809022D01*
X113486764Y-75781365D01*
X113514797Y-75749520D01*
X113538219Y-75713335D01*
X113557216Y-75672659D01*
X113571977Y-75627340D01*
X113580022Y-75592093D01*
X113581629Y-75583466D01*
X113583088Y-75574807D01*
X113584407Y-75565767D01*
X113585593Y-75555997D01*
X113586652Y-75545148D01*
X113587592Y-75532873D01*
X113588420Y-75518822D01*
X113589143Y-75502646D01*
X113589767Y-75483998D01*
X113590301Y-75462528D01*
X113590750Y-75437888D01*
X113591123Y-75409728D01*
X113591426Y-75377701D01*
X113591666Y-75341458D01*
X113591850Y-75300650D01*
X113591986Y-75254929D01*
X113592079Y-75203945D01*
X113592139Y-75147351D01*
X113592171Y-75084797D01*
X113592182Y-75015935D01*
X113592182Y-74991448D01*
X113592174Y-74921661D01*
X113592149Y-74858306D01*
X113592103Y-74801044D01*
X113592034Y-74749532D01*
X113591938Y-74703431D01*
X113591811Y-74662400D01*
X113591651Y-74626097D01*
X113591455Y-74594182D01*
X113591218Y-74566315D01*
X113590938Y-74542154D01*
X113590612Y-74521359D01*
X113590235Y-74503590D01*
X113589806Y-74488504D01*
X113589320Y-74475763D01*
X113588775Y-74465024D01*
X113588167Y-74455947D01*
X113587493Y-74448191D01*
X113586927Y-74442911D01*
X113579136Y-74391971D01*
X113568140Y-74346517D01*
X113553696Y-74305942D01*
X113535561Y-74269640D01*
X113513491Y-74237005D01*
X113496160Y-74216650D01*
X113464983Y-74187759D01*
X113428750Y-74162813D01*
X113387317Y-74141745D01*
X113340538Y-74124486D01*
X113288267Y-74110969D01*
X113258684Y-74105364D01*
X113244409Y-74102971D01*
X113231234Y-74100814D01*
X113218754Y-74098882D01*
X113206562Y-74097163D01*
X113194251Y-74095647D01*
X113181417Y-74094321D01*
X113167652Y-74093174D01*
X113152551Y-74092196D01*
X113135708Y-74091373D01*
X113116716Y-74090696D01*
X113095171Y-74090152D01*
X113070665Y-74089730D01*
X113042792Y-74089418D01*
X113011147Y-74089206D01*
X112975323Y-74089082D01*
X112934915Y-74089034D01*
X112889517Y-74089050D01*
G37*
X112889517Y-74089050D02*
X112838721Y-74089121D01*
X112782123Y-74089233D01*
X112719316Y-74089376D01*
X112693026Y-74089437D01*
X112631872Y-74089605D01*
X112574051Y-74089813D01*
X112519864Y-74090058D01*
X112469613Y-74090337D01*
X112423597Y-74090648D01*
X112382118Y-74090987D01*
X112345476Y-74091352D01*
X112313973Y-74091740D01*
X112287909Y-74092148D01*
X112267584Y-74092573D01*
X112253300Y-74093013D01*
X112245358Y-74093464D01*
X112243958Y-74093664D01*
X112225251Y-74101655D01*
X112208879Y-74114426D01*
X112201050Y-74123921D01*
X112198773Y-74127439D01*
X112196994Y-74130993D01*
X112195662Y-74135402D01*
X112194723Y-74141489D01*
X112194128Y-74150072D01*
X112193823Y-74161973D01*
X112193756Y-74178014D01*
X112193876Y-74199013D01*
X112194131Y-74225793D01*
X112194197Y-74232213D01*
X112194531Y-74262482D01*
X112194995Y-74286764D01*
X112195807Y-74305845D01*
X112197185Y-74320510D01*
X112199349Y-74331545D01*
X112202518Y-74339735D01*
X112206910Y-74345868D01*
X112212744Y-74350727D01*
X112220240Y-74355099D01*
X112229616Y-74359770D01*
X112229757Y-74359839D01*
X112248925Y-74369217D01*
X112636922Y-74368325D01*
X112698314Y-74368182D01*
X112753302Y-74368060D01*
X112802254Y-74367977D01*
X112845540Y-74367949D01*
X112883529Y-74367990D01*
X112916590Y-74368119D01*
X112945092Y-74368350D01*
X112969403Y-74368700D01*
X112989894Y-74369186D01*
X113006932Y-74369823D01*
X113020888Y-74370627D01*
X113032129Y-74371615D01*
X113041026Y-74372803D01*
X113047947Y-74374207D01*
X113053261Y-74375843D01*
X113057337Y-74377727D01*
X113060545Y-74379876D01*
X113063252Y-74382306D01*
X113065829Y-74385032D01*
X113067828Y-74387207D01*
X113070100Y-74389534D01*
X113072173Y-74391634D01*
X113074057Y-74393809D01*
X113075760Y-74396366D01*
X113077292Y-74399609D01*
X113078661Y-74403843D01*
X113079877Y-74409373D01*
X113080949Y-74416505D01*
X113081886Y-74425542D01*
X113082697Y-74436789D01*
X113083390Y-74450553D01*
X113083976Y-74467137D01*
X113084462Y-74486846D01*
X113084859Y-74509986D01*
X113085175Y-74536861D01*
X113085419Y-74567776D01*
X113085601Y-74603036D01*
X113085729Y-74642946D01*
X113085813Y-74687811D01*
X113085861Y-74737936D01*
X113085882Y-74793626D01*
X113085887Y-74855185D01*
X113085883Y-74922919D01*
X113085880Y-74994347D01*
X113085877Y-75067302D01*
X113085868Y-75133793D01*
X113085848Y-75194130D01*
X113085815Y-75248621D01*
X113085765Y-75297575D01*
X113085695Y-75341301D01*
X113085601Y-75380109D01*
X113085481Y-75414308D01*
X113085331Y-75444208D01*
X113085149Y-75470116D01*
X113084929Y-75492343D01*
X113084671Y-75511197D01*
X113084369Y-75526988D01*
X113084022Y-75540026D01*
X113083625Y-75550618D01*
X113083175Y-75559074D01*
X113082670Y-75565704D01*
X113082106Y-75570817D01*
X113081479Y-75574721D01*
X113080787Y-75577727D01*
X113080026Y-75580142D01*
X113079710Y-75580990D01*
X113070241Y-75597966D01*
X113056673Y-75609736D01*
X113038402Y-75616810D01*
X113036705Y-75617191D01*
X113032527Y-75617574D01*
X113023597Y-75617934D01*
X113009810Y-75618271D01*
X112991058Y-75618585D01*
X112967234Y-75618878D01*
X112938231Y-75619149D01*
X112903942Y-75619399D01*
X112864261Y-75619628D01*
X112819080Y-75619837D01*
X112768292Y-75620025D01*
X112711791Y-75620194D01*
X112649469Y-75620343D01*
X112581219Y-75620473D01*
X112506935Y-75620584D01*
X112426510Y-75620677D01*
X112339836Y-75620752D01*
X112246806Y-75620810D01*
X112147314Y-75620850D01*
X112041253Y-75620873D01*
X111939326Y-75620880D01*
X110859146Y-75620880D01*
X110859072Y-74886820D01*
X110859062Y-74803684D01*
X110859048Y-74727052D01*
X110859027Y-74656653D01*
X110858998Y-74592218D01*
X110858957Y-74533475D01*
X110858904Y-74480156D01*
X110858835Y-74431989D01*
X110858748Y-74388705D01*
X110858642Y-74350035D01*
X110858513Y-74315707D01*
X110858359Y-74285452D01*
X110858179Y-74258999D01*
X110857970Y-74236080D01*
X110857729Y-74216423D01*
X110857455Y-74199758D01*
X110857145Y-74185816D01*
X110856797Y-74174327D01*
X110856408Y-74165020D01*
X110855977Y-74157625D01*
X110855501Y-74151873D01*
X110854978Y-74147492D01*
X110854406Y-74144214D01*
X110853782Y-74141768D01*
X110853104Y-74139885D01*
X110852810Y-74139213D01*
X110844364Y-74125826D01*
X110832172Y-74112684D01*
X110818277Y-74101622D01*
X110804722Y-74094471D01*
X110801967Y-74093599D01*
X110795418Y-74092692D01*
X110783042Y-74091953D01*
X110764697Y-74091380D01*
X110740242Y-74090971D01*
X110709535Y-74090724D01*
X110672434Y-74090638D01*
X110628798Y-74090710D01*
X110595920Y-74090846D01*
X110403640Y-74091800D01*
X110387661Y-74101193D01*
X110376132Y-74109790D01*
X110364964Y-74120978D01*
X110360568Y-74126593D01*
X110349453Y-74142600D01*
X110348584Y-74876249D01*
X110347714Y-75609898D01*
X110052250Y-75612223D01*
X110020199Y-75612442D01*
X109981841Y-75612645D01*
X109937642Y-75612832D01*
X109888067Y-75613003D01*
X109833582Y-75613157D01*
X109774655Y-75613293D01*
X109711750Y-75613411D01*
X109645333Y-75613511D01*
X109575871Y-75613591D01*
X109503830Y-75613652D01*
X109429675Y-75613692D01*
X109353873Y-75613711D01*
X109276890Y-75613709D01*
X109199191Y-75613685D01*
X109121243Y-75613639D01*
X109043511Y-75613570D01*
X108969386Y-75613481D01*
X108181986Y-75612413D01*
X108167308Y-75604579D01*
X108155760Y-75596522D01*
X108147809Y-75585601D01*
X108145516Y-75580872D01*
X108144010Y-75577062D01*
X108142638Y-75572441D01*
X108141388Y-75566682D01*
X108140254Y-75559462D01*
X108139228Y-75550457D01*
X108138299Y-75539341D01*
X108137461Y-75525791D01*
X108136705Y-75509482D01*
X108136022Y-75490089D01*
X108135404Y-75467288D01*
X108134843Y-75440755D01*
X108134330Y-75410165D01*
X108133857Y-75375193D01*
X108133415Y-75335516D01*
X108132996Y-75290808D01*
X108132592Y-75240745D01*
X108132195Y-75185003D01*
X108131795Y-75123258D01*
X108131385Y-75055184D01*
X108131228Y-75028213D01*
X108130877Y-74966016D01*
X108130565Y-74910229D01*
X108130272Y-74860490D01*
X108129977Y-74816436D01*
X108129659Y-74777703D01*
X108129299Y-74743931D01*
X108128875Y-74714755D01*
X108128366Y-74689812D01*
X108127752Y-74668742D01*
X108127013Y-74651179D01*
X108126128Y-74636763D01*
X108125075Y-74625129D01*
X108123835Y-74615916D01*
X108122387Y-74608761D01*
X108120711Y-74603300D01*
X108118785Y-74599171D01*
X108116588Y-74596012D01*
X108114102Y-74593460D01*
X108111304Y-74591152D01*
X108108174Y-74588724D01*
X108106141Y-74587071D01*
X108101163Y-74583041D01*
X108096184Y-74579609D01*
X108090642Y-74576728D01*
X108083974Y-74574349D01*
X108075617Y-74572426D01*
X108065009Y-74570908D01*
X108051586Y-74569750D01*
X108034787Y-74568901D01*
X108014048Y-74568314D01*
X107988807Y-74567942D01*
X107958501Y-74567735D01*
X107922568Y-74567646D01*
X107880444Y-74567627D01*
X107878803Y-74567627D01*
X107836834Y-74567641D01*
X107801067Y-74567716D01*
X107770932Y-74567898D01*
X107745858Y-74568235D01*
X107725275Y-74568772D01*
X107708611Y-74569557D01*
X107695297Y-74570638D01*
X107684760Y-74572060D01*
X107676431Y-74573871D01*
X107669739Y-74576117D01*
X107664114Y-74578846D01*
X107658983Y-74582104D01*
X107653777Y-74585939D01*
X107653510Y-74586143D01*
X107649962Y-74588675D01*
X107646788Y-74590807D01*
X107643967Y-74592911D01*
X107641477Y-74595356D01*
X107639296Y-74598512D01*
X107637404Y-74602751D01*
X107635778Y-74608442D01*
X107634396Y-74615956D01*
X107633237Y-74625663D01*
X107632280Y-74637933D01*
X107631502Y-74653137D01*
X107630883Y-74671645D01*
X107630399Y-74693827D01*
X107630031Y-74720053D01*
X107629755Y-74750695D01*
X107629551Y-74786121D01*
X107629397Y-74826704D01*
X107629271Y-74872812D01*
X107629152Y-74924816D01*
X107629017Y-74983086D01*
X107628959Y-75006200D01*
X107628798Y-75077763D01*
X107628708Y-75142923D01*
X107628704Y-75202051D01*
X107628799Y-75255517D01*
X107629006Y-75303692D01*
X107629339Y-75346945D01*
X107629813Y-75385647D01*
X107630441Y-75420169D01*
X107631236Y-75450881D01*
X107632212Y-75478153D01*
X107633383Y-75502356D01*
X107634763Y-75523860D01*
X107636365Y-75543035D01*
X107638203Y-75560252D01*
X107640290Y-75575881D01*
X107642642Y-75590293D01*
X107645270Y-75603857D01*
X107648189Y-75616945D01*
X107651413Y-75629927D01*
X107652146Y-75632733D01*
X107666962Y-75677974D01*
X107686472Y-75718609D01*
X107710802Y-75754751D01*
X107740077Y-75786513D01*
X107774425Y-75814004D01*
X107813969Y-75837338D01*
X107858838Y-75856627D01*
X107909157Y-75871981D01*
X107926428Y-75876081D01*
X107960169Y-75882859D01*
X107995067Y-75888340D01*
X108032575Y-75892697D01*
X108074146Y-75896102D01*
X108113508Y-75898366D01*
X108122924Y-75898656D01*
X108138911Y-75898939D01*
X108161265Y-75899213D01*
X108189783Y-75899480D01*
X108224262Y-75899738D01*
X108264498Y-75899988D01*
X108310290Y-75900229D01*
X108361432Y-75900461D01*
X108417724Y-75900684D01*
X108478960Y-75900898D01*
X108544939Y-75901102D01*
X108615457Y-75901297D01*
X108690311Y-75901482D01*
X108769298Y-75901657D01*
X108852215Y-75901823D01*
X108938858Y-75901978D01*
X109029025Y-75902122D01*
X109122513Y-75902256D01*
X109219118Y-75902379D01*
X109318637Y-75902492D01*
X109420867Y-75902593D01*
X109525605Y-75902683D01*
X109632649Y-75902761D01*
X109741794Y-75902828D01*
X109852838Y-75902883D01*
X109965577Y-75902926D01*
X110079809Y-75902957D01*
X110195330Y-75902976D01*
X110311938Y-75902982D01*
X110429429Y-75902976D01*
X110547600Y-75902957D01*
X110666248Y-75902924D01*
X110785169Y-75902879D01*
X110904162Y-75902820D01*
X111023022Y-75902748D01*
X111141547Y-75902662D01*
X111259533Y-75902562D01*
X111376777Y-75902449D01*
X111493077Y-75902321D01*
X111608228Y-75902178D01*
X111722029Y-75902021D01*
X111834276Y-75901850D01*
X111944765Y-75901663D01*
X111964893Y-75901627D01*
X112053840Y-75901461D01*
X112141110Y-75901284D01*
X112226454Y-75901099D01*
X112309626Y-75900907D01*
X112390379Y-75900707D01*
X112468465Y-75900502D01*
X112543637Y-75900292D01*
X112615648Y-75900077D01*
X112684252Y-75899860D01*
X112749200Y-75899640D01*
X112810246Y-75899419D01*
X112867142Y-75899198D01*
X112919642Y-75898977D01*
X112967498Y-75898757D01*
X113010463Y-75898540D01*
X113048290Y-75898326D01*
X113080731Y-75898116D01*
X113107540Y-75897912D01*
X113128469Y-75897713D01*
X113143272Y-75897521D01*
X113151701Y-75897337D01*
X113153613Y-75897228D01*
X113162187Y-75895958D01*
X113175679Y-75894159D01*
X113192279Y-75892066D01*
X113210175Y-75889912D01*
X113211186Y-75889793D01*
X113270838Y-75880802D01*
X113324750Y-75868381D01*
X113373111Y-75852378D01*
X113416108Y-75832642D01*
X113453930Y-75809022D01*
X113486764Y-75781365D01*
X113514797Y-75749520D01*
X113538219Y-75713335D01*
X113557216Y-75672659D01*
X113571977Y-75627340D01*
X113580022Y-75592093D01*
X113581629Y-75583466D01*
X113583088Y-75574807D01*
X113584407Y-75565767D01*
X113585593Y-75555997D01*
X113586652Y-75545148D01*
X113587592Y-75532873D01*
X113588420Y-75518822D01*
X113589143Y-75502646D01*
X113589767Y-75483998D01*
X113590301Y-75462528D01*
X113590750Y-75437888D01*
X113591123Y-75409728D01*
X113591426Y-75377701D01*
X113591666Y-75341458D01*
X113591850Y-75300650D01*
X113591986Y-75254929D01*
X113592079Y-75203945D01*
X113592139Y-75147351D01*
X113592171Y-75084797D01*
X113592182Y-75015935D01*
X113592182Y-74991448D01*
X113592174Y-74921661D01*
X113592149Y-74858306D01*
X113592103Y-74801044D01*
X113592034Y-74749532D01*
X113591938Y-74703431D01*
X113591811Y-74662400D01*
X113591651Y-74626097D01*
X113591455Y-74594182D01*
X113591218Y-74566315D01*
X113590938Y-74542154D01*
X113590612Y-74521359D01*
X113590235Y-74503590D01*
X113589806Y-74488504D01*
X113589320Y-74475763D01*
X113588775Y-74465024D01*
X113588167Y-74455947D01*
X113587493Y-74448191D01*
X113586927Y-74442911D01*
X113579136Y-74391971D01*
X113568140Y-74346517D01*
X113553696Y-74305942D01*
X113535561Y-74269640D01*
X113513491Y-74237005D01*
X113496160Y-74216650D01*
X113464983Y-74187759D01*
X113428750Y-74162813D01*
X113387317Y-74141745D01*
X113340538Y-74124486D01*
X113288267Y-74110969D01*
X113258684Y-74105364D01*
X113244409Y-74102971D01*
X113231234Y-74100814D01*
X113218754Y-74098882D01*
X113206562Y-74097163D01*
X113194251Y-74095647D01*
X113181417Y-74094321D01*
X113167652Y-74093174D01*
X113152551Y-74092196D01*
X113135708Y-74091373D01*
X113116716Y-74090696D01*
X113095171Y-74090152D01*
X113070665Y-74089730D01*
X113042792Y-74089418D01*
X113011147Y-74089206D01*
X112975323Y-74089082D01*
X112934915Y-74089034D01*
X112889517Y-74089050D01*
%LPC*%
D12*
X133477000Y-86487000D03*
X89535000Y-57531000D03*
D13*
X89408000Y-87630000D03*
D14*
X89408000Y-62230000D03*
D15*
X125651000Y-86748000D03*
X128651000Y-79248000D03*
D16*
X121198000Y-57214000D03*
X115998000Y-86614000D03*
D17*
X110998000Y-86614000D03*
D16*
X105798000Y-57214000D03*
D18*
X132080000Y-59690000D03*
D19*
X127000000Y-59690000D03*
D18*
X100330000Y-58674000D03*
D19*
X95250000Y-58674000D03*
D12*
X97790000Y-76126000D03*
D18*
X97790000Y-64876000D03*
X97790000Y-87376000D03*
M02*
