G04 #@! TF.GenerationSoftware,KiCad,Pcbnew,5.1.12-84ad8e8a86~92~ubuntu20.04.1*
G04 #@! TF.CreationDate,2022-01-09T16:37:58+01:00*
G04 #@! TF.ProjectId,hlk-pm-pcb,686c6b2d-706d-42d7-9063-622e6b696361,1.0*
G04 #@! TF.SameCoordinates,Original*
G04 #@! TF.FileFunction,Copper,L1,Top*
G04 #@! TF.FilePolarity,Positive*
%FSLAX46Y46*%
G04 Gerber Fmt 4.6, Leading zero omitted, Abs format (unit mm)*
G04 Created by KiCad (PCBNEW 5.1.12-84ad8e8a86~92~ubuntu20.04.1) date 2022-01-09 16:37:58*
%MOMM*%
%LPD*%
G01*
G04 APERTURE LIST*
G04 #@! TA.AperFunction,SMDPad,CuDef*
%ADD10C,0.150000*%
G04 #@! TD*
G04 #@! TA.AperFunction,ComponentPad*
%ADD11O,2.400000X2.400000*%
G04 #@! TD*
G04 #@! TA.AperFunction,ComponentPad*
%ADD12C,2.400000*%
G04 #@! TD*
G04 #@! TA.AperFunction,ComponentPad*
%ADD13C,1.800000*%
G04 #@! TD*
G04 #@! TA.AperFunction,ComponentPad*
%ADD14C,2.300000*%
G04 #@! TD*
G04 #@! TA.AperFunction,ComponentPad*
%ADD15R,2.000000X2.300000*%
G04 #@! TD*
G04 #@! TA.AperFunction,ComponentPad*
%ADD16C,3.000000*%
G04 #@! TD*
G04 #@! TA.AperFunction,ComponentPad*
%ADD17R,3.000000X3.000000*%
G04 #@! TD*
G04 #@! TA.AperFunction,Conductor*
%ADD18C,0.300000*%
G04 #@! TD*
G04 APERTURE END LIST*
G04 #@! TA.AperFunction,SMDPad,CuDef*
D10*
G36*
X133604000Y-80449000D02*
G01*
X132854000Y-79949000D01*
X132854000Y-78949000D01*
X134354000Y-78949000D01*
X134354000Y-79949000D01*
X133604000Y-80449000D01*
G37*
G04 #@! TD.AperFunction*
G04 #@! TA.AperFunction,SMDPad,CuDef*
G36*
X132854000Y-81399000D02*
G01*
X132854000Y-80249000D01*
X133604000Y-80749000D01*
X134354000Y-80249000D01*
X134354000Y-81399000D01*
X132854000Y-81399000D01*
G37*
G04 #@! TD.AperFunction*
G04 #@! TA.AperFunction,SMDPad,CuDef*
G36*
G01*
X125463000Y-74559000D02*
X125463000Y-75809000D01*
G75*
G02*
X125213000Y-76059000I-250000J0D01*
G01*
X124463000Y-76059000D01*
G75*
G02*
X124213000Y-75809000I0J250000D01*
G01*
X124213000Y-74559000D01*
G75*
G02*
X124463000Y-74309000I250000J0D01*
G01*
X125213000Y-74309000D01*
G75*
G02*
X125463000Y-74559000I0J-250000D01*
G01*
G37*
G04 #@! TD.AperFunction*
G04 #@! TA.AperFunction,SMDPad,CuDef*
G36*
G01*
X128263000Y-74559000D02*
X128263000Y-75809000D01*
G75*
G02*
X128013000Y-76059000I-250000J0D01*
G01*
X127263000Y-76059000D01*
G75*
G02*
X127013000Y-75809000I0J250000D01*
G01*
X127013000Y-74559000D01*
G75*
G02*
X127263000Y-74309000I250000J0D01*
G01*
X128013000Y-74309000D01*
G75*
G02*
X128263000Y-74559000I0J-250000D01*
G01*
G37*
G04 #@! TD.AperFunction*
D11*
X89408000Y-87630000D03*
D12*
X89408000Y-62230000D03*
D13*
X125651000Y-86748000D03*
X128651000Y-79248000D03*
D14*
X121198000Y-57214000D03*
X115998000Y-86614000D03*
D15*
X110998000Y-86614000D03*
D14*
X105798000Y-57214000D03*
D16*
X132080000Y-59690000D03*
D17*
X127000000Y-59690000D03*
D16*
X100330000Y-58674000D03*
D17*
X95250000Y-58674000D03*
D16*
X97790000Y-64876000D03*
X97790000Y-87376000D03*
G04 #@! TA.AperFunction,SMDPad,CuDef*
G36*
G01*
X128675000Y-68088000D02*
X128675000Y-70088000D01*
G75*
G02*
X128425000Y-70338000I-250000J0D01*
G01*
X124525000Y-70338000D01*
G75*
G02*
X124275000Y-70088000I0J250000D01*
G01*
X124275000Y-68088000D01*
G75*
G02*
X124525000Y-67838000I250000J0D01*
G01*
X128425000Y-67838000D01*
G75*
G02*
X128675000Y-68088000I0J-250000D01*
G01*
G37*
G04 #@! TD.AperFunction*
G04 #@! TA.AperFunction,SMDPad,CuDef*
G36*
G01*
X136075000Y-68088000D02*
X136075000Y-70088000D01*
G75*
G02*
X135825000Y-70338000I-250000J0D01*
G01*
X131925000Y-70338000D01*
G75*
G02*
X131675000Y-70088000I0J250000D01*
G01*
X131675000Y-68088000D01*
G75*
G02*
X131925000Y-67838000I250000J0D01*
G01*
X135825000Y-67838000D01*
G75*
G02*
X136075000Y-68088000I0J-250000D01*
G01*
G37*
G04 #@! TD.AperFunction*
G04 #@! TA.AperFunction,SMDPad,CuDef*
G36*
G01*
X132392000Y-74709000D02*
X132392000Y-75659000D01*
G75*
G02*
X132142000Y-75909000I-250000J0D01*
G01*
X131642000Y-75909000D01*
G75*
G02*
X131392000Y-75659000I0J250000D01*
G01*
X131392000Y-74709000D01*
G75*
G02*
X131642000Y-74459000I250000J0D01*
G01*
X132142000Y-74459000D01*
G75*
G02*
X132392000Y-74709000I0J-250000D01*
G01*
G37*
G04 #@! TD.AperFunction*
G04 #@! TA.AperFunction,SMDPad,CuDef*
G36*
G01*
X134292000Y-74709000D02*
X134292000Y-75659000D01*
G75*
G02*
X134042000Y-75909000I-250000J0D01*
G01*
X133542000Y-75909000D01*
G75*
G02*
X133292000Y-75659000I0J250000D01*
G01*
X133292000Y-74709000D01*
G75*
G02*
X133542000Y-74459000I250000J0D01*
G01*
X134042000Y-74459000D01*
G75*
G02*
X134292000Y-74709000I0J-250000D01*
G01*
G37*
G04 #@! TD.AperFunction*
D18*
X126431000Y-69132000D02*
X126475000Y-69088000D01*
X126475000Y-69767000D02*
X126475000Y-69088000D01*
X131892000Y-75184000D02*
X126475000Y-69767000D01*
X126475000Y-60215000D02*
X127000000Y-59690000D01*
X126475000Y-69088000D02*
X126475000Y-60215000D01*
X128016000Y-55372000D02*
X107640000Y-55372000D01*
X107640000Y-55372000D02*
X105798000Y-57214000D01*
X130048000Y-57404000D02*
X128016000Y-55372000D01*
X130048000Y-70612000D02*
X130048000Y-57404000D01*
X131892000Y-72456000D02*
X130048000Y-70612000D01*
X131892000Y-75184000D02*
X131892000Y-72456000D01*
X133480000Y-69483000D02*
X133875000Y-69088000D01*
X132080000Y-69088000D02*
X133875000Y-69088000D01*
X133792000Y-69171000D02*
X133875000Y-69088000D01*
X133792000Y-75184000D02*
X133792000Y-69171000D01*
X132716990Y-76259010D02*
X133792000Y-75184000D01*
X128713010Y-76259010D02*
X132716990Y-76259010D01*
X127638000Y-75184000D02*
X128713010Y-76259010D01*
X134704010Y-76096010D02*
X133792000Y-75184000D01*
X134704010Y-80548990D02*
X134704010Y-76096010D01*
X134354000Y-80899000D02*
X134704010Y-80548990D01*
X133604000Y-80899000D02*
X134354000Y-80899000D01*
X132080000Y-67293000D02*
X133875000Y-69088000D01*
X132080000Y-59690000D02*
X132080000Y-67293000D01*
X121198000Y-71544000D02*
X121198000Y-57214000D01*
X124838000Y-75184000D02*
X121198000Y-71544000D01*
X133159008Y-79449000D02*
X133604000Y-79449000D01*
X130914018Y-76759018D02*
X133604000Y-79449000D01*
X126413018Y-76759018D02*
X130914018Y-76759018D01*
X124838000Y-75184000D02*
X126413018Y-76759018D01*
M02*
